<?xml version="1.0" encoding="iso-8859-1"?>
<!-- Generator: Adobe Illustrator 19.0.0, SVG Export Plug-In . SVG Version: 6.00 Build 0)  -->
<svg version="1.1" id="Layer_1" xmlns="http://www.w3.org/2000/svg" xmlns:xlink="http://www.w3.org/1999/xlink" x="0px" y="0px"
	 viewBox="0 0 488.225 488.225" style="enable-background:new 0 0 488.225 488.225;" xml:space="preserve">
<g transform="translate(0 -540.36)">
	<g>
		<g>
			<path d="M382.1,896.773l-13.3,12.8c-4,3.8-4.1,10.1-0.3,14.1c2,2.1,4.6,3.1,7.2,3.1c2.5,0,5-0.9,7.1-2.6l20.6-19.9
				c2-1.9,3.1-4.4,3.1-7.1s-1-5.3-2.9-7.2l-20.6-20.6c-1.9-1.8-4.4-2.9-7.1-2.9H135.7l-20.6-20.6l20.6-20.6h281.4
				c2.7,0,5.2-1,7.1-2.9l30.5-30.6c3.9-3.9,3.9-10.2,0-14.1l-30.5-30.6c-1.9-1.8-4.4-2.9-7.1-2.9s-5.2,1-7.1,2.9l-20.6,20.6
				c-3.9,3.9-3.9,10.2,0,14.1c3.9,3.9,10.2,3.9,14.1,0l13.5-13.6l16.4,16.4l-20.6,20.6H131.4c-2.7,0-5.2,1-7.1,2.9l-30.5,30.6
				c-3.9,3.9-3.9,10.2,0,14.1l30.5,30.6c1.9,1.8,4.4,2.9,7.1,2.9h240.2L382.1,896.773z"/>
			<polygon points="375.7,926.772 375.7,926.772 375.7,926.772 			"/>
			<path d="M450.3,817.973c-3.9,3.9-3.9,10.2,0,14.1l13.6,13.6l-13.6,13.6c-3.9,3.9-3.9,10.2,0,14.1c2,1.9,4.5,2.9,7.1,2.9
				c2.5,0,5.1-1,7-3l20.6-20.6c3.9-3.9,3.9-10.2,0-14.1l-20.6-20.6C460.5,814.073,454.2,814.073,450.3,817.973z"/>
			<path d="M131.3,773.872h224.5c5.6,0,10-4.5,10-10c0-21.2-5.6-42.2-16.3-60.7c-10.6-18.4-25.9-34-44.3-45c0,0-0.1-0.1-0.2-0.1
				c-38.1-21.6-84.9-21.5-122.1,0c-38,21.5-61.6,62-61.6,105.8C121.3,769.372,125.8,773.872,131.3,773.872z M192.9,675.372
				c31.2-18,70.3-18,102.2,0c28.4,17.1,47.1,46.6,50.3,78.5H141.9C145.1,721.172,164,691.672,192.9,675.372z"/>
			<path d="M243.6,610.972c5.5,0,10-4.5,10-10v-50.5c0-5.5-4.5-10-10-10s-10,4.5-10,10v50.5
				C233.6,606.472,238.1,610.972,243.6,610.972z"/>
			<path d="M375.7,662.172c2.6,0,5.1-1,7-2.9l41.2-41.3c3.9-3.9,3.9-10.2,0-14.1c-3.9-3.9-10.2-3.9-14.1,0l-41.2,41.3
				c-3.9,3.9-3.9,10.2,0,14.1C370.6,661.172,373.1,662.172,375.7,662.172z"/>
			<path d="M104.4,659.272c2,1.9,4.5,2.9,7.1,2.9c2.6,0,5.2-1,7-2.9c3.9-3.9,3.9-10.2,0-14.1l-41.2-41.3c-3.9-3.9-10.2-3.9-14.1,0
				c-3.9,3.9-3.9,10.2,0,14.1L104.4,659.272z"/>
			<path d="M70.4,763.872c0-5.5-4.5-10-10-10H10c-5.5,0-10,4.5-10,10s4.5,10,10,10h50.4C65.9,773.872,70.4,769.372,70.4,763.872z"/>
			<path d="M99.9,912.172c-2.5-4.9-8.5-6.9-13.4-4.5l-16.1,8v-19.2c0-5.5-4.5-10-10-10s-10,4.5-10,10v19.4l-16.1-8
				c-4.9-2.5-10.9-0.5-13.4,4.5c-2.5,4.9-0.5,10.9,4.5,13.4l12.7,6.4l-12.7,6.4c-4.9,2.5-6.9,8.5-4.5,13.4c1.8,3.5,5.3,5.5,8.9,5.5
				c1.5,0,3-0.3,4.5-1.1l16.1-8v19.4c0,5.5,4.5,10,10,10s10-4.5,10-10v-19.4l16.1,8c1.4,0.7,3,1.1,4.5,1.1c3.7,0,7.2-2,8.9-5.5
				c2.4-5.1,0.4-11.1-4.5-13.6v0l-12.7-6.4l12.7-6.4C100.3,923.072,102.3,917.072,99.9,912.172z"/>
			<path d="M241.9,963.472c-2.5-4.9-8.5-6.9-13.4-4.4l-15.6,7.9v-18.9c0-5.5-4.5-10-10-10s-10,4.5-10,10v18.9l-15.6-7.9
				c-4.9-2.5-10.9-0.5-13.4,4.4s-0.5,10.9,4.4,13.4l12.6,6.4l-12.6,6.4c-4.9,2.5-6.9,8.5-4.4,13.4c1.8,3.5,5.3,5.5,8.9,5.5
				c1.5,0,3.1-0.3,4.5-1.1l15.6-7.9v18.9c0,5.5,4.5,10,10,10s10-4.5,10-10v-18.9l15.6,7.9c1.5,0.7,3,1.1,4.5,1.1
				c3.6,0,7.2-2,8.9-5.5c2.4-4.9,0.5-10.9-4.4-13.4v0l-12.6-6.4l12.6-6.4C242.4,974.372,244.4,968.372,241.9,963.472z"/>
			<path d="M485.3,961.073l-30.5-30.6c-1.9-1.8-4.4-2.9-7.1-2.9s-5.2,1-7.1,2.9l-20.6,20.6c-3.9,3.9-3.9,10.2,0,14.1
				c3.9,3.9,10.2,3.9,14.1,0l13.5-13.6l16.4,16.4l-20.6,20.6H346c-5.5,0-10,4.5-10,10s4.5,10,10,10h101.5l0,0c2.6,0,5.2-1,7.3-2.8
				l30.5-30.6C489.2,971.273,489.2,964.973,485.3,961.073z"/>
		</g>
	</g>
</g>
<g>
</g>
<g>
</g>
<g>
</g>
<g>
</g>
<g>
</g>
<g>
</g>
<g>
</g>
<g>
</g>
<g>
</g>
<g>
</g>
<g>
</g>
<g>
</g>
<g>
</g>
<g>
</g>
<g>
</g>
</svg>
