<?xml version="1.0" encoding="iso-8859-1"?>
<!-- Generator: Adobe Illustrator 19.0.0, SVG Export Plug-In . SVG Version: 6.00 Build 0)  -->
<svg version="1.1" id="Layer_1" xmlns="http://www.w3.org/2000/svg" xmlns:xlink="http://www.w3.org/1999/xlink" x="0px" y="0px"
	 viewBox="0 0 480.004 480.004" style="enable-background:new 0 0 480.004 480.004;" xml:space="preserve">
<g transform="translate(0 -540.36)">
	<g>
		<g>
			<path d="M372.925,720.262l-31.3-31.5c-1.9-1.8-4.4-2.9-7.1-2.9s-5.2,1-7.1,2.9l-21.2,21.3c-3.9,3.9-3.9,10.2,0,14.1
				c3.9,3.9,10.2,3.9,14.1,0l14.1-14.1l17.2,17.3l-21.4,21.5h-288.9c-2.7,0-5.2,1-7.1,2.9l-31.3,31.5c-3.9,3.9-3.9,10.2,0,14.1
				l31.3,31.5c1.9,1.8,4.4,2.9,7.1,2.9h246.6l11.2,11.3l-14.1,14.2c-3.9,3.9-3.9,10.2,0,14.1c2,1.9,4.5,2.9,7.1,2.9s5.1-1,7.1-2.9
				l21.2-21.3c3.9-3.9,3.9-10.2,0-14.1l-21.2-21.3c-1.9-1.8-4.4-2.9-7.1-2.9h-246.6l-21.4-21.5l21.4-21.5h289c2.7,0,5.2-1,7.1-2.9
				l31.3-31.5C376.825,730.462,376.825,724.162,372.925,720.262z"/>
			<path d="M382.925,762.662c-3.9-3.9-10.3-3.8-14.1,0.2c-3.9,3.9-3.8,10.3,0.2,14.1l13.9,13.4l-14,14.1c-3.9,3.9-3.9,10.2,0,14.1
				c2,1.9,4.5,2.9,7.1,2.9v0c2.5,0,5.1-1,7-2.8l21.2-21.3c1.9-1.9,2.9-4.4,2.9-7.1c0-2.7-1.1-5.2-3-7.1L382.925,762.662z"/>
			<path d="M139.325,702.762c1.9,1.8,4.4,2.9,7.1,2.9h104.2v0c5.5,0,10-4.5,10.1-9.9c0-5.5-4.5-10-10-10h-100.1l-21.4-21.5
				l17.1-17.2l13.3,13.9c3.8,4,10.1,4.1,14.1,0.3s4.1-10.1,0.3-14.1l-20.4-21.3c-1.8-2-4.4-3.1-7.1-3.1h-0.1c-2.7,0-5.2,1-7.1,2.9
				l-31.3,31.5c-3.9,3.9-3.9,10.2,0,14.1L139.325,702.762z"/>
			<path d="M120.125,887.262c-4.7-2.9-10.8-1.3-13.7,3.4l-31.3,52c-2.9,4.7-1.3,10.8,3.4,13.7c1.7,0.9,3.4,1.4,5.2,1.4v0
				c3.3,0,6.6-1.7,8.5-4.8l31.3-52C126.425,896.262,124.825,890.162,120.125,887.262z"/>
			<path d="M182.825,876.162c-4.7-2.8-10.9-1.2-13.7,3.5l-62.7,105.6c-2.8,4.7-1.2,10.9,3.5,13.7c1.6,0.9,3.4,1.4,5.1,1.4
				c3.4,0,6.7-1.7,8.6-4.9l62.7-105.6C189.125,885.162,187.525,878.962,182.825,876.162z"/>
			<path d="M245.425,865.962c-4.7-2.8-10.9-1.2-13.7,3.5l-31.3,52.8c-2.8,4.7-1.2,10.9,3.5,13.7c1.6,0.9,3.4,1.4,5.1,1.4
				c3.4,0,6.8-1.8,8.6-4.9l31.3-52.8C251.725,874.962,250.125,868.762,245.425,865.962z"/>
			<path d="M474.525,676.462l-13.6-6.8l13.6-6.8c4.9-2.5,6.9-8.5,4.4-13.4s-8.5-6.9-13.4-4.4l-16.9,8.5v-20c0-5.5-4.5-10-10-10
				s-10,4.5-10,10v20l-16.9-8.5c-4.9-2.5-10.9-0.5-13.4,4.4s-0.5,10.9,4.4,13.4l13.6,6.8l-13.6,6.8c-4.9,2.5-6.9,8.5-4.4,13.4
				c1.8,3.5,5.3,5.5,8.9,5.5c1.5,0,3-0.3,4.5-1.1l16.9-8.5v20c0,5.5,4.5,10,10,10s10-4.5,10-10v-20l16.9,8.5c1.4,0.7,3,1.1,4.5,1.1
				c3.7,0,7.2-2,8.9-5.5C481.425,684.962,479.425,678.962,474.525,676.462z"/>
			<path d="M284.125,626.662c1.8,3.5,5.3,5.5,8.9,5.5c1.5,0,3.1-0.4,4.5-1.1l16.4-8.4v19.9c0,5.5,4.5,10,10,10s10-4.5,10-10v-19.9
				l16.4,8.4c1.5,0.7,3,1.1,4.5,1.1c3.6,0,7.2-2,8.9-5.5c2.5-4.7,0.6-10.7-4.4-13.2v0l-13.5-6.8l13.5-6.8c4.9-2.5,6.9-8.5,4.4-13.4
				s-8.5-6.9-13.4-4.4l-16.4,8.4v-20.1c0-5.5-4.5-10-10-10s-10,4.5-10,10v19.9l-16.4-8.4c-4.9-2.5-10.9-0.5-13.4,4.4
				s-0.5,10.9,4.4,13.4l13.5,6.8l-13.5,6.8C283.625,615.762,281.625,621.762,284.125,626.662z"/>
		</g>
	</g>
</g>
<g>
</g>
<g>
</g>
<g>
</g>
<g>
</g>
<g>
</g>
<g>
</g>
<g>
</g>
<g>
</g>
<g>
</g>
<g>
</g>
<g>
</g>
<g>
</g>
<g>
</g>
<g>
</g>
<g>
</g>
</svg>
