<?xml version="1.0" encoding="iso-8859-1"?>
<!-- Generator: Adobe Illustrator 19.0.0, SVG Export Plug-In . SVG Version: 6.00 Build 0)  -->
<svg version="1.1" id="Layer_1" xmlns="http://www.w3.org/2000/svg" xmlns:xlink="http://www.w3.org/1999/xlink" x="0px" y="0px"
	 viewBox="0 0 475 475" style="enable-background:new 0 0 475 475;" xml:space="preserve">
<g transform="translate(0 -540.36)">
	<g>
		<g>
			<path d="M451.95,995.36h-41.5h-0.1c-69.8,1-135.1-29.9-170.4-80.6c-35.2-49.7-35.6-111.4-1-161.2c0.1,0,0.1-0.1,0.1-0.1
				c34.3-50.9,99.2-82.5,169.3-82.5h43.6c5.5,0,10-4.5,10-10s-4.5-10-10-10h-43.6c-37.7,0-74.7,8.4-107.2,24.3
				c-32.6,15.9-59.8,39.1-78.6,66.9c-39.5,56.8-39.1,127.4,1.1,184c38.4,55.2,108.4,89.1,183.5,89.1c1.1,0,2.3,0,3.4,0.1h41.4
				c5.5,0,10-4.5,10-10S457.45,995.36,451.95,995.36z"/>
			<path d="M79.15,540.36c-17.7,0-34.4,6.8-46.8,19.2c-12.4,12.4-19.3,28.9-19.3,46.6v68.2c0,17.6,6.9,34.2,19.3,46.6
				c12.5,12.4,29.1,19.2,46.8,19.2c35.9,0,65-29.5,65.1-65.8v-68.2C144.25,569.86,115.05,540.36,79.15,540.36z M124.25,674.26
				c0,25.2-20.3,45.8-45.1,45.8c-25.9,0-46.1-20.1-46.1-45.8v-68.2c0-25.7,20.3-45.8,46.1-45.8c24.8,0,45,20.6,45.1,45.8V674.26z"/>
		</g>
	</g>
</g>
<g>
</g>
<g>
</g>
<g>
</g>
<g>
</g>
<g>
</g>
<g>
</g>
<g>
</g>
<g>
</g>
<g>
</g>
<g>
</g>
<g>
</g>
<g>
</g>
<g>
</g>
<g>
</g>
<g>
</g>
</svg>
