<?xml version="1.0" encoding="iso-8859-1"?>
<!-- Generator: Adobe Illustrator 19.0.0, SVG Export Plug-In . SVG Version: 6.00 Build 0)  -->
<svg version="1.1" id="Layer_1" xmlns="http://www.w3.org/2000/svg" xmlns:xlink="http://www.w3.org/1999/xlink" x="0px" y="0px"
	 viewBox="0 0 488 488" style="enable-background:new 0 0 488 488;" xml:space="preserve">
<g transform="translate(0 -540.36)">
	<g>
		<g>
			<path d="M188.65,664.16l18.6,6.3l-11.9,16.5c-1.3,1.8-1.9,3.9-1.9,5.9c0,3.1,1.4,6.1,4.1,8.1c4.5,3.3,10.8,2.3,14-2.2l11.5-15.8
				l10.4,15.5c1.9,2.8,5.1,4.4,8.3,4.4c1.9,0,3.9-0.5,5.6-1.9c2.8-1.9,4.4-5.1,4.4-8.3c0-2-0.6-3.9-1.7-5.6l-11-16.4l18-5.8
				c4.2-1.4,6.9-5.3,6.9-9.5c0-1-0.2-2.1-0.5-3.1c-1.7-5.2-7.3-8.1-12.6-6.4l-17.6,5.7v-19.8c0-5.5-4.5-10-10-10s-10,4.5-10,10v19.6
				l-18.2-6.2c-5.2-1.7-10.9,1.1-12.7,6.3c-0.3,1-0.5,2.1-0.5,3.2C181.85,658.86,184.45,662.76,188.65,664.16z"/>
			<path d="M468.05,652.46c-1.6-5.2-7.2-8.2-12.5-6.5l-18.4,5.8v-19.9c0-5.5-4.5-10-10-10s-10,4.5-10,10v19.5l-17.4-6
				c-5.2-1.8-10.9,1-12.7,6.2c-0.4,1.1-0.6,2.2-0.6,3.3c0,4.1,2.6,8,6.7,9.4l18.2,6.3l-11.6,16.6c-1.2,1.7-1.8,3.7-1.8,5.7
				c0,3.1,1.5,6.3,4.3,8.2c1.7,1.2,3.7,1.8,5.7,1.8v0c3.2,0,6.3-1.5,8.2-4.4l11-15.7l11,15.7c3.1,4.6,9.4,5.7,13.9,2.5
				c2.8-1.9,4.3-5,4.3-8.2c0-2-0.6-4-1.8-5.7l-11.4-16.3l18.4-5.8c4.3-1.3,7-5.3,7-9.5C468.55,654.46,468.35,653.46,468.05,652.46z"
				/>
			<path d="M345.55,733.96v-20.1c0-5.5-4.5-10-10-10s-10,4.5-10,10v20.1h-20.3c-5.5,0-10,4.5-10,10s4.5,10,10,10h20.3v20.1
				c0,5.5,4.5,10,10,10s10-4.5,10-10v-20.1h20.3c5.5,0,10-4.5,10-10s-4.5-10-10-10H345.55z"/>
			<path d="M87.05,583.56l18,5.8l-11,16.4c-1.2,1.8-1.7,3.7-1.7,5.6c0,3.2,1.5,6.4,4.4,8.3c1.8,1.2,3.7,1.7,5.6,1.7v0
				c3.2,0,6.4-1.6,8.3-4.5l10.4-15.5l11.6,15.8c3.3,4.5,9.5,5.4,14,2.2c2.7-1.9,4.1-5,4.1-8.1c0-2.1-0.6-4.1-1.9-5.9l-11.8-16.2
				l18.2-5.7c4.3-1.3,7-5.3,7-9.5c0-1-0.2-2-0.5-3c-1.6-5.2-7.2-8.2-12.5-6.5l-18.4,5.8v-19.9c0-5.5-4.5-10-10-10s-10,4.5-10,10
				v19.9l-17.6-5.7c-5.3-1.7-10.9,1.1-12.6,6.4c-0.3,1-0.5,2.1-0.5,3.1C80.15,578.26,82.85,582.16,87.05,583.56z"/>
			<path d="M294.65,590.86h20.6v20.1c0,5.5,4.5,10,10,10s10-4.5,10-10v-20.1h20.6c5.5,0,10-4.5,10-10s-4.4-10-10-10h-20.6v-20.1
				c0-5.5-4.5-10-10-10s-10,4.5-10,10v20.1h-20.6c-5.5,0-10,4.5-10,10S289.15,590.86,294.65,590.86z"/>
			<path d="M49.75,712.76v20.1c0,5.5,4.5,10,10,10s10-4.5,10-10v-20.1h20.3c5.5,0,10-4.5,10-10s-4.5-10-10-10h-20.3v-20.1
				c0-5.5-4.5-10-10-10s-10,4.5-10,10v20.1h-20.3c-5.5,0-10,4.5-10,10s4.5,10,10,10H49.75z"/>
			<path d="M314.55,823.06c-9.3,0-19.1,1.6-28.5,4.5c-23.9-45.1-70.2-73.8-120.3-73.8c-75.3,0-136.5,61.6-136.5,137.3
				s61.2,137.3,136.5,137.3h148.9c56.3,0,102.1-46.1,102-102.6C416.65,869.16,370.85,823.06,314.55,823.06z M314.75,1008.36h-148.9
				c-64.2,0-116.5-52.6-116.5-117.3s52.3-117.3,116.5-117.3c45.3,0,86.9,27.6,106.2,70.3c2.2,4.9,8,7.2,13,5.1
				c9.3-4,20.2-6.2,29.7-6.2c45.3,0,82.1,37.1,82.1,82.7C396.85,971.26,360.05,1008.36,314.75,1008.36z"/>
		</g>
	</g>
</g>
<g>
</g>
<g>
</g>
<g>
</g>
<g>
</g>
<g>
</g>
<g>
</g>
<g>
</g>
<g>
</g>
<g>
</g>
<g>
</g>
<g>
</g>
<g>
</g>
<g>
</g>
<g>
</g>
<g>
</g>
</svg>
