<?xml version="1.0" encoding="iso-8859-1"?>
<!-- Generator: Adobe Illustrator 19.0.0, SVG Export Plug-In . SVG Version: 6.00 Build 0)  -->
<svg version="1.1" id="Layer_1" xmlns="http://www.w3.org/2000/svg" xmlns:xlink="http://www.w3.org/1999/xlink" x="0px" y="0px"
	 viewBox="0 0 470 470" style="enable-background:new 0 0 470 470;" xml:space="preserve">
<g transform="translate(0 -540.36)">
	<g>
		<g>
			<path d="M440,592.96L440,592.96l-231,0c-5.5,0-10,4.5-10,10v397.4c0,5.5,4.5,10,10,10s10-4.5,10-10v-188.7h157.9
				c5.5,0,10-4.5,10-10s-4.5-10-10-10H219v-178.7h221c5.5,0,10-4.5,10-10S445.5,592.96,440,592.96z"/>
			<path d="M72.6,540.36c-29,0-52.6,23.5-52.6,52.4v51.8c0,28.9,23.6,52.4,52.6,52.4c28.5,0,51.8-23.5,51.8-52.4v-51.8
				C124.4,563.86,101.2,540.36,72.6,540.36z M104.4,644.56c0,17.9-14.3,32.4-31.8,32.4c-18.3,0-32.6-14.2-32.6-32.4v-51.8
				c0-18.2,14.3-32.4,32.6-32.4c17.5,0,31.8,14.5,31.8,32.4V644.56z"/>
		</g>
	</g>
</g>
<g>
</g>
<g>
</g>
<g>
</g>
<g>
</g>
<g>
</g>
<g>
</g>
<g>
</g>
<g>
</g>
<g>
</g>
<g>
</g>
<g>
</g>
<g>
</g>
<g>
</g>
<g>
</g>
<g>
</g>
</svg>
