<?xml version="1.0" encoding="iso-8859-1"?>
<!-- Generator: Adobe Illustrator 19.0.0, SVG Export Plug-In . SVG Version: 6.00 Build 0)  -->
<svg version="1.1" id="Layer_1" xmlns="http://www.w3.org/2000/svg" xmlns:xlink="http://www.w3.org/1999/xlink" x="0px" y="0px"
	 viewBox="0 0 487.917 487.917" style="enable-background:new 0 0 487.917 487.917;" xml:space="preserve">
<g transform="translate(0 -540.36)">
	<g>
		<g>
			<path d="M384.839,929.878c-10.7,8.7-30.1,21.1-39.6,21.1c-5.3,0-11.1-4.7-17.3-9.7c-7.9-6.4-16.9-13.7-28.6-13.7
				c-12.1,0-21.4,7.4-29.6,13.9c-6.2,4.9-12,9.5-17.2,9.5c-5.1,0-10.7-4.5-16.6-9.4c-8-6.6-17.1-14-29.3-14s-21.3,7.5-29.3,14
				c-5.9,4.8-11.5,9.4-16.6,9.4c-5.2,0-11-4.6-17.2-9.5c-8.2-6.5-17.4-13.9-29.6-13.9c-11.6,0-20.6,7.3-28.6,13.7
				c-6.2,5-12.1,9.7-17.3,9.7c-9.5,0-28.8-12.3-39.6-21.1c-4.3-3.5-10.6-2.9-14.1,1.4c-3.5,4.3-2.9,10.6,1.4,14.1
				c5.3,4.3,32.4,25.7,52.3,25.7c12.3,0,21.6-7.5,29.8-14.1c5.9-4.8,11.5-9.3,16.1-9.3c5.2,0,11,4.6,17.2,9.5
				c8.2,6.5,17.4,13.9,29.6,13.9s21.3-7.5,29.3-14c5.9-4.8,11.5-9.4,16.6-9.4s10.7,4.5,16.6,9.4c8,6.6,17.1,14,29.3,14
				c12.1,0,21.4-7.4,29.6-13.9c6.2-4.9,12-9.5,17.2-9.5c4.6,0,10.2,4.5,16.1,9.3c8.2,6.6,17.5,14.1,29.8,14.1
				c19.9,0,47-21.4,52.3-25.7c4.3-3.5,4.9-9.8,1.4-14.1S389.139,926.378,384.839,929.878z"/>
			<polygon points="345.239,971.078 345.239,971.078 345.239,971.078 			"/>
			<path d="M384.839,987.878c-10.7,8.5-30.1,20.4-39.7,20.4c-5.3,0-11.2-4.6-17.4-9.4c-7.9-6.2-16.9-13.2-28.5-13.2
				c-12.1,0-21.3,7.1-29.5,13.3c-6.2,4.7-12,9.2-17.3,9.2c-5.2,0-10.8-4.4-16.8-9.1c-8-6.3-17-13.4-29.2-13.4s-21.2,7.1-29.2,13.4
				c-6,4.7-11.6,9.1-16.8,9.1c-5.3,0-11.1-4.5-17.3-9.2c-8.2-6.2-17.4-13.3-29.5-13.3c-11.6,0-20.6,7-28.5,13.2
				c-6.2,4.8-12,9.4-17.4,9.4c-9.5,0-28.9-11.9-39.7-20.4c-4.3-3.4-10.6-2.6-14,1.7c-3.4,4.3-2.6,10.6,1.7,14
				c3.2,2.5,31.9,24.7,52.1,24.7c12.2,0,21.5-7.2,29.7-13.6c5.9-4.6,11.5-8.9,16.2-8.9c5.3,0,11.1,4.5,17.3,9.2
				c8.2,6.2,17.4,13.3,29.5,13.3c12.2,0,21.2-7.1,29.2-13.4c6-4.7,11.6-9.1,16.8-9.1s10.8,4.4,16.8,9.1c8,6.3,17.1,13.4,29.2,13.4
				s21.3-7.1,29.5-13.3c6.2-4.7,12-9.2,17.3-9.2c4.7,0,10.3,4.3,16.2,8.9c8.2,6.4,17.5,13.6,29.7,13.6c20.2,0,48.9-22.2,51.9-24.7
				c4.4-3.4,5.1-9.7,1.7-14C395.439,985.178,389.139,984.478,384.839,987.878z"/>
			<path d="M485.938,682.179L485.938,682.179c-2.3-3.2-6.2-4.7-10-3.9c-3.4,0.7-7.1,0.7-11,0.7c-45.6,0-82.7-37.1-82.7-82.7
				c0-14.4,3.7-28.2,10.8-41c1.9-3.3,1.7-7.5-0.5-10.6s-6-4.8-9.8-4.2c-44,7-77.6,40.2-85.6,82.7c-14-4.8-28.9-7.4-44.5-7.4
				c-26.6,0-52.4,7.7-74.6,22.2c-19.6,12.9-35.6,30.6-46.6,51.6c-9.4-2.9-19.4-4.5-28.7-4.5c-56.6,0-102.7,46.1-102.7,102.7
				c0,27.4,10.7,53,30.2,72.2c19.4,19.1,45.1,29.6,72.6,29.6h149.9c36.7,0,71.1-14.1,97.1-39.8c26-25.8,40.3-60.1,40.3-96.7
				c0-2-0.1-3.9-0.1-5.9c40.9-1.8,79.5-23.2,96.8-54.2C488.438,689.579,488.238,685.379,485.938,682.179z M252.538,869.579h-150
				c-45.6,0-82.7-36.7-82.7-81.9c0-45.6,37.1-82.7,82.7-82.7c9.6,0,20.6,2.2,30,6.2c5,2.1,10.8-0.2,13-5.2
				c19.3-43.4,60.3-70.3,107-70.3c64.7,0,117.4,52.7,117.4,117.4C369.938,817.379,317.238,869.579,252.538,869.579z
				 M387.438,727.279c-8-41.8-34.9-76.9-71.5-96c4-29.8,23.5-54.6,50.8-65.8c-3.1,9.9-4.7,20.2-4.7,30.7
				c0,54.1,42.1,98.6,95.2,102.5C440.538,715.58,414.638,726.479,387.438,727.279z"/>
		</g>
	</g>
</g>
<g>
</g>
<g>
</g>
<g>
</g>
<g>
</g>
<g>
</g>
<g>
</g>
<g>
</g>
<g>
</g>
<g>
</g>
<g>
</g>
<g>
</g>
<g>
</g>
<g>
</g>
<g>
</g>
<g>
</g>
</svg>
