<?xml version="1.0" encoding="iso-8859-1"?>
<!-- Generator: Adobe Illustrator 19.0.0, SVG Export Plug-In . SVG Version: 6.00 Build 0)  -->
<svg version="1.1" id="Layer_1" xmlns="http://www.w3.org/2000/svg" xmlns:xlink="http://www.w3.org/1999/xlink" x="0px" y="0px"
	 viewBox="0 0 487.9 487.9" style="enable-background:new 0 0 487.9 487.9;" xml:space="preserve">
<g transform="translate(0 -540.36)">
	<g>
		<g>
			<path d="M133.75,863.36h179.1c89.5,0,162.1-72.5,162.1-161.5s-72.8-161.5-162.2-161.5c-60,0-115.5,34.3-143.7,88.2
				c-11.5-3.8-23.8-5.8-35.3-5.8c-66.6,0-120.8,54-120.8,120.3S67.15,863.36,133.75,863.36z M133.85,642.76c11.7,0,25,2.7,36.6,7.6
				c4.9,2.1,10.7-0.2,12.9-5.1c23.4-51.6,74.3-84.9,129.6-84.9c78.4,0,142.2,63.5,142.2,141.5s-63.8,141.5-142.2,141.5h-179.1
				c-55.6,0-100.8-45-100.8-100.3S78.25,642.76,133.85,642.76z"/>
			<path d="M458.75,913.46c-12.6,9.9-36.9,25.7-48.7,25.7c-6.8,0-14.1-5.8-21.7-11.8c-9.6-7.6-20.4-16.1-34.2-16.1
				c-13.9,0-24.4,8.6-33.7,16.2c-7.3,6-14.3,11.7-21.1,11.7s-13.7-5.7-21.1-11.7c-9.3-7.6-19.8-16.2-33.7-16.2
				c-13.9,0-24.7,8.6-34.2,16.1c-7.6,6.1-14.8,11.8-21.7,11.8c-6.1,0-13.1-5.5-20.4-11.4c-9.6-7.7-20.4-16.4-34.4-16.4
				c-13.9,0-24.4,8.6-33.7,16.2c-7.4,6-14.3,11.7-21.1,11.7c-12.5,0-37.1-15.8-49.7-25.7c-4.3-3.5-10.6-2.7-14,1.6
				c-3.5,4.3-2.7,10.6,1.6,14c3.9,3.1,38.6,30,62.1,30c13.9,0,24.4-8.6,33.7-16.2c7.4-6,14.3-11.7,21.1-11.7c7,0,14.2,5.8,21.9,12
				c9.3,7.5,19.8,15.9,33,15.9c13.9,0,24.7-8.6,34.2-16.1c7.6-6.1,14.8-11.8,21.7-11.8c6.8,0,13.7,5.7,21.1,11.7
				c9.3,7.6,19.8,16.2,33.7,16.2s24.4-8.6,33.7-16.2c7.4-6,14.3-11.7,21.1-11.7c6.8,0,14.1,5.8,21.7,11.8
				c9.6,7.6,20.4,16.1,34.2,16.1c22.5,0,57.2-26.9,61-30.1c4.3-3.4,5-9.7,1.6-14C469.35,910.76,463.05,910.06,458.75,913.46z"/>
			<path d="M458.75,982.56c-13.5,10.7-37.5,25.7-48.7,25.7c-6.8,0-14.1-5.8-21.7-11.8c-9.6-7.6-20.4-16.1-34.2-16.1
				c-13.9,0-24.4,8.6-33.7,16.2c-7.3,6-14.3,11.7-21.1,11.7s-13.7-5.7-21.1-11.7c-9.3-7.6-19.8-16.2-33.7-16.2
				c-13.9,0-24.7,8.6-34.2,16.1c-7.6,6.1-14.8,11.8-21.7,11.8c-6.1,0-13.1-5.5-20.4-11.4c-9.6-7.7-20.4-16.4-34.4-16.4
				c-13.9,0-24.4,8.6-33.7,16.2c-7.4,6-14.3,11.7-21.1,11.7c-12.5,0-37.1-15.8-49.7-25.7c-4.3-3.5-10.6-2.7-14,1.6
				c-3.5,4.3-2.7,10.6,1.6,14c3.9,3.1,38.6,30,62.1,30c13.9,0,24.4-8.6,33.7-16.2c7.4-6,14.3-11.7,21.1-11.7c7,0,14.2,5.8,21.9,12
				c9.3,7.5,19.8,15.9,33,15.9c13.9,0,24.7-8.6,34.2-16.1c7.6-6.1,14.8-11.8,21.7-11.8c6.8,0,13.7,5.7,21.1,11.7
				c9.3,7.6,19.8,16.2,33.7,16.2s24.4-8.6,33.7-16.2c7.4-6,14.3-11.7,21.1-11.7c6.8,0,14.1,5.8,21.7,11.8
				c9.6,7.6,20.4,16.1,34.2,16.1v0c22.5,0,57.2-26.9,61-30.1c4.3-3.4,5-9.7,1.6-14C469.35,979.86,463.05,979.16,458.75,982.56z"/>
		</g>
	</g>
</g>
<g>
</g>
<g>
</g>
<g>
</g>
<g>
</g>
<g>
</g>
<g>
</g>
<g>
</g>
<g>
</g>
<g>
</g>
<g>
</g>
<g>
</g>
<g>
</g>
<g>
</g>
<g>
</g>
<g>
</g>
</svg>
