<?xml version="1.0" encoding="iso-8859-1"?>
<!-- Generator: Adobe Illustrator 19.0.0, SVG Export Plug-In . SVG Version: 6.00 Build 0)  -->
<svg version="1.1" id="Layer_1" xmlns="http://www.w3.org/2000/svg" xmlns:xlink="http://www.w3.org/1999/xlink" x="0px" y="0px"
	 viewBox="0 0 488.2 488.2" style="enable-background:new 0 0 488.2 488.2;" xml:space="preserve">
<g>
	<g>
		<path d="M478,160.75h-66.6c-24.8-35.3-64.9-58.3-110.1-58.3c-51.2,0-97.6,29.6-120.7,76.1c-9.2-2.9-18.7-4.4-28.4-4.4
			c-27.1,0-52.7,11.1-72,31.3c-8.2,8.5-14.8,18.2-19.7,28.6H10c-5.5,0-10,4.5-10,10s4.5,10,10,10h43.5c-2,8.2-3,16.8-3,25.5
			c0,58.5,45.7,106.2,101.8,106.2h149.1c45.2,0,85.3-23,110.1-58.3h26.1c5.5,0,10-4.5,10-10s-4.5-10-10-10h-14.3
			c9.2-19.1,14.4-40.6,14.4-63.3s-5.2-44.2-14.4-63.3h54.9c5.5,0,10-4.5,10-10S483.5,160.75,478,160.75z M400.5,307.35H254.7
			c-5.5,0-10,4.5-10,10s4.5,10,10,10h131.2c-21.2,23.6-51.3,38.3-84.6,38.3H152.2c-45.1,0-81.8-38.7-81.8-86.2
			c0-8.9,1.3-17.4,3.7-25.5h118.6c5.5,0,10-4.5,10-10s-4.5-10-10-10H83c14.5-24,40.1-39.9,69.2-39.9c10.3,0,20.2,2.1,29.6,6.2
			c2.5,1.1,5.3,1.1,7.8,0.1s4.5-3,5.5-5.5c18.2-44.1,59.9-72.6,106.2-72.6c33.3,0,63.4,14.7,84.6,38.3h-90.7c-5.5,0-10,4.5-10,10
			s4.5,10,10,10h105.3c10.8,18.7,17,40.3,17,63.5l0,0C417.5,267.25,411.3,288.85,400.5,307.35z"/>
	</g>
</g>
<g>
</g>
<g>
</g>
<g>
</g>
<g>
</g>
<g>
</g>
<g>
</g>
<g>
</g>
<g>
</g>
<g>
</g>
<g>
</g>
<g>
</g>
<g>
</g>
<g>
</g>
<g>
</g>
<g>
</g>
</svg>
