<?xml version="1.0" encoding="iso-8859-1"?>
<!-- Generator: Adobe Illustrator 19.0.0, SVG Export Plug-In . SVG Version: 6.00 Build 0)  -->
<svg version="1.1" id="Layer_1" xmlns="http://www.w3.org/2000/svg" xmlns:xlink="http://www.w3.org/1999/xlink" x="0px" y="0px"
	 viewBox="0 0 488 488" style="enable-background:new 0 0 488 488;" xml:space="preserve">
<g transform="translate(0 -540.36)">
	<g>
		<g>
			<path d="M244,906.16c73,0,132.4-59.2,132.4-132.2c0-35.4-13.8-68.7-38.9-93.6c-25-24.8-58.2-38.5-93.5-38.5s-68.5,13.7-93.5,38.5
				c-25.1,24.9-38.9,58.1-38.9,93.6C111.6,846.86,171,906.16,244,906.16z M244,661.86c62,0,112.4,50.2,112.4,112.1
				S306,886.16,244,886.16s-112.4-50.2-112.4-112.1S182,661.86,244,661.86z"/>
			<path d="M244,610.76c5.5,0,10-4.5,10-10v-50.4c0-5.5-4.5-10-10-10s-10,4.5-10,10v50.4C234,606.26,238.5,610.76,244,610.76z"/>
			<path d="M376.3,661.86c2.6,0,5.1-0.9,7-2.9l41.3-41.2c3.9-3.9,3.9-10.2,0-14.1c-3.9-3.9-10.2-3.9-14.1,0l-41.3,41.2
				c-3.9,3.9-3.9,10.2,0,14.1C371.2,660.86,373.7,661.86,376.3,661.86z"/>
			<path d="M104.6,658.96c2,1.9,4.5,2.9,7.1,2.9c2.6,0,5.1-0.9,7-2.9c3.9-3.9,3.9-10.2,0-14.1l-41.3-41.2c-3.9-3.9-10.2-3.9-14.1,0
				c-3.9,3.9-3.9,10.2,0,14.1L104.6,658.96z"/>
			<path d="M478,773.96h-50.5c-5.5,0-10,4.5-10,10s4.5,10,10,10H478c5.5,0,10-4.5,10-10S483.5,773.96,478,773.96z"/>
			<path d="M60.5,773.96H10c-5.5,0-10,4.5-10,10s4.5,10,10,10h50.5c5.5,0,10-4.5,10-10S66,773.96,60.5,773.96z"/>
			<path d="M400.5,928.86c-9.3,7.7-26.1,18.4-34.2,18.4c-4.2,0-9.2-4-14.5-8.3c-7.2-5.8-15.3-12.3-26-12.3
				c-11.2,0-19.5,6.7-26.9,12.5c-5.2,4.1-10.2,8.1-14.4,8.1c-4,0-8.8-4-13.9-8.1c-7.2-5.9-15.4-12.6-26.6-12.6s-19.4,6.7-26.6,12.6
				c-5,4.2-9.8,8.1-13.9,8.1c-4.1,0-9.1-3.9-14.4-8.1c-7.4-5.9-15.8-12.5-26.9-12.5c-10.7,0-18.8,6.5-26,12.3
				c-5.3,4.3-10.3,8.3-14.5,8.3c-8,0-24.8-10.8-34.2-18.4c-4.3-3.5-10.6-2.9-14.1,1.4s-2.9,10.6,1.4,14.1c4.7,3.9,29,22.9,46.9,22.9
				c11.3,0,19.7-6.7,27.1-12.7c4.9-3.9,9.9-7.9,13.5-7.9c4.1,0,9.1,3.9,14.4,8.1c7.4,5.9,15.8,12.5,26.9,12.5
				c11.2,0,19.4-6.7,26.6-12.6c5-4.2,9.9-8.1,13.9-8.1s8.8,4,13.9,8.1c7.2,5.9,15.4,12.6,26.6,12.6c11.2,0,19.5-6.7,26.9-12.5
				c5.2-4.1,10.2-8.1,14.4-8.1c3.7,0,8.7,4,13.5,7.9c7.4,5.9,15.8,12.7,27.1,12.7c17.9,0,42.1-19,46.7-22.9
				c4.3-3.5,4.9-9.8,1.4-14.1C411.1,926.06,404.8,925.36,400.5,928.86z"/>
			<path d="M400.5,989.96c-9.3,7.7-26.1,18.4-34.2,18.4c-4.2,0-9.2-4-14.5-8.3c-7.2-5.8-15.3-12.3-26-12.3
				c-11.2,0-19.5,6.7-26.9,12.5c-5.2,4.1-10.2,8.1-14.4,8.1c-4,0-8.8-4-13.9-8.1c-7.2-5.9-15.4-12.6-26.6-12.6s-19.4,6.7-26.6,12.6
				c-5,4.2-9.8,8.1-13.9,8.1c-4.1,0-9.1-3.9-14.4-8.1c-7.4-5.9-15.8-12.5-26.9-12.5c-10.7,0-18.8,6.5-26,12.3
				c-5.3,4.3-10.3,8.3-14.5,8.3c-8,0-24.8-10.8-34.2-18.4c-4.3-3.5-10.6-2.9-14.1,1.4s-2.9,10.6,1.4,14.1c4.7,3.9,29,22.9,46.9,22.9
				c11.3,0,19.7-6.7,27.1-12.7c4.9-3.9,9.9-7.9,13.5-7.9c4.1,0,9.1,3.9,14.4,8.1c7.4,5.9,15.8,12.5,26.9,12.5
				c11.2,0,19.4-6.7,26.6-12.6c5-4.2,9.9-8.1,13.9-8.1s8.8,4,13.9,8.1c7.2,5.9,15.4,12.6,26.6,12.6c11.2,0,19.5-6.7,26.9-12.5
				c5.2-4.1,10.2-8.1,14.4-8.1c3.7,0,8.7,4,13.5,7.9c7.4,5.9,15.8,12.7,27.1,12.7c17.9,0,42.1-19,46.7-22.9
				c4.3-3.5,4.9-9.8,1.4-14.1C411.1,987.16,404.8,986.46,400.5,989.96z"/>
		</g>
	</g>
</g>
<g>
</g>
<g>
</g>
<g>
</g>
<g>
</g>
<g>
</g>
<g>
</g>
<g>
</g>
<g>
</g>
<g>
</g>
<g>
</g>
<g>
</g>
<g>
</g>
<g>
</g>
<g>
</g>
<g>
</g>
</svg>
