<?xml version="1.0" encoding="iso-8859-1"?>
<!-- Generator: Adobe Illustrator 19.0.0, SVG Export Plug-In . SVG Version: 6.00 Build 0)  -->
<svg version="1.1" id="Layer_1" xmlns="http://www.w3.org/2000/svg" xmlns:xlink="http://www.w3.org/1999/xlink" x="0px" y="0px"
	 viewBox="0 0 471.6 471.6" style="enable-background:new 0 0 471.6 471.6;" xml:space="preserve">
<g transform="translate(0 -540.36)">
	<g>
		<g>
			<path d="M45,771.96c-24.8,0-45,20.2-45,45s20.2,45,45,45s45-20.2,45-45S69.8,771.96,45,771.96z M45,841.96c-13.8,0-25-11.2-25-25
				s11.2-25,25-25s25,11.2,25,25S58.8,841.96,45,841.96z"/>
			<path d="M172.1,866.46c-24.8,0-45,20.2-45,45s20.2,45,45,45c24.8,0,45-20.2,45-45S196.9,866.46,172.1,866.46z M172.1,936.46
				c-13.8,0-25-11.2-25-25s11.2-25,25-25c13.7,0,25,11.2,25,25S185.9,936.46,172.1,936.46z"/>
			<path d="M299.5,771.96c-24.8,0-45,20.2-45,45s20.2,45,45,45c24.9,0,45-20.2,45-45S324.3,771.96,299.5,771.96z M299.5,841.96
				c-13.8,0-25-11.2-25-25s11.2-25,25-25s25,11.2,25,25S313.3,841.96,299.5,841.96z"/>
			<path d="M426.6,866.46c-24.8,0-45,20.2-45,45s20.2,45,45,45s45-20.2,45-45S451.4,866.46,426.6,866.46z M426.6,936.46
				c-13.8,0-25-11.2-25-25s11.2-25,25-25s25,11.2,25,25S440.4,936.46,426.6,936.46z"/>
			<path d="M172.1,826.96c5.5,0,10-4.5,10-10v-117.5c0-5.5-4.5-10-10-10s-10,4.5-10,10v117.5
				C162.1,822.46,166.6,826.96,172.1,826.96z"/>
			<path d="M299.5,732.46c5.6,0,10-4.5,10-10v-116.6c0-5.5-4.5-10-10-10s-10,4.5-10,10v116.6C289.5,727.96,294,732.46,299.5,732.46z
				"/>
			<path d="M45,732.46c5.5,0,10-4.5,10-10v-116.6c0-5.5-4.5-10-10-10s-10,4.5-10,10v116.6C35,727.96,39.5,732.46,45,732.46z"/>
			<path d="M426.6,826.96c5.5,0,10-4.5,10-10v-117.5c0-5.5-4.5-10-10-10s-10,4.5-10,10v117.5
				C416.6,822.46,421.1,826.96,426.6,826.96z"/>
		</g>
	</g>
</g>
<g>
</g>
<g>
</g>
<g>
</g>
<g>
</g>
<g>
</g>
<g>
</g>
<g>
</g>
<g>
</g>
<g>
</g>
<g>
</g>
<g>
</g>
<g>
</g>
<g>
</g>
<g>
</g>
<g>
</g>
</svg>
