<?xml version="1.0" encoding="iso-8859-1"?>
<!-- Generator: Adobe Illustrator 19.0.0, SVG Export Plug-In . SVG Version: 6.00 Build 0)  -->
<svg version="1.1" id="Layer_1" xmlns="http://www.w3.org/2000/svg" xmlns:xlink="http://www.w3.org/1999/xlink" x="0px" y="0px"
	 viewBox="0 0 479.863 479.863" style="enable-background:new 0 0 479.863 479.863;" xml:space="preserve">
<g transform="translate(0 -540.36)">
	<g>
		<g>
			<path d="M409.931,928.223h-340c-5.5,0-10,4.5-10,10s4.5,10,10,10h340c5.5,0,10-4.5,10-10S415.431,928.223,409.931,928.223z"/>
			<path d="M409.931,874.923h-170c-5.5,0-10,4.5-10,10s4.5,10,10,10h170c5.5,0,10-4.5,10-10S415.431,874.923,409.931,874.923z"/>
			<path d="M239.131,979.523h-169.2c-5.5,0-10,4.5-10,10s4.5,10,10,10h169.2c5.5,0,10-4.4,10-10
				C249.131,984.023,244.631,979.523,239.131,979.523z"/>
			<path d="M363.531,961.823c-3.9-3.9-10.2-4-14.1-0.1l-14.1,13.9l-14.1-13.9c-3.9-3.9-10.3-3.8-14.1,0.1
				c-3.9,3.9-3.8,10.3,0.1,14.1l13.9,13.6l-13.9,13.6c-3.9,3.9-4,10.2-0.1,14.1c2,2,4.5,3,7.1,3c2.5,0,5.1-1,7-2.9l14.1-13.9
				l14.1,13.9c1.9,1.9,4.5,2.9,7,2.9c2.6,0,5.2-1,7.1-3c3.9-3.9,3.8-10.3-0.1-14.1l-13.9-13.6l13.9-13.6
				C367.331,972.023,367.431,965.723,363.531,961.823z"/>
			<path d="M121.931,913.123c2,2,4.5,2.9,7.1,2.9c2.6,0,5.1-1,7.1-2.9l14.1-14.1l14.1,14.1c2,2,4.5,2.9,7.1,2.9c2.6,0,5.1-1,7.1-2.9
				c3.9-3.9,3.9-10.2,0-14.1l-14.3-14.1h0l14.1-14.1c3.9-3.9,3.9-10.2,0-14.1c-3.9-3.9-10.2-3.9-14.1,0l-14.1,14.1l-14.1-14.1
				c-3.9-3.9-10.2-3.9-14.1,0s-3.9,10.2,0,14.1l14.1,14.1l-14.1,14.1C118.031,902.923,118.031,909.223,121.931,913.123z"/>
			<path d="M180.631,806.823c25.5,16.6,55.1,25.4,85.6,25.4c84.8,0,153.7-66.7,153.6-148.7c0-32.5-10.6-63.5-30.8-89.5
				c-20-25.8-47.5-44.2-79.4-53.3c-3.6-1-7.5,0.1-10.1,2.9c-2.5,2.9-3.3,6.9-1.9,10.4c6.5,16.8,9.7,32.6,9.7,48.1
				c0,71-60,128.7-133.7,128.7c-11,0-22.8-1.6-38.5-5.2c-3.7-0.9-7.5,0.4-9.9,3.3c-2.4,2.8-3,6.8-1.5,10.3
				C135.431,766.823,155.131,790.223,180.631,806.823z M173.631,750.823c84.8,0,153.7-66.7,153.7-148.7c0-11.6-1.5-23.3-4.6-35.3
				c46.3,20.8,77.2,66.5,77.2,116.8c0,71-60,128.7-133.7,128.7c-47.6,0-90.8-24.3-114.9-63.3
				C159.431,750.223,166.631,750.723,173.631,750.823z"/>
			<polygon points="266.231,832.223 266.231,832.223 266.231,832.223 			"/>
		</g>
	</g>
</g>
<g>
</g>
<g>
</g>
<g>
</g>
<g>
</g>
<g>
</g>
<g>
</g>
<g>
</g>
<g>
</g>
<g>
</g>
<g>
</g>
<g>
</g>
<g>
</g>
<g>
</g>
<g>
</g>
<g>
</g>
</svg>
