<?xml version="1.0" encoding="iso-8859-1"?>
<!-- Generator: Adobe Illustrator 19.0.0, SVG Export Plug-In . SVG Version: 6.00 Build 0)  -->
<svg version="1.1" id="Layer_1" xmlns="http://www.w3.org/2000/svg" xmlns:xlink="http://www.w3.org/1999/xlink" x="0px" y="0px"
	 viewBox="0 0 488 488" style="enable-background:new 0 0 488 488;" xml:space="preserve">
<g transform="translate(0 -540.36)">
	<g>
		<g>
			<polygon points="314.9,966.797 314.9,966.797 314.9,966.797 			"/>
			<path d="M350.9,927.997l-36,17.7l-36-17.7c-2.8-1.4-6-1.4-8.8,0l-36,17.7l-36.8-17.7c-2.7-1.4-5.9-1.3-8.7,0l-36,17.7l-36-17.7
				c-2.7-1.3-5.9-1.3-8.7,0l-36.8,17.7l-36-17.7c-5-2.4-11-0.4-13.4,4.6c-2.4,5-0.4,11,4.6,13.4l40.4,19.8c2.7,1.3,5.9,1.3,8.7,0
				l36.8-17.7l36,17.7c2.8,1.4,6,1.4,8.8,0l36-17.7l36.8,17.7c2.7,1.4,5.9,1.3,8.7,0l36-17.7l36,17.7c1.4,0.7,2.9,1,4.4,1
				s3-0.4,4.4-1l40.4-19.8c5-2.4,7-8.4,4.6-13.4C361.8,927.597,355.9,925.597,350.9,927.997z"/>
			<path d="M350.8,978.297l-35.9,18.3l-35.9-18.3c-2.9-1.5-6.2-1.5-9.1,0l-35.9,18.3l-36.6-18.3c-2.8-1.5-6.2-1.4-9,0l-35.9,18.3
				l-35.9-18.3c-2.8-1.4-6.2-1.4-9,0l-36.6,18.3l-35.9-18.3c-4.9-2.5-10.9-0.5-13.4,4.4s-0.5,10.9,4.4,13.4l40.4,20.6
				c2.8,1.4,6.2,1.4,9,0l36.6-18.3l35.9,18.3c2.9,1.5,6.2,1.5,9.1,0l35.9-18.3l36.6,18.3c2.8,1.5,6.2,1.4,9,0l35.9-18.3l35.9,18.3
				c1.4,0.7,2.9,1.1,4.5,1.1c1.5,0,3.1-0.3,4.5-1.1l40.4-20.6c4.9-2.5,6.9-8.5,4.4-13.4S355.7,975.797,350.8,978.297z"/>
			<path d="M461.9,897.597l-12.6-6.3l12.6-6.3c4.9-2.5,6.9-8.5,4.5-13.4c-2.5-4.9-8.5-6.9-13.4-4.5l-16,8v-19.3c0-5.5-4.5-10-10-10
				s-10,4.5-10,10v19.3l-16-8c-4.9-2.5-10.9-0.5-13.4,4.5c-2.5,4.9-0.5,10.9,4.5,13.4l12.6,6.3l-12.6,6.3c-4.9,2.5-6.9,8.5-4.5,13.4
				c1.8,3.5,5.3,5.5,9,5.5c1.5,0,3-0.3,4.5-1.1l16-8v19.3c0,5.5,4.5,10,10,10s10-4.5,10-10v-19.3l16,8c1.4,0.7,3,1.1,4.5,1.1
				c3.7,0,7.2-2,9-5.5C468.8,905.997,466.8,899.997,461.9,897.597z"/>
			<path d="M6,590.097l12.6,6.3l-12.6,6.3c-4.9,2.5-6.9,8.5-4.5,13.4c1.8,3.5,5.3,5.5,9,5.5c1.5,0,3-0.3,4.5-1.1l16-8v19.3
				c0,5.5,4.5,10,10,10s10-4.5,10-10v-19.3l16,8c1.4,0.7,3,1.1,4.5,1.1c3.7,0,7.2-2,9-5.5c2.3-4.9,0.3-10.9-4.7-13.4l-12.6-6.3
				l12.6-6.3c4.9-2.5,6.9-8.5,4.5-13.4c-2.5-4.9-8.5-6.9-13.4-4.5l-16,8v-19.3c0-5.5-4.5-10-10-10s-10,4.5-10,10v19.3l-16-8
				c-4.9-2.5-10.9-0.5-13.4,4.5C-1,581.597,1,587.597,6,590.097z"/>
			<polygon points="396.4,641.997 396.4,641.997 396.4,641.997 			"/>
			<path d="M122,895.897h131.9c43.5,0,80.1-30.5,89.3-71.3l53.2,0.4c50.5,0,91.6-41.1,91.6-91.5s-41.1-91.5-91.6-91.5
				c-8,0-16.6,1.3-24.7,3.7c-21.5-39.6-62.6-64.7-107.1-64.7c-27.1,0-52.3,7.5-72.9,21.8c-19.2,13.3-33.2,31.6-40.7,53.3
				c-9.3-2.3-19-3.4-29-3.4c-67.3,0-122,54.4-122,121.2C0,841.197,54.8,895.897,122,895.897z M264.5,600.997c39.7,0,76.2,24,93,61.2
				c2.2,4.9,8,7.2,13,5.1c8.1-3.4,17.6-5.3,25.9-5.3c39.5,0,71.6,32.1,71.6,71.5c0,39.5-32.1,71.6-71.5,71.6v0l-51.1-0.4
				c0-0.1,0-0.2,0-0.3c0-24.4-9.5-47.2-26.9-64.4c-17.3-17-40.2-26.4-64.7-26.4c-8.6,0-16.7,1-24.5,3.1
				c-13-24.7-34.2-43.7-59.4-54.4C183,624.797,219.3,600.997,264.5,600.997z M122,672.697c40.6,0,77.1,23.7,93,60.3
				c2.1,4.9,7.8,7.3,12.8,5.4c8.2-3.1,16.7-4.7,26.1-4.7c39.5,0,71.6,31.7,71.6,70.8c0,39.3-32.1,71.4-71.6,71.4H122
				c-56.3,0-102-45.8-102-102C20,718.097,65.8,672.697,122,672.697z"/>
		</g>
	</g>
</g>
<g>
</g>
<g>
</g>
<g>
</g>
<g>
</g>
<g>
</g>
<g>
</g>
<g>
</g>
<g>
</g>
<g>
</g>
<g>
</g>
<g>
</g>
<g>
</g>
<g>
</g>
<g>
</g>
<g>
</g>
</svg>
