<?xml version="1.0" encoding="iso-8859-1"?>
<!-- Generator: Adobe Illustrator 19.0.0, SVG Export Plug-In . SVG Version: 6.00 Build 0)  -->
<svg version="1.1" id="Layer_1" xmlns="http://www.w3.org/2000/svg" xmlns:xlink="http://www.w3.org/1999/xlink" x="0px" y="0px"
	 viewBox="0 0 488.105 488.105" style="enable-background:new 0 0 488.105 488.105;" xml:space="preserve">
<g transform="translate(0 -540.36)">
	<g>
		<g>
			<path d="M485.426,860.965c-2.6-2.8-6.6-3.9-10.3-2.8c-19.1,5.9-39.9,9.1-65.6,10.1c-128.3-0.1-232.6-102.9-232.6-229.3
				c0-28.5,5.8-57.8,16.8-84.8c1.5-3.6,0.8-7.7-1.8-10.5c-2.6-2.8-6.5-4-10.2-2.9c-52.8,15.2-98.1,46.2-131.2,89.7
				c-33.1,43.4-50.5,94.8-50.5,148.7c0,66.7,26.3,129.3,74.1,176.4c47.7,47,111.2,72.9,178.7,72.9c50.6,0,99.5-14.8,141.5-42.9
				c42-28.1,74.2-67.5,93-114.1C488.826,867.865,488.026,863.765,485.426,860.965z M252.826,1008.465
				c-128.4,0-232.8-102.9-232.8-229.3c0-94,60-178.8,148.1-212.7c-7.4,23.7-11.2,48.4-11.2,72.5c0,66.7,26.3,129.3,74.1,176.4
				c47.7,47,111.2,72.9,178.7,72.9c0.1,0,0.3,0,0.4,0c18.7-0.7,35.1-2.6,50.2-5.7
				C421.026,959.665,341.626,1008.465,252.826,1008.465z"/>
			<path d="M353.626,780.065c1.9,1.9,4.4,2.9,7.1,2.9s5.2-1.1,7.1-2.9l70.1-70.1c3.8-3.8,3.8-10.2-0.2-14.1
				c-3.9-3.9-10.2-3.9-14.1,0l-53,53v-139.7c0-5.5-4.5-10-10-10s-10,4.5-10,10v139.7l-53-53c-3.9-3.9-10.2-3.9-14.1,0
				c-3.9,3.9-3.9,10.2,0,14.1L353.626,780.065z"/>
		</g>
	</g>
</g>
<g>
</g>
<g>
</g>
<g>
</g>
<g>
</g>
<g>
</g>
<g>
</g>
<g>
</g>
<g>
</g>
<g>
</g>
<g>
</g>
<g>
</g>
<g>
</g>
<g>
</g>
<g>
</g>
<g>
</g>
</svg>
