<?xml version="1.0" encoding="iso-8859-1"?>
<!-- Generator: Adobe Illustrator 19.0.0, SVG Export Plug-In . SVG Version: 6.00 Build 0)  -->
<svg version="1.1" id="Layer_1" xmlns="http://www.w3.org/2000/svg" xmlns:xlink="http://www.w3.org/1999/xlink" x="0px" y="0px"
	 viewBox="0 0 488 488" style="enable-background:new 0 0 488 488;" xml:space="preserve">
<g transform="translate(0 -540.36)">
	<g>
		<g>
			<path d="M416.8,612.06c-46-46.2-107.2-71.7-172.3-71.7C109.7,540.36,0,650.06,0,784.86c0,65.1,25.5,126.3,71.7,172.3
				c46.1,45.9,107.5,71.2,172.7,71.2c65.1,0,126.3-25.3,172.4-71.3c45.9-45.9,71.2-107.1,71.2-172.3S462.7,658.26,416.8,612.06z
				 M244.4,1008.36c-123.8,0-224.5-100.2-224.5-223.5c0-123.8,100.7-224.5,224.5-224.5c123.2,0,223.5,100.7,223.5,224.5
				C467.9,908.06,367.7,1008.36,244.4,1008.36z"/>
			<path d="M396.4,718.26c-11.1-11.2-25.8-17.4-41.3-17.4c-32.8,0-59.5,26.5-59.5,59s26.7,59,59.5,59c15.6,0,30.2-6.1,41.3-17.4
				c11.1-11.2,17.2-26,17.2-41.6S407.5,729.46,396.4,718.26z M355.1,798.86c-21.8,0-39.5-17.5-39.5-39s17.7-39,39.5-39
				c20.9,0,38.6,17.9,38.5,39C393.6,780.96,376,798.86,355.1,798.86z"/>
			<path d="M157.6,664.06c-18.4,0-34,15.5-34,34c0,19.3,15.2,35,34,35c19.3,0,35-15.7,35-35C192.6,679.36,176.9,664.06,157.6,664.06
				z M157.6,713.06c-7.6,0-14-6.9-14-15c0-7.4,6.5-14,14-14c8.1,0,15,6.4,15,14C172.6,706.46,166,713.06,157.6,713.06z"/>
			<path d="M225.9,848.16c-22.9,0-41.5,18.4-41.5,41s18.6,41,41.5,41c22.4,0,40.5-18.4,40.5-41S248.3,848.16,225.9,848.16z
				 M225.9,910.16c-11.9,0-21.5-9.4-21.5-21s9.7-21,21.5-21c11.1,0,20.5,9.6,20.5,21S237,910.16,225.9,910.16z"/>
		</g>
	</g>
</g>
<g>
</g>
<g>
</g>
<g>
</g>
<g>
</g>
<g>
</g>
<g>
</g>
<g>
</g>
<g>
</g>
<g>
</g>
<g>
</g>
<g>
</g>
<g>
</g>
<g>
</g>
<g>
</g>
<g>
</g>
</svg>
