<?xml version="1.0" encoding="iso-8859-1"?>
<!-- Generator: Adobe Illustrator 19.0.0, SVG Export Plug-In . SVG Version: 6.00 Build 0)  -->
<svg version="1.1" id="Layer_1" xmlns="http://www.w3.org/2000/svg" xmlns:xlink="http://www.w3.org/1999/xlink" x="0px" y="0px"
	 viewBox="0 0 480.02 480.02" style="enable-background:new 0 0 480.02 480.02;" xml:space="preserve">
<g transform="translate(0 -540.36)">
	<g>
		<g>
			<path d="M133.298,909.279l-21.2,21.2c-3.9,3.9-3.9,10.2,0,14.1c2,1.9,4.5,2.9,7.1,2.9c2.6,0,5.1-1,7-2.9l21.2-21.2
				c3.9-3.9,3.9-10.2,0-14.1C143.498,905.379,137.198,905.379,133.298,909.279z"/>
			<path d="M217.398,909.279l-21.2,21.2c-3.9,3.9-3.9,10.2,0,14.1c2,1.9,4.5,2.9,7.1,2.9c2.6,0,5.2-1,7-2.9l21.2-21.2
				c3.9-3.9,3.9-10.2,0-14.1C227.598,905.379,221.298,905.379,217.398,909.279z"/>
			<path d="M300.798,909.38l-20.4,21.2c-3.9,3.9-3.8,10.3,0.2,14.1c1.9,1.9,4.4,2.8,6.9,2.8c2.6,0,5.2-1,7.2-3l20.4-21.2
				c3.9-3.9,3.8-10.3-0.2-14.1C310.998,905.28,304.598,905.38,300.798,909.38z"/>
			<path d="M49.198,909.38l-20.4,21.2c-3.9,3.9-3.8,10.3,0.2,14.1c1.9,1.9,4.4,2.8,6.9,2.8c2.6,0,5.2-1,7.2-3l20.4-21.2
				c3.9-3.9,3.8-10.3-0.2-14.1C59.398,905.28,52.998,905.38,49.198,909.38z"/>
			<path d="M174.998,982.279l-20.4,21.2c-3.9,3.9-3.8,10.3,0.2,14.1c1.9,1.9,4.4,2.8,6.9,2.8v0c2.6,0,5.2-1,7.2-3.1l20.4-21.1
				c3.9-3.9,3.8-10.3-0.2-14.1C185.198,978.18,178.798,978.279,174.998,982.279z"/>
			<path d="M259.098,982.18l-21.2,21.2c-3.9,3.9-3.9,10.2,0,14.1c2,1.9,4.5,2.9,7.1,2.9c2.6,0,5.1-1,7-2.9l21.2-21.2
				c3.9-3.9,3.9-10.2,0-14.1C269.298,978.279,262.998,978.279,259.098,982.18z"/>
			<path d="M91.698,982.18l-21.2,21.2c-3.9,3.9-3.9,10.2,0,14.1c2,1.9,4.5,2.9,7.1,2.9c2.5,0,5.1-1,7-2.9l21.2-21.2
				c3.9-3.9,3.9-10.2,0-14.1C101.898,978.279,95.598,978.279,91.698,982.18z"/>
			<path d="M462.998,669.079L462.998,669.079c-2.3-3.2-6.2-4.7-10-3.9c-3,0.6-6.3,0.6-9.8,0.6c-40.9,0-74.1-33.1-74.1-73.9
				c0-12.9,3.3-25.2,9.7-36.6c1.9-3.3,1.7-7.4-0.5-10.6c-2.2-3.1-5.9-4.8-9.7-4.2c-22.5,3.4-43,14.6-57.8,31.6
				c-12.2,14.1-19.9,31.3-22.2,49.6c-13.5-5-28.2-7.7-43.4-7.7c-24.3,0-47.8,7-68.1,20.1c-17.7,11.5-32.2,27.2-42.3,45.8
				c-9.5-2.6-18.8-3.2-25.6-3.2c-25.1,0-48.7,9.6-66.5,27.1c-17.8,17.5-27.6,41-27.6,66c0,51.7,42.2,93.8,94.1,93.8h136
				c69.2,0,125.6-56.2,125.6-125.2c0-3.8-0.2-7.6-0.5-11.3c3.8,0.5,7.7,0.9,11.7,0.9c34.3,0,64.9-18,81.8-48.2
				C465.498,676.479,465.298,672.279,462.998,669.079z M244.998,843.68L244.998,843.68l-136,0c-40.9,0-74.1-33.1-74.1-73.8
				c0-40.3,33.2-73.1,74.1-73.1c10,0,19.5,1.7,26.8,4.7c5,2.1,10.7-0.2,12.9-5.1c17.2-37.9,55-62.3,96.2-62.3
				c58.2,0,105.6,46.8,105.6,104.4C350.598,796.48,303.198,843.68,244.998,843.68z M381.798,708.08L381.798,708.08
				c-5.2,0-10.5-0.8-15.5-1.8c-8.7-32.2-30.1-59.2-58.6-75.6c1.1-29.1,18.9-54.1,45-65.2c-2.5,8.5-3.8,17.3-3.8,26.4
				c0,49,37.8,89.3,85.9,93.5C421.198,699.88,402.298,708.08,381.798,708.08z"/>
		</g>
	</g>
</g>
<g>
</g>
<g>
</g>
<g>
</g>
<g>
</g>
<g>
</g>
<g>
</g>
<g>
</g>
<g>
</g>
<g>
</g>
<g>
</g>
<g>
</g>
<g>
</g>
<g>
</g>
<g>
</g>
<g>
</g>
</svg>
