<?xml version="1.0" encoding="iso-8859-1"?>
<!-- Generator: Adobe Illustrator 19.0.0, SVG Export Plug-In . SVG Version: 6.00 Build 0)  -->
<svg version="1.1" id="Layer_1" xmlns="http://www.w3.org/2000/svg" xmlns:xlink="http://www.w3.org/1999/xlink" x="0px" y="0px"
	 viewBox="0 0 483.988 483.988" style="enable-background:new 0 0 483.988 483.988;" xml:space="preserve">
<g transform="translate(0 -540.36)">
	<g>
		<g>
			<path d="M394.616,735.748c-2.6-2.9-6.5-4.1-10.2-3.1c-14.1,3.8-27.2,5.7-40,5.7c-77.1,0-139.7-60.2-139.7-134.3
				c0-18.1,3.4-34.7,10-49.6c1.5-3.5,0.9-7.7-1.6-10.6c-2.6-2.9-6.6-4.2-10.3-3.1c-33.6,9.5-62.5,28.7-83.6,55.6
				c-21.1,26.9-32.3,58.9-32.3,92.3c0,85.1,71.9,154.3,160.4,154.3l0,0c31.9,0,62.9-9.2,89.6-26.5c26.6-17.3,47.1-41.6,59.3-70.2
				C397.816,742.748,397.116,738.648,394.616,735.748z M247.316,822.948c-77.4,0-140.4-60.2-140.4-134.3c0-52.5,33-100.2,82.3-121.9
				v0c-3.1,11.8-4.6,24.2-4.7,37.3c0,85.1,71.7,154.3,159.7,154.3c7.9,0,15.9-0.6,24.1-1.9
				C343.016,797.448,297.516,822.948,247.316,822.948z"/>
			<path d="M149.016,863.048c-3.3,0-6.3,1.6-8.2,4.2c-6.9,9.6-22.8,33.4-22.8,45.8c0,16.8,13.8,30.4,30.9,30.4
				c17,0,30.9-13.6,31.1-30.4c0-12.4-15.9-36.2-22.8-45.8C155.316,864.648,152.216,863.048,149.016,863.048z M148.916,923.448
				c-6.1,0-10.9-4.5-10.9-10.3c0.2-3.1,4.7-12.1,10.9-22v0c6.1,9.9,10.7,18.9,10.9,21.9
				C159.816,918.948,155.016,923.448,148.916,923.448z"/>
			<path d="M335.016,863.048c-3.3,0-6.3,1.6-8.2,4.2c-6.9,9.6-22.8,33.4-22.8,45.8c0,16.8,13.8,30.4,30.9,30.4
				c17.1,0,31-13.6,31.1-30.4c0-12.4-15.9-36.2-22.8-45.8C341.316,864.648,338.216,863.048,335.016,863.048z M334.916,923.448
				c-6.1,0-10.9-4.5-10.9-10.3c0.2-3.1,4.7-12.1,10.9-22v0c6.2,9.9,10.8,18.9,10.9,21.9
				C345.816,918.948,341.016,923.448,334.916,923.448z"/>
			<path d="M242.016,943.948c-3.2,0-6.2,1.5-8.1,4.1c-6.9,9.4-22.9,32.7-22.9,45.9c0,16.8,13.8,30.4,30.9,30.4
				c17.1,0,30.9-13.6,31.1-30.4c0-13.1-16-36.5-22.9-45.9C248.216,945.448,245.216,943.948,242.016,943.948z M241.916,1004.348
				c-6.1,0-10.9-4.6-10.9-10.4c0-3.2,4.6-12.2,10.9-22.2h0c6.3,9.9,10.8,19,10.9,22.2
				C252.816,999.748,248.016,1004.348,241.916,1004.348z"/>
		</g>
	</g>
</g>
<g>
</g>
<g>
</g>
<g>
</g>
<g>
</g>
<g>
</g>
<g>
</g>
<g>
</g>
<g>
</g>
<g>
</g>
<g>
</g>
<g>
</g>
<g>
</g>
<g>
</g>
<g>
</g>
<g>
</g>
</svg>
