<?xml version="1.0" encoding="iso-8859-1"?>
<!-- Generator: Adobe Illustrator 19.0.0, SVG Export Plug-In . SVG Version: 6.00 Build 0)  -->
<svg version="1.1" id="Layer_1" xmlns="http://www.w3.org/2000/svg" xmlns:xlink="http://www.w3.org/1999/xlink" x="0px" y="0px"
	 viewBox="0 0 488 488" style="enable-background:new 0 0 488 488;" xml:space="preserve">
<g transform="translate(0 -540.36)">
	<g>
		<g>
			<path d="M124.6,827.21c1.8,1.9,4.4,2.9,7,2.9c0.1,0,0.1,0,0.1,0l112.3-0.8l112.4,0.8c2.7,0,5.2-1,7-2.9c1.9-1.9,3-4.4,3-7.1
				c0-43.8-23.3-84.6-60.9-106.5c-38.1-21.7-85-21.7-122.3,0c-38,21.6-61.6,62.4-61.6,106.5C121.6,822.81,122.7,825.31,124.6,827.21
				z M193.1,730.91c31.3-18.2,70.5-18.2,102.4,0c28.5,16.6,47.2,46.3,50.4,79.1l-101.9-0.7l-102,0.7
				C145.2,777.11,164.2,747.41,193.1,730.91z"/>
			<path d="M244,645.31c5.5,0,10-4.5,10-10v-50.8c0-5.5-4.5-10-10-10s-10,4.5-10,10v50.8C234,640.81,238.5,645.31,244,645.31z"/>
			<path d="M376.3,696.91c2.6,0,5.1-1,7.1-3l41.3-41.6c3.8-3.9,3.8-10.2-0.1-14.1c-3.9-3.8-10.2-3.8-14.1,0.1l-41.3,41.6
				c-3.8,3.9-3.8,10.2,0.1,14.1C371.2,695.91,373.8,696.91,376.3,696.91z"/>
			<path d="M104.6,693.91c2,2,4.5,3,7.1,3c2.6,0,5.1-1,7-2.9c4-3.8,4-10.2,0.1-14.1l-41.3-41.6c-3.8-4-10.2-4-14.1-0.1
				c-4,3.8-4,10.2-0.1,14.1L104.6,693.91z"/>
			<path d="M478,810.11h-50.5c-5.5,0-10,4.5-10,10s4.5,10,10,10H478c5.5,0,10-4.5,10-10S483.5,810.11,478,810.11z"/>
			<path d="M70.5,820.11c0-5.5-4.5-10-10-10H10c-5.5,0-10,4.5-10,10s4.5,10,10,10h50.5C66,830.11,70.5,825.61,70.5,820.11z"/>
			<path d="M165.7,874.71l-20.6,20.8c-3.8,3.9-3.8,10.2,0.1,14.1c1.9,1.9,4.5,2.9,7,2.9c2.6,0,5.2-1,7.1-3l20.6-20.8
				c3.8-3.9,3.8-10.2-0.1-14.1C175.9,870.81,169.6,870.81,165.7,874.71z"/>
			<path d="M246.8,874.81l-19.9,20.8c-3.8,4-3.7,10.3,0.3,14.1c1.9,1.9,4.4,2.8,6.9,2.8c2.6,0,5.2-1,7.2-3.1l19.9-20.8
				c3.8-4,3.7-10.3-0.3-14.1S250.6,870.81,246.8,874.81z"/>
			<path d="M328.6,874.71l-20.6,20.8c-3.8,3.9-3.8,10.2,0.1,14.1c1.9,1.9,4.5,2.9,7,2.9c2.6,0,5.2-1,7.1-3l20.6-20.8
				c3.8-3.9,3.8-10.2-0.1-14.1C338.8,870.81,332.5,870.81,328.6,874.71z"/>
			<path d="M410.4,874.71l-20.6,20.8c-3.8,3.9-3.8,10.2,0.1,14.1c1.9,1.9,4.5,2.9,7,2.9v0c2.6,0,5.2-1,7.1-2.9l20.6-20.9
				c3.8-3.9,3.8-10.2-0.1-14.1C420.6,870.81,414.3,870.81,410.4,874.71z"/>
			<path d="M83.9,874.71l-20.6,20.8c-3.8,3.9-3.8,10.2,0.1,14.1c1.9,1.9,4.5,2.9,7,2.9c2.6,0,5.2-1,7.1-3l20.6-20.8
				c3.8-3.9,3.8-10.2-0.1-14.1C94.1,870.81,87.8,870.81,83.9,874.71z"/>
			<path d="M206.4,957.11l-20.6,20c-3.9,3.8-4,10.1-0.2,14.1c2,2,4.6,3,7.2,3h0c2.5,0,5-1,6.9-2.8l20.6-20c3.9-3.8,4-10.1,0.2-14.1
				C216.7,953.41,210.4,953.31,206.4,957.11z"/>
			<path d="M288.2,957.11l-20.6,20c-3.9,3.8-4,10.1-0.2,14.1c2,2,4.6,3,7.2,3c2.5,0,5-1,6.9-2.8l20.6-20c3.9-3.8,4-10.1,0.2-14.1
				C298.5,953.41,292.2,953.31,288.2,957.11z"/>
			<path d="M369.2,957.21l-19.9,20c-3.8,3.9-3.8,10.2,0.1,14.1c1.9,1.9,4.5,2.9,7,2.9c2.6,0,5.2-1,7.1-3l19.9-20
				c3.8-3.9,3.8-10.2-0.1-14.1C379.4,953.31,373.1,953.31,369.2,957.21z"/>
			<path d="M124.5,957.21l-19.9,20c-3.8,3.9-3.8,10.2,0.1,14.1c1.9,1.9,4.5,2.9,7,2.9c2.6,0,5.1-1,7.1-3l19.9-20
				c3.8-3.9,3.8-10.2-0.1-14.1C134.7,953.31,128.4,953.31,124.5,957.21z"/>
		</g>
	</g>
</g>
<g>
</g>
<g>
</g>
<g>
</g>
<g>
</g>
<g>
</g>
<g>
</g>
<g>
</g>
<g>
</g>
<g>
</g>
<g>
</g>
<g>
</g>
<g>
</g>
<g>
</g>
<g>
</g>
<g>
</g>
</svg>
