<?xml version="1.0" encoding="iso-8859-1"?>
<!-- Generator: Adobe Illustrator 19.0.0, SVG Export Plug-In . SVG Version: 6.00 Build 0)  -->
<svg version="1.1" id="Layer_1" xmlns="http://www.w3.org/2000/svg" xmlns:xlink="http://www.w3.org/1999/xlink" x="0px" y="0px"
	 viewBox="0 0 488 488" style="enable-background:new 0 0 488 488;" xml:space="preserve">
<g transform="translate(0 -540.36)">
	<g>
		<g>
			<path d="M336,718.54c5.5,0,10-4.5,10-10v-30.6c0-5.5-4.5-10-10-10s-10,4.5-10,10v30.6C326,714.04,330.5,718.54,336,718.54z"/>
			<path d="M417.7,749.14c2.6,0,5.2-1.1,7.2-3.1l19.9-20.6c3.8-3.9,3.7-10.3-0.3-14.1c-3.9-3.8-10.3-3.7-14.1,0.3l-19.9,20.6
				c-3.8,3.9-3.7,10.3,0.3,14.1C412.7,748.24,415.2,749.14,417.7,749.14z"/>
			<path d="M424.8,895.04c-3.8-4-10.1-4.1-14.1-0.3s-4.1,10.1-0.3,14.1l19.9,20.6c2,2.1,4.6,3.1,7.2,3.1c2.5,0,5-0.9,6.9-2.8
				c4-3.8,4.1-10.1,0.3-14.1L424.8,895.04z"/>
			<path d="M478,800.14h-29.8c-5.5,0-10,4.5-10,10s4.5,10,10,10H478c5.5,0,10-4.4,10-10C488,804.64,483.5,800.14,478,800.14z"/>
			<path d="M247.1,746.04c2,2.1,4.6,3.1,7.2,3.1c2.5,0,5-1,6.9-2.8c4-3.8,4.1-10.1,0.3-14.1l-19.8-20.6c-3.8-4-10.1-4.1-14.1-0.3
				s-4.1,10.1-0.3,14.1L247.1,746.04z"/>
			<path d="M404.9,776.74L404.9,776.74c-10.3-16.6-26.1-28.7-44.6-34.2c-18.3-5.5-37.9-4.1-55.2,4c-14.6,6.8-26.8,18.1-35,32.2
				c-14.3-5.9-29.9-9.1-46.3-9.1c-6.7,0-13.3,0.6-19.8,1.7c0.7-51.7-16.9-101.5-50.2-141.3c-35.9-42.9-86.2-69.7-141.7-75.6
				c-5.5-0.6-10.4,3.4-11,8.9s3.4,10.4,8.9,11c102.7,10.8,178,99.1,173.8,202.3c-7.9,2.8-15.4,6.4-22.6,10.8
				c3.7-40.9-6.4-81.8-29.2-115.3c-28.6-41.8-72.7-69-120.8-74.6c-5.5-0.6-10.5,3.3-11.1,8.8c-0.6,5.5,3.3,10.5,8.8,11.1
				c42.4,5,81.3,29,106.6,66c23.8,35,32,79.4,22.7,122c-8.5,8.5-15.9,18.2-21.8,29.1c-3.3-1-6.7-1.8-10.1-2.4
				c18.9-35.4,21.4-77.3,6.3-114.8c-17.3-42.1-55.6-72.8-100-80.2c-5.4-0.9-10.6,2.8-11.5,8.2c-0.9,5.4,2.8,10.6,8.2,11.5
				c37.6,6.3,70.1,32.4,84.8,68c14.1,35,10.2,74.4-10.3,106.3c-46.9,4-83.8,43.5-83.8,91.4c0,50.6,41.1,91.8,91.7,91.8h132.1
				c64.2,0,116.9-49.7,121.8-112.7c16.4-1.6,32-8.4,44.5-19.6c14.2-12.8,23.5-30.5,26-49.8C419.1,812.84,415.1,793.14,404.9,776.74z
				 M223.8,994.34L223.8,994.34l-132.1,0c-39.5,0-71.7-32.2-71.7-71.8s32.2-71.8,71.7-71.8c8.3,0,17.8,1.9,25.9,5.3
				c5,2.1,10.7-0.2,13-5.1c16.9-37.3,53.4-61.4,93.2-61.4c56.4,0,102.2,45.9,102.2,102.4S280.1,994.34,223.8,994.34z M396.3,829.34
				c0,0.1,0,0.1,0,0.2c-3.6,27.4-24.8,48.6-50.8,52c-3.4-39.6-25.6-73.8-57.7-93.7c13.9-23.1,40.8-34,66.7-26.1
				C383,770.04,400.9,799.14,396.3,829.34z"/>
		</g>
	</g>
</g>
<g>
</g>
<g>
</g>
<g>
</g>
<g>
</g>
<g>
</g>
<g>
</g>
<g>
</g>
<g>
</g>
<g>
</g>
<g>
</g>
<g>
</g>
<g>
</g>
<g>
</g>
<g>
</g>
<g>
</g>
</svg>
