<?xml version="1.0" encoding="iso-8859-1"?>
<!-- Generator: Adobe Illustrator 19.0.0, SVG Export Plug-In . SVG Version: 6.00 Build 0)  -->
<svg version="1.1" id="Layer_1" xmlns="http://www.w3.org/2000/svg" xmlns:xlink="http://www.w3.org/1999/xlink" x="0px" y="0px"
	 viewBox="0 0 480 480" style="enable-background:new 0 0 480 480;" xml:space="preserve">
<g transform="translate(0 -540.36)">
	<g>
		<g>
			<path d="M160.15,882.66l-23.7,23.6c-3.9,3.9-3.9,10.2,0,14.1c2,1.9,4.5,2.9,7.1,2.9c2.5,0,5.1-0.9,7-2.9l23.7-23.6
				c3.9-3.9,3.9-10.2,0-14.1S164.05,878.76,160.15,882.66z"/>
			<path d="M355.15,882.46l-24.6,23.6c-4,3.8-4.1,10.1-0.3,14.1c1.9,2.1,4.6,3.1,7.2,3.1c2.5,0,5-0.9,6.9-2.8l24.6-23.6
				c4-3.8,4.1-10.1,0.3-14.1S359.15,878.66,355.15,882.46z"/>
			<path d="M465.55,882.66c-3.9-3.9-10.2-3.9-14.1,0l-23.7,23.6c-3.9,3.9-3.9,10.2,0,14.1c2,1.9,4.5,2.9,7.1,2.9
				c2.6,0,5.1-0.9,7-2.9l23.7-23.6C469.45,892.86,469.45,886.56,465.55,882.66z"/>
			<path d="M63.85,882.46l-24.6,23.6c-4,3.8-4.1,10.1-0.3,14.1c1.9,2.1,4.6,3.1,7.2,3.1c2.5,0,5-0.9,6.9-2.8l24.6-23.6
				c4-3.8,4.1-10.1,0.3-14.1S67.85,878.66,63.85,882.46z"/>
			<path d="M330.35,967.06l-24.6,24.5c-3.9,3.9-3.9,10.2,0,14.1c2,1.9,4.5,2.9,7.1,2.9c2.6,0,5.1-1,7-2.9l24.6-24.5
				c3.9-3.9,3.9-10.2,0-14.1C340.55,963.16,334.25,963.16,330.35,967.06z"/>
			<path d="M427.75,967.06l-24.6,24.5c-3.9,3.9-3.9,10.2,0,14.1c2,1.9,4.5,2.9,7.1,2.9c2.6,0,5.2-1,7-2.9l24.6-24.5
				c3.9-3.9,3.9-10.2,0-14.1C437.95,963.16,431.65,963.16,427.75,967.06z"/>
			<path d="M136.45,967.06l-24.6,24.5c-3.9,3.9-3.9,10.2,0,14.1c2,1.9,4.5,2.9,7.1,2.9c2.6,0,5.1-1,7.1-2.9l24.5-24.5
				c3.9-3.9,3.9-10.2,0-14.1C146.65,963.16,140.35,963.16,136.45,967.06z"/>
			<path d="M274.75,927.86l-46.3,7.5l43.7-52c3.6-4.2,3-10.5-1.2-14.1s-10.5-3-14.1,1.2l-61,72.6c-2.6,3.2-3.1,7.8-1,11.4
				c2.1,3.6,6.2,5.6,10.3,4.9l46.6-7.5l-43.1,52.1c-3.5,4.3-3,10.6,1.3,14.1c1.9,1.5,4.2,2.3,6.4,2.3l0,0c2.9,0,5.8-1.2,7.7-3.6
				l60-72.7c2.7-3.2,3.1-7.7,1-11.3C282.95,929.16,278.85,927.16,274.75,927.86z"/>
			<path d="M39.05,967.06l-24.6,24.5c-3.9,3.9-3.9,10.2,0,14.1c2,1.9,4.5,2.9,7.1,2.9c2.6,0,5.1-1,7-2.9l24.6-24.5
				c3.9-3.9,3.9-10.2,0-14.1C49.25,963.16,42.95,963.16,39.05,967.06z"/>
			<path d="M444.75,683.76c0-79.1-64.6-143.4-143.9-143.4c-52.9,0-101.8,30.1-127,77.4c-10-3.1-20.6-4.8-30.5-4.8
				c-59.2,0-107.4,48-107.4,107.1s48.2,107.1,107.4,107.1h157.5v0C380.15,827.16,444.65,762.86,444.75,683.76z M143.35,807.16
				c-48.2,0-87.4-39.1-87.4-87.1s39.2-87.1,87.4-87.1v0c10.2,0,21.7,2.4,31.7,6.5c4.9,2.1,10.7-0.2,12.9-5.1
				c20.4-45,64.7-74,112.9-74c68.3,0,123.9,55.4,123.9,123.4s-55.6,123.4-123.9,123.4H143.35z"/>
		</g>
	</g>
</g>
<g>
</g>
<g>
</g>
<g>
</g>
<g>
</g>
<g>
</g>
<g>
</g>
<g>
</g>
<g>
</g>
<g>
</g>
<g>
</g>
<g>
</g>
<g>
</g>
<g>
</g>
<g>
</g>
<g>
</g>
</svg>
