<?xml version="1.0" encoding="iso-8859-1"?>
<!-- Generator: Adobe Illustrator 19.0.0, SVG Export Plug-In . SVG Version: 6.00 Build 0)  -->
<svg version="1.1" id="Layer_1" xmlns="http://www.w3.org/2000/svg" xmlns:xlink="http://www.w3.org/1999/xlink" x="0px" y="0px"
	 viewBox="0 0 480 480" style="enable-background:new 0 0 480 480;" xml:space="preserve">
<g transform="translate(0 -540.36)">
	<g>
		<g>
			<path d="M299.4,540.36c-52.2,0-100.1,29.5-124.6,75.9c-9.6-3.1-19.6-4.6-29.8-4.6c-27.9,0-54.3,10.9-74.2,30.9
				c-19.9,19.9-30.8,46.2-30.8,73.9c0,58.2,47.1,105.6,105,105.6h154.4v0c77.5,0,140.6-63.2,140.6-140.8
				C440,603.56,376.9,540.36,299.4,540.36z M299.4,802.06H145c-46.9,0-85-38.4-85-85.6c0-46.7,38.1-84.8,85-84.8v0
				c10.7,0,21.1,2.1,31,6.1c5,2.2,10.8-0.1,13-5.1c19.7-44,63-72.4,110.4-72.4c66.5,0,120.6,54.3,120.6,120.9
				C420,747.86,365.9,802.06,299.4,802.06z"/>
			<path d="M144.6,853.86h-0.1c-3.3,0-6.4,1.7-8.2,4.4c-5.2,7.8-22.3,34.2-22.3,47.9c0,16.5,14,30.4,30.6,30.4v0
				c17.3,0,31.4-13.7,31.4-30.4c0-13.8-17.8-40.2-23.2-48C150.9,855.46,147.9,853.86,144.6,853.86z M144.7,916.46
				c-5.6,0-10.6-5-10.6-10.4c0-3.3,4.5-13,10.7-23.7c6.4,10.7,11.1,20.4,11.3,23.7C156.1,911.66,150.9,916.46,144.7,916.46z"/>
			<path d="M334.6,853.86h-0.1c-3.3,0-6.4,1.7-8.2,4.4c-5.2,7.8-22.3,34.2-22.3,47.9c0,16.5,14,30.4,30.6,30.4v0
				c17.3,0,31.4-13.7,31.4-30.4c0-13.8-17.8-40.2-23.2-48C340.9,855.46,337.9,853.86,334.6,853.86z M334.7,916.46
				c-5.6,0-10.6-5-10.6-10.4c0-3.3,4.5-13,10.7-23.7c6.4,10.7,11.1,20.4,11.3,23.7C346.1,911.66,340.9,916.46,334.7,916.46z"/>
			<path d="M239.6,937.66h-0.1c-3.3,0-6.4,1.7-8.2,4.4c-6.7,9.9-22.3,34.4-22.3,47.1c0,17.2,13.7,31.2,30.6,31.2
				c17.3,0,31.4-14,31.4-31.1c0-12.8-16.2-37.3-23.2-47.3C245.9,939.26,242.9,937.66,239.6,937.66z M239.7,1000.26
				c-5.8,0-10.6-5.1-10.6-11.1c0.1-3.1,4.6-12.5,10.7-23c6.3,10.4,11,19.9,11.3,23C251.1,995.36,246.1,1000.26,239.7,1000.26z"/>
		</g>
	</g>
</g>
<g>
</g>
<g>
</g>
<g>
</g>
<g>
</g>
<g>
</g>
<g>
</g>
<g>
</g>
<g>
</g>
<g>
</g>
<g>
</g>
<g>
</g>
<g>
</g>
<g>
</g>
<g>
</g>
<g>
</g>
</svg>
