<?xml version="1.0" encoding="iso-8859-1"?>
<!-- Generator: Adobe Illustrator 19.0.0, SVG Export Plug-In . SVG Version: 6.00 Build 0)  -->
<svg version="1.1" id="Layer_1" xmlns="http://www.w3.org/2000/svg" xmlns:xlink="http://www.w3.org/1999/xlink" x="0px" y="0px"
	 viewBox="0 0 488 488" style="enable-background:new 0 0 488 488;" xml:space="preserve">
<g transform="translate(0 -540.36)">
	<g>
		<g>
			<path d="M335.95,590.16c5.5,0,10-4.5,10-10v-29.8c0-5.5-4.5-10-10-10s-10,4.5-10,10v29.8
				C325.95,585.66,330.45,590.16,335.95,590.16z"/>
			<path d="M417.65,620.76c2.5,0,5.1-1,7-2.9l19.9-19.9c3.9-3.9,3.9-10.2,0-14.1c-3.9-3.9-10.2-3.9-14.1,0l-19.9,19.9
				c-3.9,3.9-3.9,10.2,0,14.1C412.55,619.76,415.05,620.76,417.65,620.76z"/>
			<path d="M410.45,767.36c-3.9,3.9-3.9,10.2,0,14.1l19.9,19.9c2,1.9,4.5,2.9,7.1,2.9c2.6,0,5.2-0.9,7-2.9c3.9-3.9,3.9-10.2,0-14.1
				l-19.9-19.9C420.65,763.46,414.35,763.46,410.45,767.36z"/>
			<path d="M477.95,672.66h-29.8c-5.5,0-10,4.5-10,10s4.5,10,10,10h29.8c5.5,0,10-4.5,10-10S483.45,672.66,477.95,672.66z"/>
			<path d="M247.15,617.86c2,1.9,4.5,2.9,7.1,2.9c2.6,0,5.1-1,7-2.9c3.9-3.9,3.9-10.2,0-14.1l-19.8-19.9c-3.9-3.9-10.2-3.9-14.1,0
				c-3.9,3.9-3.9,10.2,0,14.1L247.15,617.86z"/>
			<path d="M344.15,962.96c-2.5-4.9-8.5-6.9-13.4-4.4l-15.6,7.9v-19.3c0-5.5-4.5-10-10-10s-10,4.5-10,10v19.3l-15.6-7.9
				c-4.9-2.5-10.9-0.5-13.4,4.4s-0.5,10.9,4.4,13.4l12.6,6.4l-12.6,6.4c-4.9,2.5-6.9,8.5-4.4,13.4c1.8,3.5,5.3,5.5,8.9,5.5
				c1.5,0,3.1-0.3,4.5-1.1l15.6-7.9v19.3c0,5.5,4.5,10,10,10s10-4.5,10-10v-19.3l15.6,7.9c1.5,0.7,3,1.1,4.5,1.1
				c3.6,0,7.2-2,8.9-5.5c2.5-4.9,0.5-10.9-4.4-13.4l-12.6-6.4l12.6-6.4C344.65,973.86,346.65,967.86,344.15,962.96z"/>
			<path d="M120.45,958.26c-2.5-4.9-8.5-6.9-13.4-4.4l-15.6,7.9v-19.3c0-5.5-4.5-10-10-10s-10,4.5-10,10v19.3l-15.6-7.9
				c-4.9-2.5-10.9-0.5-13.4,4.4s-0.5,10.9,4.4,13.4l12.6,6.4l-12.6,6.4c-4.9,2.5-6.9,8.5-4.4,13.4c1.8,3.5,5.3,5.5,8.9,5.5
				c1.5,0,3.1-0.3,4.5-1.1l15.6-7.9v19.3c0,5.5,4.5,10,10,10s10-4.5,10-10v-19.3l15.6,7.9c1.5,0.7,3,1.1,4.5,1.1
				c3.6,0,7.2-2,8.9-5.5c2.5-4.9,0.5-10.9-4.4-13.4l-12.6-6.4l12.6-6.4C120.95,969.16,122.95,963.16,120.45,958.26z"/>
			<path d="M456.35,922.86c-2.5-4.9-8.5-6.9-13.4-4.4l-15.6,7.9v-19.3c0-5.5-4.5-10-10-10s-10,4.5-10,10v19.3l-15.6-7.9
				c-4.9-2.5-10.9-0.5-13.4,4.4s-0.5,10.9,4.4,13.4l12.6,6.4l-12.6,6.4c-4.9,2.5-6.9,8.5-4.4,13.4c1.8,3.5,5.3,5.5,8.9,5.5
				c1.5,0,3.1-0.3,4.5-1.1l15.6-7.9v19.3c0,5.5,4.5,10,10,10s10-4.5,10-10v-19.3l15.6,7.9c1.5,0.7,3,1.1,4.5,1.1
				c3.6,0,7.2-2,8.9-5.5c2.5-4.9,0.5-10.9-4.4-13.4l-12.6-6.4l12.6-6.4C456.85,933.76,458.85,927.76,456.35,922.86z"/>
			<path d="M232.65,918.06c-2.5-4.9-8.5-6.9-13.4-4.4l-15.6,7.9v-19.2c0-5.5-4.5-10-10-10s-10,4.5-10,10v19.3l-15.6-7.9
				c-4.9-2.5-10.9-0.5-13.4,4.4s-0.5,10.9,4.4,13.4l12.6,6.4l-12.6,6.4c-4.9,2.5-6.9,8.5-4.4,13.4c1.8,3.5,5.3,5.5,8.9,5.5
				c1.5,0,3.1-0.3,4.5-1.1l15.6-7.9v19.3c0,5.5,4.5,10,10,10s10-4.5,10-10v-19.3l15.6,7.9c1.5,0.7,3,1.1,4.5,1.1
				c3.6,0,7.2-2,8.9-5.5c2.5-4.9,0.5-11-4.4-13.5l-12.6-6.4l12.6-6.4C233.15,928.96,235.15,922.96,232.65,918.06z"/>
			<path d="M416.25,704.06c5.8-39.9-17.6-77.6-55.9-89.8h-0.1c-18.2-5.5-37.9-4-55.3,4.3c-14.7,7-27,18.4-35.2,32.5
				c-14.2-5.8-29.7-8.9-46-8.9c-23.6,0-46.6,6.8-66.3,19.7c-17.2,11.2-31.2,26.5-41,44.6c-9.2-2.5-18.2-3.1-24.7-3.1
				c-24.5,0-47.5,9.4-64.8,26.5c-17.4,17.2-26.9,40.1-26.9,64.6c0,50.6,41.1,91.8,91.7,91.8h132.1c64.2,0,116.9-49.8,121.9-112.8
				c16.4-1.6,32-8.4,44.5-19.6C404.45,741.06,413.75,723.36,416.25,704.06z M223.75,866.16L223.75,866.16l-132.1,0
				c-39.5,0-71.7-32.2-71.7-71.8c0-39.2,32.2-71.1,71.7-71.1c9.6,0,18.8,1.6,25.9,4.6c5,2.1,10.7-0.2,13-5.1
				c16.7-36.8,53.2-60.6,93.2-60.6c56.4,0,102.2,45.6,102.2,101.6C325.95,820.16,280.05,866.16,223.75,866.16z M345.45,753.26
				c-3.4-39.4-25.7-73.5-57.9-93.2c14-23,41.4-34.4,66.7-26.7c29,9.2,46.6,37.7,42,67.7c0,0.1,0,0.1,0,0.2
				C392.65,728.66,371.45,749.86,345.45,753.26z"/>
		</g>
	</g>
</g>
<g>
</g>
<g>
</g>
<g>
</g>
<g>
</g>
<g>
</g>
<g>
</g>
<g>
</g>
<g>
</g>
<g>
</g>
<g>
</g>
<g>
</g>
<g>
</g>
<g>
</g>
<g>
</g>
<g>
</g>
</svg>
