<?xml version="1.0" encoding="iso-8859-1"?>
<!-- Generator: Adobe Illustrator 19.0.0, SVG Export Plug-In . SVG Version: 6.00 Build 0)  -->
<svg version="1.1" id="Layer_1" xmlns="http://www.w3.org/2000/svg" xmlns:xlink="http://www.w3.org/1999/xlink" x="0px" y="0px"
	 viewBox="0 0 478.1 478.1" style="enable-background:new 0 0 478.1 478.1;" xml:space="preserve">
<g transform="translate(0 -540.36)">
	<g>
		<g>
			<path d="M108.9,953.06c-2.5-4.9-8.5-6.9-13.4-4.4l-15.9,8v-19.3c0-5.5-4.5-10-10-10s-10,4.5-10,10v19.3l-15.9-8
				c-4.9-2.5-10.9-0.5-13.4,4.4s-0.5,10.9,4.4,13.4l12.7,6.4l-12.7,6.4c-4.9,2.5-6.9,8.5-4.4,13.4c1.8,3.5,5.3,5.5,8.9,5.5
				c1.5,0,3-0.3,4.5-1.1l15.9-8v19.4c0,5.5,4.5,10,10,10s10-4.5,10-10v-19.3l15.9,8c1.4,0.7,3,1.1,4.5,1.1c3.7,0,7.2-2,8.9-5.5
				c2.5-5,0.5-11-4.4-13.5l-12.7-6.4l12.7-6.4C109.4,963.96,111.4,957.96,108.9,953.06z"/>
			<path d="M217.6,927.96l-12.8-6.3l12.8-6.3c4.9-2.5,7-8.5,4.5-13.4s-8.5-7-13.4-4.5l-16.4,8.1v-19c0-5.5-4.5-10-10-10
				s-10,4.5-10,10v19l-16.3-8.1c-4.9-2.5-10.9-0.4-13.4,4.5s-0.4,10.9,4.5,13.4l12.8,6.3l-12.8,6.3c-4.9,2.5-7,8.5-4.5,13.4
				c1.7,3.5,5.3,5.6,9,5.6c1.5,0,3-0.3,4.4-1l16.4-8.1v19c0,5.5,4.5,10,10,10s10-4.5,10-10v-19l16.4,8.1c1.4,0.7,2.9,1,4.4,1
				c3.7,0,7.2-2,9-5.6C224.6,936.46,222.6,930.46,217.6,927.96z"/>
			<path d="M330.1,979.26l-12.7-6.4l12.7-6.4c4.9-2.5,6.9-8.5,4.4-13.4s-8.5-6.9-13.4-4.4l-15.9,8v-19.3c0-5.5-4.5-10-10-10
				s-10,4.5-10,10v19.3l-15.9-8c-4.9-2.5-10.9-0.5-13.4,4.4s-0.5,10.9,4.4,13.4l12.7,6.4l-12.7,6.4c-4.9,2.5-6.9,8.5-4.4,13.4
				c1.8,3.5,5.3,5.5,8.9,5.5c1.5,0,3-0.3,4.5-1.1l15.9-8v19.4c0,5.5,4.5,10,10,10s10-4.5,10-10v-19.3l15.9,8c1.4,0.7,3,1.1,4.5,1.1
				c3.7,0,7.2-2,8.9-5.5C337.1,987.76,335.1,981.76,330.1,979.26z"/>
			<path d="M447.8,901.86c-2.5-4.9-8.5-6.9-13.4-4.4l-15.9,8v-19c0-5.5-4.5-10-10-10s-10,4.5-10,10v19l-15.9-8
				c-4.9-2.5-10.9-0.5-13.4,4.4s-0.5,10.9,4.4,13.4l12.7,6.4l-12.7,6.4c-4.9,2.5-6.9,8.5-4.4,13.4c1.8,3.5,5.3,5.5,8.9,5.5
				c1.5,0,3-0.3,4.5-1.1l15.9-8v19c0,5.5,4.5,10,10,10s10-4.5,10-10v-19l15.9,8c1.4,0.7,3,1.1,4.5,1.1c3.7,0,7.2-2,8.9-5.5
				c2.5-4.9,0.5-11-4.4-13.4l-12.7-6.4l12.7-6.4C448.3,912.76,450.3,906.76,447.8,901.86z"/>
			<path d="M108.9,617.06c-2.5-4.9-8.5-6.9-13.4-4.4l-15.9,8v-19.3c0-5.5-4.5-10-10-10s-10,4.5-10,10v19.3l-15.9-8
				c-4.9-2.5-10.9-0.5-13.4,4.4s-0.5,10.9,4.4,13.4l12.7,6.4l-12.7,6.4c-4.9,2.5-6.9,8.5-4.4,13.4c1.8,3.5,5.3,5.5,8.9,5.5
				c1.5,0,3-0.3,4.5-1.1l15.9-8v19.3c0,5.5,4.5,10,10,10s10-4.5,10-10v-19.3l15.9,8c1.4,0.7,3,1.1,4.5,1.1c3.7,0,7.2-2,8.9-5.5
				c2.5-4.9,0.5-10.9-4.4-13.4l-12.7-6.4l12.7-6.4C109.4,627.96,111.4,621.96,108.9,617.06z"/>
			<path d="M142.5,605.36c1.7,3.5,5.3,5.6,9,5.6c1.5,0,3-0.3,4.4-1l16.4-8.1v19c0,5.5,4.5,10,10,10s10-4.5,10-10v-19l16.4,8.1
				c1.4,0.7,2.9,1,4.4,1c3.7,0,7.2-2,9-5.6c2.5-4.9,0.5-10.9-4.5-13.4l-12.8-6.3l12.8-6.3c4.9-2.5,7-8.5,4.5-13.4s-8.5-7-13.4-4.5
				l-16.4,8.1v-19c0-5.5-4.5-10-10-10s-10,4.5-10,10v19l-16.4-8.1c-4.9-2.5-10.9-0.4-13.4,4.5s-0.4,10.9,4.5,13.4l12.8,6.3
				l-12.8,6.3C142.1,594.46,140,600.46,142.5,605.36z"/>
			<path d="M330.1,643.26l-12.7-6.4l12.7-6.4c4.9-2.5,6.9-8.5,4.4-13.4s-8.5-6.9-13.4-4.4l-15.9,8v-19.3c0-5.5-4.5-10-10-10
				s-10,4.5-10,10v19.3l-15.9-8c-4.9-2.5-10.9-0.5-13.4,4.4s-0.5,10.9,4.4,13.4l12.7,6.4l-12.7,6.4c-4.9,2.5-6.9,8.5-4.4,13.4
				c1.8,3.5,5.3,5.5,8.9,5.5c1.5,0,3-0.3,4.5-1.1l15.9-8v19.3c0,5.5,4.5,10,10,10s10-4.5,10-10v-19.3l15.9,8c1.4,0.7,3,1.1,4.5,1.1
				c3.7,0,7.2-2,8.9-5.5C337.1,651.76,335.1,645.76,330.1,643.26z"/>
			<path d="M443.4,591.96l-12.7-6.4l12.7-6.4c4.9-2.5,6.9-8.5,4.4-13.4s-8.5-6.9-13.4-4.4l-15.9,8v-19c0-5.5-4.5-10-10-10
				s-10,4.5-10,10v19l-15.9-8c-4.9-2.5-10.9-0.5-13.4,4.4s-0.5,10.9,4.4,13.4l12.7,6.4l-12.7,6.4c-4.9,2.5-6.9,8.5-4.4,13.4
				c1.8,3.5,5.3,5.5,8.9,5.5c1.5,0,3-0.3,4.5-1.1l15.9-8v19c0,5.5,4.5,10,10,10s10-4.5,10-10v-19l15.9,8c1.4,0.7,3,1.1,4.5,1.1
				c3.7,0,7.2-2,8.9-5.5C450.3,600.46,448.3,594.46,443.4,591.96z"/>
			<path d="M108.9,790.06c-2.5-4.9-8.5-6.9-13.4-4.4l-15.9,8v-19.3c0-5.5-4.5-10-10-10s-10,4.5-10,10v19.3l-15.9-8
				c-4.9-2.5-10.9-0.5-13.4,4.4s-0.5,10.9,4.4,13.4l12.7,6.4l-12.7,6.4c-4.9,2.5-6.9,8.5-4.4,13.4c1.8,3.5,5.3,5.5,8.9,5.5
				c1.5,0,3-0.3,4.5-1.1l15.9-8v19.3c0,5.5,4.5,10,10,10s10-4.5,10-10v-19.3l15.9,8c1.4,0.7,3,1.1,4.5,1.1c3.7,0,7.2-2,8.9-5.5
				c2.5-4.9,0.5-10.9-4.4-13.4l-12.7-6.4l12.7-6.4C109.4,800.96,111.4,794.96,108.9,790.06z"/>
			<path d="M142.5,778.36c1.7,3.5,5.3,5.6,9,5.6c1.5,0,3-0.3,4.4-1l16.4-8.1v19c0,5.5,4.5,10,10,10s10-4.5,10-10v-19l16.4,8.1
				c1.4,0.7,2.9,1,4.4,1c3.7,0,7.2-2,9-5.6c2.5-4.9,0.5-10.9-4.5-13.4l-12.8-6.3l12.8-6.3c4.9-2.5,7-8.5,4.5-13.4s-8.5-7-13.4-4.5
				l-16.4,8.1v-19c0-5.5-4.5-10-10-10s-10,4.5-10,10v19l-16.4-8.1c-4.9-2.5-10.9-0.4-13.4,4.5s-0.4,10.9,4.5,13.4l12.8,6.3
				l-12.8,6.3C142.1,767.46,140,773.46,142.5,778.36z"/>
			<path d="M330.1,816.26l-12.7-6.4l12.7-6.4c4.9-2.5,6.9-8.5,4.4-13.4s-8.5-6.9-13.4-4.4l-15.9,8v-19.3c0-5.5-4.5-10-10-10
				s-10,4.5-10,10v19.3l-15.9-8c-4.9-2.5-10.9-0.5-13.4,4.4s-0.5,10.9,4.4,13.4l12.7,6.4l-12.7,6.4c-4.9,2.5-6.9,8.5-4.4,13.4
				c1.8,3.5,5.3,5.5,8.9,5.5c1.5,0,3-0.3,4.5-1.1l15.9-8v19.3c0,5.5,4.5,10,10,10s10-4.5,10-10v-19.3l15.9,8c1.4,0.7,3,1.1,4.5,1.1
				c3.7,0,7.2-2,8.9-5.5C337.1,824.76,335.1,818.76,330.1,816.26z"/>
			<path d="M447.8,738.86c-2.5-4.9-8.5-6.9-13.4-4.4l-15.9,8v-19c0-5.5-4.5-10-10-10s-10,4.5-10,10v19l-15.9-8
				c-4.9-2.5-10.9-0.5-13.4,4.4s-0.5,10.9,4.4,13.4l12.7,6.4l-12.7,6.4c-4.9,2.5-6.9,8.5-4.4,13.4c1.8,3.5,5.3,5.5,8.9,5.5
				c1.5,0,3-0.3,4.5-1.1l15.9-8v19c0,5.5,4.5,10,10,10s10-4.5,10-10v-19l15.9,8c1.4,0.7,3,1.1,4.5,1.1c3.7,0,7.2-2,8.9-5.5
				c2.5-5,0.5-11-4.4-13.4l-12.7-6.4l12.7-6.4C448.3,749.76,450.3,743.76,447.8,738.86z"/>
		</g>
	</g>
</g>
<g>
</g>
<g>
</g>
<g>
</g>
<g>
</g>
<g>
</g>
<g>
</g>
<g>
</g>
<g>
</g>
<g>
</g>
<g>
</g>
<g>
</g>
<g>
</g>
<g>
</g>
<g>
</g>
<g>
</g>
</svg>
