<?xml version="1.0" encoding="iso-8859-1"?>
<!-- Generator: Adobe Illustrator 19.0.0, SVG Export Plug-In . SVG Version: 6.00 Build 0)  -->
<svg version="1.1" id="Layer_1" xmlns="http://www.w3.org/2000/svg" xmlns:xlink="http://www.w3.org/1999/xlink" x="0px" y="0px"
	 viewBox="0 0 482.1 482.1" style="enable-background:new 0 0 482.1 482.1;" xml:space="preserve">
<g transform="translate(0 -540.36)">
	<g>
		<g>
			<path d="M296.114,540.36c-48.3,0-92.9,27.3-116.1,70.2c-9-2.7-18.4-4.2-27.3-4.2c-54.4,0-98.7,44.1-98.7,98.3
				s44.3,98.3,98.7,98.3h143.4c72.7,0,131.9-58.9,131.9-131.3S368.814,540.36,296.114,540.36z M296.114,783.06h-143.4
				c-43.4,0-78.7-35.1-78.7-78.3s35.3-78.3,78.7-78.3c9.2,0,19.6,2.2,28.5,5.8c4.9,2.1,10.7-0.2,12.9-5.1
				c18.5-40.5,58.5-66.7,102-66.7c61.7,0,111.9,49.9,111.9,111.3S357.814,783.06,296.114,783.06z"/>
			<path d="M262.814,838.96c-4.7-2.9-10.9-1.3-13.7,3.4l-33.2,55.3c-2.9,4.7-1.3,10.9,3.4,13.7c1.6,0.9,3.3,1.4,5.1,1.4v0
				c3.4,0,6.7-1.7,8.6-4.8l33.2-55.3C269.114,847.96,267.514,841.86,262.814,838.96z"/>
			<path d="M262.814,949.56c-4.7-2.9-10.8-1.4-13.7,3.3l-33.2,54.4c-2.9,4.7-1.4,10.8,3.3,13.7c1.6,1,3.4,1.5,5.2,1.5
				c3.4,0,6.7-1.7,8.5-4.8l33.2-54.4C269.014,958.56,267.514,952.46,262.814,949.56z"/>
			<path d="M372.114,937.56l-15-7.6l15-7.6c4.9-2.5,6.9-8.5,4.4-13.4s-8.5-6.9-13.4-4.4l-18.2,9.2v-22.1c0-5.5-4.5-10-10-10
				s-10,4.5-10,10v22.1l-18.2-9.2c-4.9-2.5-10.9-0.5-13.4,4.4s-0.5,10.9,4.4,13.4l15,7.6l-15,7.6c-4.9,2.5-6.9,8.5-4.4,13.4
				c1.8,3.5,5.3,5.5,8.9,5.5c1.5,0,3-0.3,4.5-1.1l18.2-9.2v22.1c0,5.5,4.5,10,10,10s10-4.5,10-10v-22.1l18.2,9.2
				c1.4,0.7,3,1.1,4.5,1.1c3.7,0,7.2-2,8.9-5.5C379.014,946.06,377.114,940.06,372.114,937.56z"/>
			<path d="M188.814,908.96c-2.5-4.9-8.5-6.9-13.4-4.4l-18.2,9.2v-22.1c0-5.5-4.5-10-10-10s-10,4.5-10,10v22.1l-18.2-9.2
				c-4.9-2.5-10.9-0.5-13.4,4.4s-0.5,10.9,4.4,13.4l15,7.6l-15,7.6c-4.9,2.5-6.9,8.5-4.4,13.4c1.8,3.5,5.3,5.5,8.9,5.5
				c1.5,0,3-0.3,4.5-1.1l18.2-9.2v22.1c0,5.5,4.5,10,10,10s10-4.5,10-10v-22.1l18.2,9.2c1.4,0.7,3,1.1,4.5,1.1c3.7,0,7.2-2,8.9-5.5
				c2.5-4.9,0.5-10.9-4.4-13.4l-15-7.6l15-7.6C189.314,919.86,191.314,913.86,188.814,908.96z"/>
			<path d="M407.514,911.36c1.6,0.9,3.3,1.4,5.1,1.4v0c3.4,0,6.7-1.7,8.6-4.8l33.2-55.3c2.9-4.7,1.3-10.8-3.4-13.7
				c-4.7-2.9-10.9-1.3-13.7,3.4l-33.2,55.3C401.214,902.36,402.814,908.56,407.514,911.36z"/>
			<path d="M74.614,838.96c-4.7-2.9-10.9-1.3-13.7,3.4l-33.2,55.3c-2.9,4.7-1.3,10.9,3.4,13.7c1.6,0.9,3.3,1.4,5.1,1.4v0
				c3.4,0,6.8-1.7,8.6-4.8l33.2-55.3C80.914,847.96,79.314,841.76,74.614,838.96z"/>
			<path d="M451.014,949.56c-4.7-2.9-10.8-1.4-13.7,3.3l-33.2,54.4c-2.9,4.7-1.4,10.8,3.3,13.7c1.6,1,3.4,1.5,5.2,1.5
				c3.4,0,6.6-1.7,8.5-4.8l33.2-54.4C457.214,958.56,455.714,952.46,451.014,949.56z"/>
			<path d="M74.614,949.56c-4.7-2.9-10.8-1.4-13.7,3.3l-33.2,54.4c-2.9,4.7-1.4,10.8,3.3,13.7c1.6,1,3.4,1.5,5.2,1.5
				c3.4,0,6.7-1.7,8.5-4.8l33.2-54.4C80.814,958.56,79.314,952.46,74.614,949.56z"/>
		</g>
	</g>
</g>
<g>
</g>
<g>
</g>
<g>
</g>
<g>
</g>
<g>
</g>
<g>
</g>
<g>
</g>
<g>
</g>
<g>
</g>
<g>
</g>
<g>
</g>
<g>
</g>
<g>
</g>
<g>
</g>
<g>
</g>
</svg>
