<?xml version="1.0" encoding="iso-8859-1"?>
<!-- Generator: Adobe Illustrator 19.0.0, SVG Export Plug-In . SVG Version: 6.00 Build 0)  -->
<svg version="1.1" id="Layer_1" xmlns="http://www.w3.org/2000/svg" xmlns:xlink="http://www.w3.org/1999/xlink" x="0px" y="0px"
	 viewBox="0 0 487 487" style="enable-background:new 0 0 487 487;" xml:space="preserve">
<g transform="translate(0 -540.36)">
	<g>
		<g>
			<path d="M481.6,762.236L481.6,762.236l-19.3-10l19.3-10c4.9-2.5,6.8-8.6,4.3-13.5s-8.6-6.8-13.5-4.3l-21.9,11.4v-27.4
				c0-5.5-4.5-10-10-10s-10,4.5-10,10v27.4l-21.9-11.3c-4.9-2.5-10.9-0.6-13.5,4.3c-2.5,4.9-0.6,10.9,4.3,13.5l19.3,10l-19.3,10
				c-4.9,2.5-6.8,8.6-4.3,13.5c1.8,3.4,5.3,5.4,8.9,5.4c1.5,0,3.1-0.4,4.6-1.1l21.9-11.3v27.4c0,5.5,4.5,10,10,10s10-4.5,10-10
				v-27.4l21.9,11.3c1.5,0.8,3,1.1,4.6,1.1c3.6,0,7.1-2,8.9-5.4C488.4,770.836,486.5,764.736,481.6,762.236z"/>
			<path d="M56.5,796.236v-27.4l21.9,11.3c1.5,0.8,3,1.1,4.6,1.1c3.6,0,7.1-2,8.9-5.4c2.4-5,0.5-11.1-4.4-13.6v0l-19.3-10l19.3-10
				c4.9-2.5,6.8-8.6,4.3-13.5s-8.6-6.8-13.5-4.3l-21.8,11.4v-27.4c0-5.5-4.5-10-10-10s-10,4.5-10,10v27.4l-21.9-11.3
				c-4.9-2.5-10.9-0.6-13.5,4.3c-2.5,4.9-0.6,10.9,4.3,13.5l19.3,10l-19.3,10c-4.9,2.5-6.8,8.6-4.3,13.5c1.8,3.4,5.3,5.4,8.9,5.4
				c1.5,0,3.1-0.4,4.6-1.1l21.9-11.3v27.4c0,5.5,4.5,10,10,10S56.5,801.736,56.5,796.236z"/>
			<path d="M136.4,913.436l-19.3-10l19.3-10c4.9-2.5,6.8-8.6,4.3-13.5s-8.6-6.8-13.5-4.3l-21.9,11.3v-27.4c0-5.5-4.5-10-10-10
				s-10,4.5-10,10v27.4l-21.8-11.2c-4.9-2.5-10.9-0.6-13.5,4.3c-2.5,4.9-0.6,10.9,4.3,13.5l19.3,10l-19.3,10
				c-4.9,2.5-6.8,8.6-4.3,13.5c1.8,3.4,5.3,5.4,8.9,5.4c1.5,0,3.1-0.4,4.6-1.1l21.9-11.3v27.4c0,5.5,4.5,10,10,10s10-4.5,10-10
				v-27.4l21.9,11.3c1.5,0.8,3,1.1,4.6,1.1c3.6,0,7.1-2,8.9-5.4C143.2,922.036,141.3,916.036,136.4,913.436z"/>
			<path d="M424.1,879.936c-2.5-4.9-8.6-6.8-13.5-4.3l-21.9,11.3v-27.4c0-5.5-4.5-10-10-10s-10,4.5-10,10v27.4l-21.9-11.3
				c-4.9-2.5-10.9-0.6-13.5,4.3c-2.5,4.9-0.6,10.9,4.3,13.5l19.3,10l-19.3,10c-4.9,2.5-6.8,8.6-4.3,13.5c1.8,3.4,5.3,5.4,8.9,5.4
				c1.5,0,3.1-0.4,4.6-1.1l21.9-11.3v27.4c0,5.5,4.5,10,10,10s10-4.5,10-10v-27.4l21.9,11.3c1.5,0.8,3,1.1,4.6,1.1
				c3.6,0,7.1-2,8.9-5.4c2.5-4.9,0.6-10.9-4.3-13.5l-19.3-10l19.3-10C424.7,890.936,426.6,884.836,424.1,879.936z"/>
			<path d="M302.8,736.636l-89.5,14.5l75.6-125.7c2.9-4.7,1.3-10.9-3.4-13.7c-4.7-2.9-10.9-1.3-13.7,3.4l-86.8,144.2
				c-2,3.4-1.9,7.6,0.3,10.8c2.2,3.3,6.1,4.9,9.9,4.3l87.2-14.1l-84,118.1c-3.2,4.5-2.1,10.7,2.4,13.9c1.8,1.3,3.8,1.9,5.8,1.9l0,0
				c3.1,0,6.2-1.5,8.2-4.3l97.8-137.6c2.3-3.3,2.4-7.7,0.3-11.1C310.8,737.836,306.8,736.036,302.8,736.636z"/>
		</g>
	</g>
</g>
<g>
</g>
<g>
</g>
<g>
</g>
<g>
</g>
<g>
</g>
<g>
</g>
<g>
</g>
<g>
</g>
<g>
</g>
<g>
</g>
<g>
</g>
<g>
</g>
<g>
</g>
<g>
</g>
<g>
</g>
</svg>
