<?xml version="1.0" encoding="iso-8859-1"?>
<!-- Generator: Adobe Illustrator 19.0.0, SVG Export Plug-In . SVG Version: 6.00 Build 0)  -->
<svg version="1.1" id="Layer_1" xmlns="http://www.w3.org/2000/svg" xmlns:xlink="http://www.w3.org/1999/xlink" x="0px" y="0px"
	 viewBox="0 0 484 484" style="enable-background:new 0 0 484 484;" xml:space="preserve">
<g>
	<g>
		<path d="M363,83.15L363,83.15c-10,0-19.9,1.2-29.3,3.6c-18.1-45.1-62.1-74.9-112-74.9c-44.1,0-84.9,25-106.3,64.4
			c-8.1-2.4-16.5-3.7-24.5-3.7c-50.1,0-90.9,40.9-90.9,91.2s40.8,91.2,90.9,91.2h52.8c9.3,40.4,45.5,70.6,88.5,70.6h23.1l-51.5,69.8
			c-2.4,3.3-2.6,7.7-0.5,11.2c2.1,3.5,6.1,5.3,10.1,4.7l36.7-6l-36.6,51c-3.2,4.5-2.2,10.7,2.3,14c1.8,1.3,3.8,1.9,5.8,1.9
			c3.1,0,6.2-1.4,8.1-4.2l50.6-70.6c2.4-3.3,2.5-7.7,0.4-11.1c-2.1-3.4-6.1-5.3-10.1-4.6l-36.2,5.9l45.7-61.9h82.8
			c66.8,0,121.1-54.5,121.1-121.5C484.1,137.35,429.8,83.15,363,83.15z M141.4,234.15c0,0.2,0,0.4,0,0.6l-50.4,0.1v0
			c-39.1,0-70.9-31.9-70.9-71.2c0-39.2,31.8-71.2,70.9-71.2c8.2,0,17.6,1.9,25.6,5.3c5,2.1,10.7-0.2,13-5.1
			c16.7-37,52.9-60.9,92.1-60.9c41.3,0,77.7,24.3,93,61.3c-24.7,10.7-45.4,29.5-58.2,53.8c-7.7-2.1-15.7-3.1-24.2-3.1
			c-24.3,0-47.1,9.3-64.2,26.3C150.9,187.05,141.4,209.85,141.4,234.15z M363,305.45L363,305.45l-130.7,0
			c-39.1,0-70.9-31.9-70.9-71.2c0-38.8,31.8-70.4,70.9-70.4c9.3,0,17.8,1.5,25.9,4.6c5,1.9,10.7-0.4,12.8-5.4
			c15.7-36.4,51.9-60,92.1-60c55.7,0,101.1,45.2,101.1,100.8C464.1,259.85,418.8,305.45,363,305.45z"/>
	</g>
</g>
<g>
</g>
<g>
</g>
<g>
</g>
<g>
</g>
<g>
</g>
<g>
</g>
<g>
</g>
<g>
</g>
<g>
</g>
<g>
</g>
<g>
</g>
<g>
</g>
<g>
</g>
<g>
</g>
<g>
</g>
</svg>
