<?xml version="1.0" encoding="iso-8859-1"?>
<!-- Generator: Adobe Illustrator 19.0.0, SVG Export Plug-In . SVG Version: 6.00 Build 0)  -->
<svg version="1.1" id="Layer_1" xmlns="http://www.w3.org/2000/svg" xmlns:xlink="http://www.w3.org/1999/xlink" x="0px" y="0px"
	 viewBox="0 0 488 488" style="enable-background:new 0 0 488 488;" xml:space="preserve">
<g transform="translate(0 -540.36)">
	<g>
		<g>
			<path d="M124.6,791.46c1.9,1.9,4.4,2.9,7.1,2.9l112.3-0.8l112.4,0.8c2.7,0,5.2-1,7.1-2.9c1.9-1.9,3-4.4,3-7.1
				c0-43.5-23.3-84.1-60.9-105.8c-38.2-21.5-85-21.5-122.3,0c-38.1,21.5-61.7,62-61.7,105.8C121.6,787.06,122.7,789.56,124.6,791.46
				z M193.2,695.86c31.2-18,70.5-18,102.4,0c28.4,16.4,47.1,45.9,50.3,78.4l-101.9-0.7l-101.9,0.7
				C145.4,741.66,164.3,712.16,193.2,695.86z"/>
			<polygon points="356.4,794.36 356.4,794.36 356.4,794.36 			"/>
			<path d="M244,610.86c5.5,0,10-4.5,10-10v-50.5c0-5.5-4.5-10-10-10s-10,4.5-10,10v50.5C234,606.36,238.5,610.86,244,610.86z"/>
			<path d="M376.3,662.06c2.6,0,5.1-1,7-2.9l41.3-41.3c3.9-3.9,3.9-10.2,0-14.1c-3.9-3.9-10.2-3.9-14.1,0l-41.3,41.3
				c-3.9,3.9-3.9,10.2,0,14.1C371.2,661.06,373.7,662.06,376.3,662.06z"/>
			<path d="M104.6,659.16c2,1.9,4.5,2.9,7.1,2.9c2.6,0,5.1-1,7-2.9c3.9-3.9,3.9-10.2,0-14.1l-41.3-41.3c-3.9-3.9-10.2-3.9-14.1,0
				c-3.9,3.9-3.9,10.2,0,14.1L104.6,659.16z"/>
			<path d="M478,774.36h-50.5c-5.5,0-10,4.5-10,10s4.5,10,10,10H478c5.5,0,10-4.5,10-10S483.5,774.36,478,774.36z"/>
			<path d="M70.5,784.36c0-5.5-4.5-10-10-10H10c-5.5,0-10,4.5-10,10s4.5,10,10,10h50.5C66,794.36,70.5,789.86,70.5,784.36z"/>
			<path d="M273,886.26l-34.7,5.6l34-40.6c3.6-4.2,3-10.6-1.2-14.1c-4.2-3.6-10.6-3-14.1,1.2l-51.4,61.2c-2.7,3.2-3.1,7.8-1,11.4
				c2.1,3.6,6.2,5.6,10.3,4.9l34.4-5.6l-33.7,39.7c-3.5,4.2-3,10.5,1.2,14.1c1.9,1.6,4.2,2.4,6.5,2.4l0,0c2.9,0,5.7-1.2,7.7-3.6
				l51.2-60.2c2.7-3.2,3.2-7.8,1.1-11.4C281.3,887.56,277.1,885.56,273,886.26z"/>
			<path d="M109.9,921.16c2.5-4.9,0.5-10.9-4.4-13.4l-12.6-6.4l12.6-6.4c4.9-2.5,6.9-8.5,4.4-13.4s-8.5-6.9-13.4-4.4l-15.7,7.9
				v-19.3c0-5.5-4.5-10-10-10s-10,4.5-10,10v19.3l-15.7-7.9c-4.9-2.5-10.9-0.5-13.4,4.4s-0.5,10.9,4.4,13.4l12.6,6.4l-12.6,6.4
				c-4.9,2.5-6.9,8.5-4.4,13.4c1.8,3.5,5.3,5.5,8.9,5.5c1.5,0,3.1-0.3,4.5-1.1l15.7-7.9v19.3c0,5.5,4.5,10,10,10s10-4.5,10-10v-19.3
				l15.7,7.9c1.4,0.7,3,1.1,4.5,1.1C104.6,926.66,108.2,924.66,109.9,921.16z"/>
			<path d="M451.9,907.76l-12.6-6.4l12.6-6.4c4.9-2.5,6.9-8.5,4.4-13.4s-8.5-6.9-13.4-4.4l-15.7,7.9v-19.3c0-5.5-4.5-10-10-10
				s-10,4.5-10,10v19.3l-15.7-7.9c-4.9-2.5-10.9-0.5-13.4,4.4s-0.5,10.9,4.4,13.4l12.6,6.4l-12.6,6.4c-4.9,2.5-6.9,8.5-4.4,13.4
				c1.8,3.5,5.3,5.5,8.9,5.5c1.5,0,3.1-0.3,4.5-1.1l15.7-7.9v19.3c0,5.5,4.5,10,10,10s10-4.5,10-10v-19.3l15.7,7.9
				c1.4,0.7,3,1.1,4.5,1.1c3.6,0,7.2-2,8.9-5.5C458.8,916.26,456.9,910.26,451.9,907.76z"/>
			<path d="M186,963.36c-2.5-4.9-8.5-6.9-13.4-4.4l-15.7,7.9v-18.9c0-5.5-4.5-10-10-10s-10,4.5-10,10v18.9l-15.7-7.9
				c-4.9-2.5-10.9-0.5-13.4,4.4s-0.5,10.9,4.4,13.4l12.6,6.4l-12.6,6.4c-4.9,2.5-6.9,8.5-4.4,13.4c1.8,3.5,5.3,5.5,8.9,5.5
				c1.5,0,3.1-0.3,4.5-1.1l15.7-7.9v18.9c0,5.5,4.5,10,10,10s10-4.5,10-10v-18.9l15.7,7.9c1.4,0.7,3,1.1,4.5,1.1
				c3.6,0,7.2-2,8.9-5.5c2.5-4.9,0.5-10.9-4.4-13.4v0l-12.6-6.4l12.6-6.4C186.5,974.26,188.5,968.26,186,963.36z"/>
			<path d="M375.8,989.56l-12.7-6.3l12.7-6.4c4.9-2.5,6.9-8.5,4.5-13.4c-2.5-4.9-8.5-6.9-13.4-4.5l-16.1,8.1v-19c0-5.5-4.5-10-10-10
				s-10,4.5-10,10v19l-16.1-8.1c-4.9-2.5-10.9-0.5-13.4,4.5c-2.5,4.9-0.5,10.9,4.5,13.4l12.7,6.3l-12.7,6.3
				c-4.9,2.5-6.9,8.5-4.5,13.4c1.8,3.5,5.3,5.5,9,5.5c1.5,0,3-0.3,4.5-1.1l16.1-8.1v19c0,5.5,4.5,10,10,10s10-4.5,10-10v-19
				l16.1,8.1c1.4,0.7,3,1.1,4.5,1.1c3.7,0,7.2-2,9-5.5C382.7,998.06,380.7,991.96,375.8,989.56z"/>
		</g>
	</g>
</g>
<g>
</g>
<g>
</g>
<g>
</g>
<g>
</g>
<g>
</g>
<g>
</g>
<g>
</g>
<g>
</g>
<g>
</g>
<g>
</g>
<g>
</g>
<g>
</g>
<g>
</g>
<g>
</g>
<g>
</g>
</svg>
