<?xml version="1.0" encoding="iso-8859-1"?>
<!-- Generator: Adobe Illustrator 19.0.0, SVG Export Plug-In . SVG Version: 6.00 Build 0)  -->
<svg version="1.1" id="Layer_1" xmlns="http://www.w3.org/2000/svg" xmlns:xlink="http://www.w3.org/1999/xlink" x="0px" y="0px"
	 viewBox="0 0 481.921 481.921" style="enable-background:new 0 0 481.921 481.921;" xml:space="preserve">
<g transform="translate(0 -540.36)">
	<g>
		<g>
			<path d="M157.22,887.081v-60c0-5.5-4.5-10-10-10s-10,4.5-10,10v60c-20,4.6-35,22.5-35,43.9c0,24.8,20.2,45,45,45s45-20.2,45-45
				C192.22,909.581,177.22,891.681,157.22,887.081z M147.22,955.981c-13.8,0-25-11.2-25-25s11.2-25,25-25s25,11.2,25,25
				S160.92,955.981,147.22,955.981z"/>
			<path d="M204.22,856.681v-248.5c0-15.1-6-29.3-16.8-39.8c-10.7-10.3-24.8-16-39.9-16c-32.3,0-57.6,24.6-57.6,55.9v248.5
				c-30.3,24.2-42.5,64-30.4,100.6c11.9,38.8,47.2,64.9,87.9,64.9c40.1,0,76.3-26.7,88.1-65.1
				C246.72,920.381,234.12,880.681,204.22,856.681z M216.22,951.381c-9.1,30-37.4,50.9-68.8,50.9c-31.8,0-59.5-20.5-68.8-50.9
				c-0.1-0.1-0.1-0.1-0.1-0.2c-10-30,1-62.6,27.1-81.3c2.6-1.8,4.2-4.9,4.2-8.1v-253.5c0-20.2,16.5-35.9,37.6-35.9
				c20.6,0,36.7,15.8,36.6,35.9v253.5c0,3.2,1.6,6.2,4.2,8.1C214.22,888.381,225.42,921.181,216.22,951.381z"/>
			<path d="M368.02,540.781c-3.7-1.1-7.7,0-10.3,2.8c-2.6,2.8-3.4,6.9-1.9,10.5c3.1,7.6,4.5,14.9,4.5,23c0,33.1-28.3,60.1-63.1,60.1
				c-6.3,0-12.6-0.8-18.8-2.3c-3.7-0.9-7.5,0.3-10,3.2s-3.1,6.9-1.6,10.4c13,30.5,43.2,50.2,77,50.2c22.2,0,43-8.2,58.8-23.1
				c15.7-15.1,24.4-35.3,24.4-56.9C427.02,582.981,403.32,551.681,368.02,540.781z M343.82,678.681c-18.9,0-36.4-8-48.2-21.5
				c0.5,0,1,0,1.5,0c45.8,0,83.1-35.9,83.1-80.1c0-3-0.2-6-0.5-8.9c17,11.3,27.2,29.6,27.2,50.4
				C406.92,651.681,378.62,678.681,343.82,678.681z"/>
		</g>
	</g>
</g>
<g>
</g>
<g>
</g>
<g>
</g>
<g>
</g>
<g>
</g>
<g>
</g>
<g>
</g>
<g>
</g>
<g>
</g>
<g>
</g>
<g>
</g>
<g>
</g>
<g>
</g>
<g>
</g>
<g>
</g>
</svg>
