<?xml version="1.0" encoding="iso-8859-1"?>
<!-- Generator: Adobe Illustrator 19.0.0, SVG Export Plug-In . SVG Version: 6.00 Build 0)  -->
<svg version="1.1" id="Layer_1" xmlns="http://www.w3.org/2000/svg" xmlns:xlink="http://www.w3.org/1999/xlink" x="0px" y="0px"
	 viewBox="0 0 482 482" style="enable-background:new 0 0 482 482;" xml:space="preserve">
<g transform="translate(0 -540.36)">
	<g>
		<g>
			<path d="M245.133,856.66v-249.1c0-15.1-5.6-29.2-15.8-39.7c-10.2-10.5-23.8-16.2-38.3-16.2s-28.1,5.8-38.3,16.2
				c-10.2,10.5-15.8,24.6-15.8,39.7v249.1c-28.4,23.6-40.3,63.2-29.6,100.4c11.3,39.1,44.9,65.3,83.7,65.3s72.4-26.2,83.7-65.3
				C285.433,919.86,273.533,880.26,245.133,856.66z M255.433,951.56c-8.8,30.4-34.7,50.8-64.5,50.8c-29.8,0-55.7-20.4-64.5-50.8
				c-8.9-30.9,1.7-63.8,26.3-81.9l4.1-3v-259c0-20.2,15-35.9,34.1-35.9c19.1,0,34.1,15.8,34.1,35.9v259l4.1,3
				C253.833,887.66,264.333,920.66,255.433,951.56z"/>
			<path d="M201.033,887.56v-60.7c0-5.5-4.5-10-10-10s-10,4.5-10,10v60.7c-19.7,4.6-34.5,22.3-34.5,43.4c0,24.5,20,44.5,44.5,44.5
				s44.5-20,44.5-44.5C235.533,909.76,220.733,892.06,201.033,887.56z M191.033,955.46c-13.2,0-23.9-11-23.9-24.6
				s10.7-24.6,23.9-24.6s23.9,11,23.9,24.6S204.233,955.46,191.033,955.46z"/>
			<path d="M450.333,668.06l-16.1-8.5l16.1-8.5c4.9-2.6,6.8-8.6,4.2-13.5c-2.6-4.9-8.6-6.8-13.5-4.2l-18.2,9.6v-23.3
				c0-5.5-4.5-10-10-10s-10,4.5-10,10v23.3l-18.2-9.6c-4.9-2.6-10.9-0.7-13.5,4.2c-2.6,4.9-0.7,10.9,4.2,13.5l16.1,8.5l-16.1,8.5
				c-4.9,2.6-6.8,8.6-4.2,13.5c1.8,3.4,5.3,5.3,8.9,5.3c1.6,0,3.2-0.4,4.7-1.2l18.2-9.6v23.3c0,5.5,4.5,10,10,10s10-4.5,10-10v-23.3
				l18.2,9.6c1.5,0.8,3.1,1.2,4.7,1.2c3.6,0,7.1-1.9,8.9-5.3C457.133,676.66,455.233,670.66,450.333,668.06z"/>
			<path d="M366.333,568.16c-2.5-4.9-8.6-6.8-13.5-4.3l-18.7,9.7v-23.2c0-5.5-4.5-10-10-10s-10,4.5-10,10v23.4l-18.7-9.7
				c-4.9-2.5-10.9-0.6-13.5,4.3c-2.6,4.9-0.6,10.9,4.3,13.5l16.3,8.5l-16.3,8.5c-4.9,2.6-6.8,8.6-4.3,13.5c1.8,3.4,5.3,5.4,8.9,5.4
				c1.6,0,3.1-0.4,4.6-1.1l18.7-9.7v23.4c0,5.5,4.5,10,10,10s10-4.5,10-10v-23.4l18.7,9.7c1.5,0.8,3.1,1.1,4.6,1.1
				c3.6,0,7.1-2,8.9-5.4c2.5-5.1,0.6-11.1-4.3-13.7l-16.3-8.5l16.3-8.5C366.933,579.06,368.833,573.06,366.333,568.16z"/>
			<path d="M91.133,840.26h-54.9c-5.5,0-10,4.5-10,10s4.5,10,10,10h54.9c5.5,0,10-4.5,10-10S96.633,840.26,91.133,840.26z"/>
			<path d="M91.133,701.56h-33.3c-5.5,0-10,4.5-10,10s4.5,10,10,10h33.3c5.5,0,10-4.5,10-10S96.633,701.56,91.133,701.56z"/>
			<path d="M91.133,655.66h-54.9c-5.5,0-10,4.5-10,10s4.5,10,10,10h54.9c5.5,0,10-4.5,10-10S96.633,655.66,91.133,655.66z"/>
			<path d="M91.133,608.86h-33.3c-5.5,0-10,4.5-10,10s4.5,10,10,10h33.3c5.5,0,10-4.5,10-10S96.633,608.86,91.133,608.86z"/>
			<path d="M91.133,562.86h-54.9c-5.5,0-10,4.5-10,10s4.5,10,10,10h54.9c5.5,0,10-4.4,10-10
				C101.133,567.36,96.633,562.86,91.133,562.86z"/>
			<path d="M91.133,794.36h-33.3c-5.5,0-10,4.5-10,10s4.5,10,10,10h33.3c5.5,0,10-4.5,10-10S96.633,794.36,91.133,794.36z"/>
			<path d="M91.133,747.56h-54.9c-5.5,0-10,4.5-10,10s4.5,10,10,10h54.9c5.5,0,10-4.5,10-10S96.633,747.56,91.133,747.56z"/>
		</g>
	</g>
</g>
<g>
</g>
<g>
</g>
<g>
</g>
<g>
</g>
<g>
</g>
<g>
</g>
<g>
</g>
<g>
</g>
<g>
</g>
<g>
</g>
<g>
</g>
<g>
</g>
<g>
</g>
<g>
</g>
<g>
</g>
</svg>
