<?xml version="1.0" encoding="iso-8859-1"?>
<!-- Generator: Adobe Illustrator 19.0.0, SVG Export Plug-In . SVG Version: 6.00 Build 0)  -->
<svg version="1.1" id="Layer_1" xmlns="http://www.w3.org/2000/svg" xmlns:xlink="http://www.w3.org/1999/xlink" x="0px" y="0px"
	 viewBox="0 0 488.3 488.3" style="enable-background:new 0 0 488.3 488.3;" xml:space="preserve">
<g transform="translate(0 -540.36)">
	<g>
		<g>
			<path d="M326.651,580.16c5.6,0,10-4.5,10-10v-19.8c0-5.5-4.5-10-10-10s-10,4.5-10,10v19.8
				C316.651,575.66,321.151,580.16,326.651,580.16z"/>
			<path d="M326.651,723.46c-5.5,0-10,4.5-10,10v19.9c0,5.5,4.5,10,10,10c5.6,0,10-4.5,10-10v-19.9
				C336.651,727.96,332.151,723.46,326.651,723.46z"/>
			<path d="M254.051,651.76c0-5.5-4.5-10-10-10h-20.1c-5.5,0-10,4.5-10,10s4.5,10,10,10h20.1
				C249.551,661.76,254.051,657.26,254.051,651.76z"/>
			<path d="M429.451,641.76h-20.1c-5.5,0-10,4.5-10,10s4.5,10,10,10h20.1c5.5,0,10-4.5,10-10S434.951,641.76,429.451,641.76z"/>
			<path d="M398.55,601.158c2.5,0,5-1,7-2.9l10.8-10.7c3.9-3.8,3.9-10.2,0.1-14.1c-3.8-3.9-10.2-4-14.1-0.1l-10.8,10.7
				c-3.9,3.8-4,10.2-0.1,14.1C393.35,600.158,395.95,601.158,398.55,601.158z"/>
			<path d="M251.05,573.358c-3.9-3.9-10.2-3.8-14.1,0.1c-3.9,3.9-3.8,10.2,0.1,14.1l10.8,10.7c1.9,1.9,4.5,2.9,7,2.9
				c2.6,0,5.2-1,7.1-3c3.9-3.9,3.8-10.2-0.1-14.1L251.05,573.358z"/>
			<polygon points="254.85,601.158 254.85,601.158 254.85,601.158 			"/>
			<path d="M405.25,705.958c-4-3.7-10.4-3.5-14.1,0.6c-3.7,4-3.5,10.4,0.6,14.1l10.8,9.9c2,1.7,4.4,2.6,6.8,2.6v0
				c2.7,0,5.4-1.1,7.3-3.2c3.7-4,3.5-10.4-0.6-14.1L405.25,705.958z"/>
			<path d="M248.05,705.958l-10.8,9.9c-4.1,3.7-4.3,10-0.6,14.1c2,2.1,4.7,3.2,7.4,3.2v0c2.4,0,4.8-0.8,6.7-2.6l10.8-9.9
				c4.1-3.7,4.3-10,0.6-14.1S252.15,702.258,248.05,705.958z"/>
			<path d="M326.651,590.06c-34.1,0-61.8,27.8-61.8,62.1c0,33.9,27.7,61.4,61.8,61.4c34.1,0,61.8-27.5,61.8-61.4
				C388.451,617.96,360.751,590.06,326.651,590.06z M326.651,693.56c-23.1,0-41.8-18.6-41.8-41.4c0-23.2,18.8-42.1,41.8-42.1
				c23.1,0,41.8,18.9,41.8,42.1C368.451,674.96,349.651,693.56,326.651,693.56z"/>
			<path d="M182.251,880.96v-218.8c0-13.7-5.4-26.5-15.1-36c-9.6-9.4-22.4-14.5-35.9-14.5c-29,0-51.7,22.2-51.7,50.5v218.8
				c-26.6,21.6-37.3,57-26.6,89.6c10.6,34.7,42.1,58.1,78.3,58.1c35.7,0,67.9-24,78.4-58.2
				C219.551,937.76,208.551,902.46,182.251,880.96z M190.451,964.56c-7.9,26-32.2,44.1-59.2,44.1c-27.4,0-51.2-17.7-59.2-44.1
				c-0.1-0.1-0.1-0.1-0.1-0.2c-8.5-25.9,0.9-54.2,23.4-70.4c2.7-1.9,4.2-4.9,4.2-8.1v-223.7c0-17.1,13.9-30.5,31.7-30.5
				c17.4,0,30.9,13.4,30.9,30.4v223.7c0,3.2,1.6,6.2,4.2,8.1C188.751,909.96,198.451,938.36,190.451,964.56z"/>
			<path d="M141.251,907.46v-245.3c0-5.5-4.5-10-10-10c-5.5,0-10,4.5-10,10v245.2c-17.8,4.4-31,20.5-31,39.6
				c0,22.5,18.3,40.8,40.8,40.8s40.8-18.3,40.8-40.8C171.751,927.96,158.851,911.96,141.251,907.46z M131.051,967.66
				c-11.4,0-20.8-9.3-20.8-20.8c0-11.4,9.3-20.7,20.8-20.7s20.8,9.3,20.8,20.7C151.751,958.36,142.451,967.66,131.051,967.66z"/>
		</g>
	</g>
</g>
<g>
</g>
<g>
</g>
<g>
</g>
<g>
</g>
<g>
</g>
<g>
</g>
<g>
</g>
<g>
</g>
<g>
</g>
<g>
</g>
<g>
</g>
<g>
</g>
<g>
</g>
<g>
</g>
<g>
</g>
</svg>
