<?xml version="1.0" encoding="iso-8859-1"?>
<!-- Generator: Adobe Illustrator 19.0.0, SVG Export Plug-In . SVG Version: 6.00 Build 0)  -->
<svg version="1.1" id="Layer_1" xmlns="http://www.w3.org/2000/svg" xmlns:xlink="http://www.w3.org/1999/xlink" x="0px" y="0px"
	 viewBox="0 0 471.1 471.1" style="enable-background:new 0 0 471.1 471.1;" xml:space="preserve">
<g transform="translate(0 -540.36)">
	<g>
		<g>
			<polygon points="235.825,1011.46 235.825,1011.46 235.825,1011.46 			"/>
			<path d="M295.725,846.16v-249.8c0-30.9-26.8-56-59.9-56c-33.6,0-60.9,25.1-60.9,56v249.8c-14.9,11.2-25.9,26-32.1,43
				c-6.9,19.1-7,39.2-0.3,58.3c6.3,18.7,18.5,34.7,35.5,46.3c16.9,11.6,36.9,17.7,57.8,17.7c42.3,0,80.7-26.3,93.3-64.2
				C341.225,910.16,327.825,870.26,295.725,846.16z M310.325,941.16c-9.9,29.7-40.5,50.4-74.4,50.4c-33.9,0-64.5-20.7-74.4-50.4
				c-0.1-0.1-0.1-0.1-0.1-0.2c-10.6-29.9,1.1-62.5,29.1-81.2c2.7-1.8,4.4-5,4.4-8.3v-255c0-19.9,18.4-36,40.9-36v0
				c21.6,0,39.9,16.5,40.1,36.1v255c0,3.3,1.6,6.4,4.4,8.3C308.025,878.46,320.125,911.16,310.325,941.16z"/>
			<path d="M245.525,874.36v-277.1c0-5.5-4.5-10-10-10s-10,4.5-10,10v277.1c-21.4,4.6-37.5,23.7-37.5,46.4
				c0,26.2,21.3,47.5,47.5,47.5s47.5-21.3,47.5-47.5C283.025,898.06,266.925,878.96,245.525,874.36z M235.525,948.26
				c-15.2,0-27.5-12.3-27.5-27.5s12.3-27.5,27.5-27.5s27.5,12.3,27.5,27.5S250.725,948.26,235.525,948.26z"/>
		</g>
	</g>
</g>
<g>
</g>
<g>
</g>
<g>
</g>
<g>
</g>
<g>
</g>
<g>
</g>
<g>
</g>
<g>
</g>
<g>
</g>
<g>
</g>
<g>
</g>
<g>
</g>
<g>
</g>
<g>
</g>
<g>
</g>
</svg>
