<?xml version="1.0" encoding="iso-8859-1"?>
<!-- Generator: Adobe Illustrator 19.0.0, SVG Export Plug-In . SVG Version: 6.00 Build 0)  -->
<svg version="1.1" id="Layer_1" xmlns="http://www.w3.org/2000/svg" xmlns:xlink="http://www.w3.org/1999/xlink" x="0px" y="0px"
	 viewBox="0 0 471.1 471.1" style="enable-background:new 0 0 471.1 471.1;" xml:space="preserve">
<g transform="translate(0 -540.36)">
	<g>
		<g>
			<path d="M210.15,876.962v-129.6c0-5.5-4.5-10-10-10s-10,4.5-10,10v129.6c-20,4.6-35,22.5-35,43.9c0,24.8,20.2,45,45,45
				c24.8,0,45-20.2,45-45C245.15,899.462,230.15,881.462,210.15,876.962z M200.15,945.762c-13.8,0-25-11.2-25-25
				c0-13.1,10.1-23.9,22.9-24.9c0.7,0.1,1.4,0.2,2.1,0.2c0.7,0,1.4-0.1,2.1-0.2c12.8,1.1,22.9,11.8,22.9,24.9
				C225.15,934.562,213.95,945.762,200.15,945.762z"/>
			<path d="M256.45,846.36v-250c0-30.9-25.3-56-56.3-56s-56.3,25.1-56.3,56v250c-29.9,23.6-42.3,63.4-31,100.8
				c5.8,18.7,17.2,34.7,33,46.4c15.8,11.7,34.6,17.9,54.3,17.9v0c19.7,0,38.5-6.2,54.3-17.9s27.2-27.7,33-46.5
				C298.75,909.76,286.35,869.96,256.45,846.36z M268.45,941.26c-9.4,30-36.8,50.2-68.3,50.2s-58.9-20.1-68.2-50.1
				c-9.3-30.8,1.8-63.6,27.6-81.7c2.7-1.9,4.3-4.9,4.3-8.2v-255c0-19.5,16.6-36,36.3-36c19.7,0,36.3,16.5,36.3,36v255
				c0,3.3,1.6,6.3,4.3,8.2C266.65,877.66,277.75,910.56,268.45,941.26z"/>
			<path d="M328.75,552.56h-0.1c-3.2,0-6.2,1.6-8.1,4.2c-6,8.4-25.5,36.7-25.5,51.8c0,18.4,15.1,33.4,33.6,33.4
				c18,0,32.7-15,32.7-33.5c0-14.9-18.8-43.3-24.5-51.6C335.05,554.16,332.05,552.56,328.75,552.56z M328.55,622.06
				c-7.6,0-13.6-5.9-13.6-13.4c0-4.3,6.2-16.1,13.5-27.8c7.1,11.7,12.9,23.4,12.8,27.8C341.25,615.96,335.45,622.06,328.55,622.06z"
				/>
			<path d="M418.15,614.16c-1.9-2.7-4.9-4.3-8.2-4.3c-3.3,0-6.3,1.6-8.2,4.3c-6,8.6-25.4,37.6-25.4,52.6c0,17.9,15.1,32.5,33.6,32.5
				s33.6-14.6,33.6-32.5C443.55,651.76,424.15,622.66,418.15,614.16z M409.95,679.26c-7.4,0-13.6-5.7-13.6-12.5
				c0-4.4,6.1-16.5,13.6-28.6c7.4,12,13.6,24.2,13.6,28.6C423.55,673.56,417.35,679.26,409.95,679.26z"/>
			<path d="M95.25,830.16h-57.7c-5.5,0-10,4.5-10,10s4.5,10,10,10h57.7c5.5,0,10-4.5,10-10S100.75,830.16,95.25,830.16z"/>
			<path d="M95.25,691.36h-35c-5.5,0-10,4.5-10,10s4.5,10,10,10h35c5.5,0,10-4.5,10-10S100.75,691.36,95.25,691.36z"/>
			<path d="M95.25,644.56h-57.7c-5.5,0-10,4.5-10,10s4.5,10,10,10h57.7c5.5,0,10-4.5,10-10S100.75,644.56,95.25,644.56z"/>
			<path d="M95.25,598.56h-35c-5.5,0-10,4.5-10,10s4.5,10,10,10h35c5.5,0,10-4.5,10-10S100.75,598.56,95.25,598.56z"/>
			<path d="M95.25,552.56h-57.7c-5.5,0-10,4.5-10,10s4.5,10,10,10h57.7c5.5,0,10-4.5,10-10S100.75,552.56,95.25,552.56z"/>
			<path d="M95.25,783.26h-35c-5.5,0-10,4.5-10,10s4.5,10,10,10h35c5.5,0,10-4.5,10-10S100.75,783.26,95.25,783.26z"/>
			<path d="M95.25,737.36h-57.7c-5.5,0-10,4.5-10,10s4.5,10,10,10h57.7c5.5,0,10-4.5,10-10S100.75,737.36,95.25,737.36z"/>
		</g>
	</g>
</g>
<g>
</g>
<g>
</g>
<g>
</g>
<g>
</g>
<g>
</g>
<g>
</g>
<g>
</g>
<g>
</g>
<g>
</g>
<g>
</g>
<g>
</g>
<g>
</g>
<g>
</g>
<g>
</g>
<g>
</g>
</svg>
