<?xml version="1.0" encoding="iso-8859-1"?>
<!-- Generator: Adobe Illustrator 19.0.0, SVG Export Plug-In . SVG Version: 6.00 Build 0)  -->
<svg version="1.1" id="Layer_1" xmlns="http://www.w3.org/2000/svg" xmlns:xlink="http://www.w3.org/1999/xlink" x="0px" y="0px"
	 viewBox="0 0 482 482" style="enable-background:new 0 0 482 482;" xml:space="preserve">
<g transform="translate(0 -540.36)">
	<g>
		<g>
			<path d="M311.5,644.26c-18.9-18.7-44.1-29-70.9-29c-26.8,0-51.9,10.3-70.6,29c-18.7,18.8-29,43.8-29,70.6c0,26.8,10.3,52,29,70.9
				c18.8,19,43.8,29.5,70.6,29.5c55.4,0,100.4-45.1,100.4-100.4C341,688.06,330.5,663.06,311.5,644.26z M240.6,795.26
				c-43.9,0-79.6-36.1-79.6-80.4c0-44.6,35-79.6,79.6-79.6c44.3,0,80.4,35.7,80.4,79.6C321,759.16,284.9,795.26,240.6,795.26z"/>
			<path d="M338.1,806.96c-3.9-3.8-10.2-3.8-14.1,0.2c-3.8,3.9-3.8,10.2,0.2,14.1l22.9,22.3c2,1.9,4.5,2.8,7,2.8c2.6,0,5.2-1,7.1-3
				c3.8-3.9,3.8-10.2-0.2-14.1L338.1,806.96z"/>
			<path d="M143.8,806.96l-22.9,22.3c-4,3.8-4.1,10.1-0.2,14.1c2,2,4.6,3,7.2,3c2.5,0,5-1,6.9-2.8l22.9-22.3
				c4-3.8,4.1-10.1,0.2-14.1C154.1,803.16,147.8,803.06,143.8,806.96z"/>
			<path d="M241,592.56c5.5,0,10-4.4,10-10v-32.2c0-5.5-4.5-10-10-10s-10,4.5-10,10v32.2C231,588.06,235.5,592.56,241,592.56z"/>
			<path d="M347.2,586.86l-22.9,21.5c-4,3.7-4.2,10.1-0.4,14.1c2,2.1,4.6,3.2,7.3,3.2h0c2.5,0,4.9-0.9,6.8-2.8l22.9-21.5
				c4-3.7,4.2-10.1,0.4-14.1C357.6,583.26,351.2,583.06,347.2,586.86z"/>
			<path d="M144,622.96c1.9,1.8,4.3,2.7,6.8,2.7v0c2.6,0,5.3-1.1,7.3-3.1c3.8-4,3.6-10.3-0.4-14.1l-22.9-21.5
				c-4-3.8-10.3-3.6-14.1,0.4s-3.6,10.3,0.4,14.1L144,622.96z"/>
			<path d="M410,704.86h-33c-5.5,0-10,4.5-10,10s4.5,10,10,10h33c5.5,0,10-4.5,10-10S415.5,704.86,410,704.86z"/>
			<path d="M105,704.86H72c-5.5,0-10,4.5-10,10s4.5,10,10,10h33c5.6,0,10-4.5,10-10S110.5,704.86,105,704.86z"/>
			<path d="M277.9,915.06l-53.5,14.6l42.5-65.6c3-4.6,1.6-10.8-3-13.8s-10.8-1.6-13.8,3l-56.8,87.6c-2.3,3.4-2.1,8,0.3,11.3
				c2.4,3.3,6.7,4.8,10.7,3.7l53.8-14.7l-42,65.8c-3,4.6-1.7,10.8,3,13.8c1.7,1.1,3.6,1.6,5.4,1.6c3.3,0,6.5-1.6,8.6-4.7l55.9-87.6
				c2.2-3.5,2.1-8-0.4-11.3S281.9,913.96,277.9,915.06z"/>
		</g>
	</g>
</g>
<g>
</g>
<g>
</g>
<g>
</g>
<g>
</g>
<g>
</g>
<g>
</g>
<g>
</g>
<g>
</g>
<g>
</g>
<g>
</g>
<g>
</g>
<g>
</g>
<g>
</g>
<g>
</g>
<g>
</g>
</svg>
