<?xml version="1.0" encoding="iso-8859-1"?>
<!-- Generator: Adobe Illustrator 19.0.0, SVG Export Plug-In . SVG Version: 6.00 Build 0)  -->
<svg version="1.1" id="Layer_1" xmlns="http://www.w3.org/2000/svg" xmlns:xlink="http://www.w3.org/1999/xlink" x="0px" y="0px"
	 viewBox="0 0 488.919 488.919" style="enable-background:new 0 0 488.919 488.919;" xml:space="preserve">
<g>
	<g>
		<path d="M486.508,140.02L486.508,140.02c-2.3-3.2-6.2-4.7-10-3.9c-3.3,0.7-7,0.7-10.9,0.7c-45,0-81.6-36.6-81.6-81.5
			c0-14.2,3.6-27.8,10.7-40.4c1.9-3.3,1.7-7.4-0.5-10.6c-2.2-3.1-5.9-4.8-9.7-4.2c-24.3,3.7-46.5,15.8-62.5,34.2
			c-12.9,14.9-21.2,33.1-23.9,52.5c-1.7-0.6-3.5-1.2-5.2-1.7h-0.1c-30.1-8.5-62.2-6.1-90.6,6.7c-20.9,9.5-38.8,24.3-52,42.7
			c-18-7.7-37.7-10.4-57.3-7.7c-21.7,3-41.7,12.4-57.9,27.2c-16.2,14.8-27.3,33.9-32,55.3c-4.7,21.3-2.8,43.3,5.5,63.7
			c7.9,19.9,21.8,36.8,40.1,48.8c18.2,11.9,39.5,18.2,61.7,18.2h74.3l-46.7,64.7c-2.4,3.3-2.5,7.7-0.4,11.1
			c2.1,3.4,6.1,5.3,10.1,4.6l44.9-7.3l-42.7,60.1c-3.2,4.5-2.1,10.7,2.4,13.9c1.8,1.2,3.8,1.8,5.8,1.8c3.1,0,6.2-1.5,8.2-4.2
			l56.5-79.6c2.3-3.3,2.5-7.7,0.3-11.1c-2.1-3.4-6.1-5.2-10.1-4.6l-44.7,7.3l41-56.8h46.7c31,0,61-11.2,84.7-31.6
			c23.6-20.4,39.3-48.6,44.2-79.5v-0.1c1.3-8.8,1.6-17.7,1.1-26.6c4.1,0.5,8.4,0.9,13,0.9c37.1,0,70.1-19.5,88.4-52.2
			C489.008,147.32,488.808,143.12,486.508,140.02z M364.908,225.62c-8.7,54.6-54.6,94.2-109.1,94.2h-145.6
			c-37.4,0-70.1-21.4-83.2-54.4v-0.1c-13.9-34.1-5.5-72,21.5-96.6c16.5-15.1,37.9-23,59.5-23c10.8,0,21.5,2,31.8,6
			c-0.6,1.2-1.2,2.5-1.8,3.7c-2.3,5-0.1,11,4.9,13.3s11,0.1,13.3-4.9c22.8-49.6,78-74.6,131.1-59.6
			C339.308,119.719,372.708,171.92,364.908,225.62z M398.808,182.92L398.808,182.92c-5.6,0-11.1-0.7-15.9-1.6
			c-3.3-14.7-9.1-28.8-17.3-41.6c-12.1-18.9-28.7-34.2-48.2-44.7c2.1-31.7,22.2-58.6,51.2-70.2c-3.1,9.8-4.6,19.9-4.6,30.4
			c0,53.6,41.9,97.7,94.6,101.3C443.408,173.32,422.108,182.92,398.808,182.92z"/>
	</g>
</g>
<g>
</g>
<g>
</g>
<g>
</g>
<g>
</g>
<g>
</g>
<g>
</g>
<g>
</g>
<g>
</g>
<g>
</g>
<g>
</g>
<g>
</g>
<g>
</g>
<g>
</g>
<g>
</g>
<g>
</g>
</svg>
