<?xml version="1.0" encoding="iso-8859-1"?>
<!-- Generator: Adobe Illustrator 19.0.0, SVG Export Plug-In . SVG Version: 6.00 Build 0)  -->
<svg version="1.1" id="Layer_1" xmlns="http://www.w3.org/2000/svg" xmlns:xlink="http://www.w3.org/1999/xlink" x="0px" y="0px"
	 viewBox="0 0 488.035 488.035" style="enable-background:new 0 0 488.035 488.035;" xml:space="preserve">
<g transform="translate(0 -540.36)">
	<g>
		<g>
			<path d="M374.248,754.495c-70.8,26.6-148.3,26.5-230.1-0.1c-5.3-1.7-10.9,1.1-12.6,6.4c-1.7,5.2,1.1,10.9,6.4,12.6
				c43.1,14,85,21,125.6,21c40.7,0,80.1-7.1,117.7-21.1c5.2-2,7.8-7.7,5.9-12.9C385.148,755.195,379.448,752.595,374.248,754.495z"
				/>
			<path d="M303.148,805.295c-67.4,19.4-155.6,4.7-181-0.2c-5.4-1.1-10.6,2.5-11.7,7.9s2.5,10.6,7.9,11.7
				c16.4,3.2,58.1,10.3,104.5,10.3c28.4,0,58.5-2.7,85.9-10.5c5.3-1.6,8.3-7.1,6.8-12.4
				C313.948,806.795,308.448,803.795,303.148,805.295z"/>
			<path d="M195.348,885.795c26.3,0,51.9-3.2,71.7-9.5c5.3-1.7,8.2-7.3,6.5-12.6s-7.3-8.2-12.6-6.5c-36.6,11.8-97.2,11.4-138-0.8
				c-5.2-1.6-10.8,1.4-12.4,6.7c-1.6,5.2,1.4,10.8,6.7,12.4C140.148,882.395,168.048,885.795,195.348,885.795L195.348,885.795z"/>
			<path d="M272.448,906.495c-64.2,15.8-82.4,10.6-112.4,1.9c-2-0.6-4.1-1.2-6.2-1.8c-5.4-1.5-10.9,1.6-12.4,6.9
				c-1.5,5.4,1.6,10.9,6.9,12.4c2.2,0.6,4.2,1.2,6.2,1.8c17.4,5,31.6,9.1,51.9,9.1v0c17.2,0,39-3,70.8-10.9
				c5.3-1.3,8.6-6.7,7.3-12.1C283.248,908.495,277.848,905.195,272.448,906.495z"/>
			<path d="M259.748,958.695c-25.3,15.1-58.5,7.4-84.7-0.9c-5.3-1.7-10.9,1.2-12.6,6.5s1.2,10.9,6.5,12.6
				c17,5.4,36.7,10.5,56.4,10.5v0c15.3,0,30.6-3.1,44.6-11.5c4.8-2.8,6.3-9,3.5-13.7
				C270.648,957.395,264.448,955.895,259.748,958.695z"/>
			<path d="M249.348,1008.395h-41.8c-5.5,0-10,4.5-10,10s4.5,10,10,10h41.8c5.5,0,10-4.5,10-10S254.848,1008.395,249.348,1008.395z"
				/>
			<path d="M382.148,581.895c-8-17.8-22.5-31.5-40.5-37.9c-0.3-0.1-0.5-0.1-0.7-0.2c-6.3-1.8-11.8-2.6-16.8-3.3
				c-0.3-0.1-0.7-0.1-1-0.1c-22.7-0.8-46.5,12-60.2,31.8c-7.8-2-15.1-2.6-22.1-1.9c-9-18-28.2-29.9-49.5-29.9
				c-21.8,0-41.5,12.9-50.3,31.8c-5.8-1.4-11.7-2.1-17.8-2.1c-7,0-12.9,1.1-19.1,3.7c-30.6,10.8-49.5,42.5-45,75.5
				c0.1,0.1,0.1,0.3,0.1,0.4c5.2,29,26.8,51.1,54.5,56.3c10.1,12.2,29.5,19.8,51.3,19.8c8,0,15.8-1,23.8-3
				c11,6.7,25.7,10.6,40.4,10.6l0,0c21.3,0,40.4-7,50.9-18.4c2.2,0.1,4.3,0.1,6.4,0.1c6.5,0,12.4-0.6,18.4-1.8
				c9.4,3.6,20.3,5.6,31.1,5.6c19,0,37.1-6.3,48-16.6c27.3-10.1,45.5-33.9,45.5-59.7
				C429.548,615.895,410.648,591.995,382.148,581.895z M375.248,684.195c-1.6,0.6-3,1.5-4.1,2.7c-6.8,7.4-20.6,12.1-35.2,12.1
				c-9.2,0-18.7-1.9-26.1-5.2c-2.1-0.9-4.3-1.1-6.5-0.6c-5.5,1.4-10.9,2-16.9,2c-3.6,0-6,0-8.9-0.6c-4.1-0.8-8.3,1-10.5,4.6
				c-4.3,7.1-18.7,14.3-37.9,14.3c-12.1,0-24.9-3.7-32.7-9.5c-1.7-1.3-3.8-2-5.9-2c-0.9,0-1.9,0.1-2.8,0.4
				c-7.7,2.3-15.2,3.4-22.7,3.4c-18.7,0-32.8-7.2-37.1-14.3c-1.6-2.6-4.4-4.3-7.4-4.7c-20.9-2.5-37.6-18.7-41.6-40.4
				c-3.1-23.6,10.3-46.2,32.1-53.8c0.2,0,0.4-0.1,0.6-0.2c3.9-1.7,7.1-2.3,11.6-2.3c7.1,0,13.6,1.3,20.3,3.9
				c2.7,1.1,5.7,0.9,8.3-0.4c2.6-1.4,4.4-3.8,5.1-6.6c3.6-15.4,18.1-26.6,34.4-26.6c15.7,0,29.5,9.9,33.5,24.1
				c1.6,5.3,7,8.3,12.3,6.8c7.8-2.2,16.2-1.5,26.5,2.1c3.6,1.3,7.6,0.4,10.3-2.3l0.8-0.8c0.7-0.7,1.3-1.4,1.8-2.3
				c9.1-16.7,27.7-28,45.3-27.6c5.1,0.7,9,1.4,13.3,2.6c13.8,5,24.7,16.1,30,30.5c1.1,2.9,3.6,5.2,6.6,6.1
				c22.6,6.5,37.7,23.8,37.7,43C409.448,660.595,395.748,677.295,375.248,684.195z"/>
			<polygon points="190.548,701.995 190.548,701.995 190.548,701.995 			"/>
		</g>
	</g>
</g>
<g>
</g>
<g>
</g>
<g>
</g>
<g>
</g>
<g>
</g>
<g>
</g>
<g>
</g>
<g>
</g>
<g>
</g>
<g>
</g>
<g>
</g>
<g>
</g>
<g>
</g>
<g>
</g>
<g>
</g>
</svg>
