<?xml version="1.0" encoding="iso-8859-1"?>
<!-- Generator: Adobe Illustrator 19.0.0, SVG Export Plug-In . SVG Version: 6.00 Build 0)  -->
<svg version="1.1" id="Layer_1" xmlns="http://www.w3.org/2000/svg" xmlns:xlink="http://www.w3.org/1999/xlink" x="0px" y="0px"
	 viewBox="0 0 488.01 488.01" style="enable-background:new 0 0 488.01 488.01;" xml:space="preserve">
<g transform="translate(0 -540.36)">
	<g>
		<g>
			<path d="M485.098,762.015l-30.5-30.8c-1.9-1.9-4.4-3-7.1-3s-5.2,1.1-7.1,3l-30.5,30.8c-3.9,3.9-3.9,10.3,0.1,14.1
				c3.9,3.9,10.3,3.9,14.1-0.1l13.4-13.5v88.7c0,5.5,4.5,10,10,10s10-4.5,10-10v-88.7l13.4,13.5c2,2,4.5,3,7.1,3c2.5,0,5.1-1,7-2.9
				C488.998,772.215,488.998,765.915,485.098,762.015z"/>
			<path d="M396.098,975.615L396.098,975.615c-61.6-35.7-101.2-98.7-106.7-169.5c25.6-8.8,45.7-31.8,58.9-51.5
				c25.9-38.4,22.5-145.2,22.3-149.7c-0.2-4.3-3.1-8-7.2-9.3c-3-0.9-73.6-21.2-124.8-21.2c-0.1,0-0.1,0-0.2,0l-4.6,0.1
				c-39.2,0.7-98.5,1.9-136.3,31.2l-0.1,0.1c-31.3,25.1-56.8,56.6-73.5,90.9c-16.7,34.3-24.9,71.7-23.8,108.2
				c2.2,73.2,40.7,139.8,108.4,187.6c1.7,1.2,3.7,1.8,5.8,1.8h60.2h132.6h83.8c4.5,0,8.5-3,9.7-7.4
				C401.898,982.515,399.998,977.915,396.098,975.615z M308.298,974.015v0.3c-21.1-4.4-39.2-17.3-49.6-35.7
				c-11-19.4-13.5-42.6-6.8-63.5c1.7-5.3-1.2-10.9-6.5-12.6c-5.3-1.7-10.9,1.2-12.6,6.5c-8.4,26.2-5.3,55.2,8.4,79.5
				c5.6,10,13,18.7,21.7,25.8h-24.5c-0.6-0.3-1.3-0.5-2-0.6c-29-5.3-49.7-30.8-49-60.7c0.1-5.5-4.3-10.1-9.8-10.2
				c-5.5-0.1-10.1,4.3-10.2,9.8c-0.4,19.1,6,37.7,18,52.5c2.7,3.3,5.6,6.4,8.7,9.2h-18.9c-24.5-4.3-45.5-21.5-54.9-45.2
				c-9.3-23.3-5.3-51.5,10.1-71.7c3.3-4.4,2.5-10.7-1.9-14c-4.4-3.3-10.7-2.5-14,1.9c-19.8,26.1-24.7,61.1-12.8,91.2
				c5.9,15,15.5,27.9,27.5,37.8h-12c-60.8-43.9-95.4-104.2-97.4-170c-1.8-68.7,30.9-135.3,90-182.7c32.5-25.2,87.8-26.3,124.3-27
				l4.5-0.1c39.3,0,93.1,13.4,112.1,18.4c0,2.8,0.1,5.8,0.1,9.1c-15.4,17.8-43.6,43.8-60.2,44.7h-0.1c-7.8,0.5-15.7-6.6-24-14.2
				c-10.1-9.2-21.6-19.6-37.1-19.6c-15.2,0-26.7,10.4-36.9,19.5c-8.3,7.5-16.2,14.5-23.7,14.3c-0.1,0-0.2,0-0.3,0
				c-6.3,0-12.7-6.2-19.5-12.8c-8.7-8.4-18.5-18-32.4-18c-5.5,0-10,4.5-10,10s4.5,10,10,10c5.8,0,11.9,6,18.4,12.3
				c8.9,8.6,18.9,18.3,33.2,18.4c15.5,0.4,27.2-10.1,37.6-19.4c8.3-7.4,16.1-14.4,23.6-14.4c7.8,0,15.5,7,23.7,14.4
				c10.1,9.1,21.4,19.4,36.6,19.4c0.7,0,1.4,0,2.1-0.1c19.6-1.1,42.6-19.7,58.3-34.9c-0.5,10.5-1.3,21.5-2.5,32.3
				c-13.5,13.3-48.6,43.6-69.6,44.1c-8.4,0.3-16.7-6.9-25.4-14.4c-10.5-9.1-22.5-19.4-38.3-19.4c-15.9,0-27.9,10.3-38.5,19.3
				c-8.8,7.5-17,14.5-25.5,14.5c-15,0-43.3-19.3-57.6-31.4c-4.2-3.6-10.5-3.1-14.1,1.1c-3.6,4.2-3.1,10.5,1.1,14.1
				c4.3,3.7,43.2,36.2,70.5,36.2c15.9,0,27.9-10.3,38.5-19.3c8.8-7.5,17-14.5,25.5-14.5c8.4,0,16.6,7.1,25.2,14.5
				c10.5,9.1,22.4,19.3,38,19.3c0.4,0,0.7,0,1.1,0c20.7-0.5,46.2-18,63.8-32.6c-2.7,11.4-6.2,21.1-10.6,27.8
				c-11.2,16.7-34.1,44.9-61.6,46.3h-0.1c-7.3,0.5-15.2-6.6-23.5-14.1c-10.3-9.3-22-19.8-37.6-19.8c-15.2,0-26.7,10.4-36.9,19.5
				c-8.3,7.5-16.2,14.6-23.7,14.3c-0.1,0-0.2,0-0.3,0c-5.9,0-12.3-6.1-19-12.6c-8.9-8.5-18.9-18.2-32.9-18.2c-0.2,0-0.4,0-0.6,0
				c-15.4,1-33.7,20.1-37.2,24c-3.7,4.1-3.5,10.4,0.6,14.1c4.1,3.7,10.4,3.5,14.1-0.6c7.2-7.9,18.5-16.9,23.5-17.5
				c5.8,0.2,12,6.2,18.7,12.6c8.8,8.5,18.8,18.1,32.7,18.2c15.5,0.5,27.2-10.1,37.6-19.4c8.3-7.4,16.1-14.4,23.6-14.4
				c7.9,0,15.8,7.1,24.2,14.7c10.2,9.1,21.6,19.4,36.6,19.2c5.7,65.3,38,124.5,88.9,164.5H308.298z"/>
		</g>
	</g>
</g>
<g>
</g>
<g>
</g>
<g>
</g>
<g>
</g>
<g>
</g>
<g>
</g>
<g>
</g>
<g>
</g>
<g>
</g>
<g>
</g>
<g>
</g>
<g>
</g>
<g>
</g>
<g>
</g>
<g>
</g>
</svg>
