<?xml version="1.0" encoding="iso-8859-1"?>
<!-- Generator: Adobe Illustrator 19.0.0, SVG Export Plug-In . SVG Version: 6.00 Build 0)  -->
<svg version="1.1" id="Layer_1" xmlns="http://www.w3.org/2000/svg" xmlns:xlink="http://www.w3.org/1999/xlink" x="0px" y="0px"
	 viewBox="0 0 488.025 488.025" style="enable-background:new 0 0 488.025 488.025;" xml:space="preserve">
<g transform="translate(0 -540.36)">
	<g>
		<g>
			<path d="M454.5,829.122l-30.5-30.9c-1.9-1.9-4.4-3-7.1-3s-5.2,1.1-7.1,3l-20.6,20.8c-3.9,3.9-3.8,10.2,0.1,14.1
				c3.9,3.9,10.2,3.8,14.1-0.1l13.5-13.7l16.5,16.7l-20.6,20.9H131.4c-2.7,0-5.2,1.1-7.1,3l-30.5,30.9c-3.9,3.9-3.9,10.2,0,14.1
				l30.5,30.9c1.9,1.9,4.4,3,7.1,3h240.1l10.6,10.7l-13.4,13c-4,3.8-4.1,10.1-0.2,14.1c2,2,4.6,3,7.2,3v0c2.5,0,5-1,7-2.6l20.6-20.1
				c1.9-1.9,3-4.4,3-7.1c0-2.6-1-5.2-2.9-7.1l-20.6-20.8c-1.9-1.9-4.4-3-7.1-3H135.6l-20.6-20.9l20.6-20.9h281.3
				c2.7,0,5.2-1.1,7.1-3l30.5-30.9C458.4,839.323,458.4,833.023,454.5,829.122z"/>
			<path d="M485.1,890.823l-20.6-20.8c-3.8-4-10.2-4-14.1-0.1c-3.9,3.8-4,10.2-0.1,14.1l13.7,13.8l-13.7,13.8
				c-3.9,3.9-3.8,10.2,0.1,14.1c1.9,1.9,4.5,2.9,7,2.9c2.6,0,5.1-1,7.1-2.9l20.6-20.8C489,901.023,489,894.723,485.1,890.823z"/>
			<path d="M253.6,836.023c67.4,0,122.2-55.4,122.2-123.5s-54.9-123.4-122.3-123.4c-44.6,0-85.8,25.4-107.3,65.5
				c-8.2-2.4-16.7-3.8-24.7-3.8c-50.6,0-91.7,41.5-91.7,92.6c0,7.2,0.8,14.2,2.3,20.9H10c-5.5,0-10,4.5-10,10s4.5,10,10,10h29.2
				c15,30.6,46.2,51.7,82.3,51.7H253.6z M62.3,784.323h49.3c2.7,0,5.2-1.1,7.1-3l30.5-30.9c3.9-3.9,3.9-10.2,0-14.1l-30.5-30.9
				c-1.9-1.9-4.4-3-7.1-3c-2.7,0-5.2,1.1-7.1,3l-20.7,20.9c-3.9,3.9-3.8,10.3,0.1,14.1c3.9,3.9,10.3,3.8,14.1-0.1l13.5-13.7
				l16.5,16.7l-20.6,20.9H52.8c-2-6.6-3-13.6-3-20.9c0-40,32.2-72.6,71.7-72.6c8.3,0,17.8,2,25.9,5.4c5,2.1,10.8-0.2,13-5.1
				c16.9-37.7,53.4-62,93.2-62c56.4,0,102.2,46.4,102.2,103.5s-45.9,103.5-102.3,103.5v0h-132
				C96.9,816.023,75.2,803.423,62.3,784.323z"/>
		</g>
	</g>
</g>
<g>
</g>
<g>
</g>
<g>
</g>
<g>
</g>
<g>
</g>
<g>
</g>
<g>
</g>
<g>
</g>
<g>
</g>
<g>
</g>
<g>
</g>
<g>
</g>
<g>
</g>
<g>
</g>
<g>
</g>
</svg>
