<?xml version="1.0" encoding="iso-8859-1"?>
<!-- Generator: Adobe Illustrator 19.0.0, SVG Export Plug-In . SVG Version: 6.00 Build 0)  -->
<svg version="1.1" id="Layer_1" xmlns="http://www.w3.org/2000/svg" xmlns:xlink="http://www.w3.org/1999/xlink" x="0px" y="0px"
	 viewBox="0 0 488.025 488.025" style="enable-background:new 0 0 488.025 488.025;" xml:space="preserve">
<g transform="translate(0 -540.36)">
	<g>
		<g>
			<path d="M454.625,869.572l-30.5-30.6c-3.8-3.8-10.1-3.9-14-0.1l-20.6,19.9c-3.9,3.8-4,10.1-0.2,14.1c3.8,3.9,10.1,4,14.1,0.2
				l13.5-13l16.5,16.5l-20.5,20.6h-280.9c-2.7,0-5.2,1-7.1,2.9l-30.5,30.6c-3.9,3.9-3.9,10.2,0,14.1l30.5,30.6
				c1.9,1.8,4.4,2.9,7.1,2.9h239.8l10.4,10l-13.4,13.4c-3.9,3.9-3.9,10.2,0,14.1c2,1.9,4.5,2.9,7.1,2.9l0,0c2.5,0,5.1-1,7.1-2.7
				l20.6-20.6c1.9-1.9,2.9-4.5,2.9-7.2c-0.1-2.7-1.2-5.2-3.1-7.1l-20.6-19.9c-1.8-1.8-4.3-2.8-6.9-2.8h-239.8l-20.5-20.6l20.5-20.6
				h280.9c2.7,0,5.2-1,7.1-2.9l30.5-30.6C458.525,879.772,458.525,873.472,454.625,869.572z"/>
			<path d="M464.525,909.973c-3.9-3.9-10.2-3.9-14.1,0c-3.9,3.9-3.9,10.2,0,14.1l13.4,13.4l-13.3,12.8c-4,3.8-4.1,10.1-0.3,14.1
				c2,2.1,4.6,3.1,7.2,3.1l0,0c2.5,0,5-1,6.9-2.7l20.6-19.9c2-1.9,3.1-4.4,3.1-7.1s-1-5.3-2.9-7.2L464.525,909.973z"/>
			<path d="M141.925,998.672h-97.2l-20.5-20.6l16.4-16.4l13.5,13.5c3.9,3.9,10.2,3.9,14.1,0c3.9-3.9,3.9-10.2,0-14.1l-20.6-20.6
				c-1.9-1.8-4.4-2.9-7.1-2.9s-5.2,1-7.1,2.9l-30.5,30.6c-3.9,3.9-3.9,10.2,0,14.1l30.5,30.6c1.9,1.8,4.4,2.9,7.1,2.9h101.4
				c5.5,0,10-4.5,10-10S147.425,998.672,141.925,998.672z"/>
			<polygon points="396.425,611.272 396.425,611.272 396.425,611.272 			"/>
			<path d="M122.025,865.872h131.9c43.2,0,79.5-30.1,89.1-70.5l53.5-0.5c50.5,0,91.5-41.2,91.5-91.8c0-50.7-41.1-91.8-91.6-91.8
				c-8,0-16.6,1.3-24.7,3.7c-21.5-39.7-62.6-64.9-107.1-64.9c-50.6,0-95.1,30-113.3,75.4c-9.4-2.3-19.3-3.5-29.3-3.5
				c-67.3,0-122,54.5-122,121.6C0.025,810.972,54.825,865.872,122.025,865.872z M264.525,570.072c39.7,0,76.2,24.1,93,61.4
				c2.2,4.9,8,7.2,13,5.1c8.1-3.4,17.6-5.3,25.9-5.3c39.5,0,71.6,32.2,71.6,71.8s-32.1,71.7-71.6,71.7v0h-0.1l-50.9,0.5
				c0-0.4,0-0.8,0-1.2c0-24.4-9.5-47.4-26.9-64.5c-17.3-17.1-40.2-26.5-64.7-26.5c-8.6,0-16.7,1-24.5,3.1
				c-13-24.6-34-43.6-59.1-54.4C185.625,594.572,222.525,570.072,264.525,570.072z M122.025,641.872c40.6,0,77.1,23.7,93,60.4
				c2.1,4.9,7.8,7.3,12.8,5.4c8.2-3.1,16.7-4.7,26.1-4.7c39.5,0,71.6,31.8,71.6,71c0,39.7-32.1,71.8-71.6,71.8v0h-131.9
				c-56.3,0-102-45.9-102-102.3C20.025,687.472,65.825,641.872,122.025,641.872z"/>
		</g>
	</g>
</g>
<g>
</g>
<g>
</g>
<g>
</g>
<g>
</g>
<g>
</g>
<g>
</g>
<g>
</g>
<g>
</g>
<g>
</g>
<g>
</g>
<g>
</g>
<g>
</g>
<g>
</g>
<g>
</g>
<g>
</g>
</svg>
