<?xml version="1.0" encoding="iso-8859-1"?>
<!-- Generator: Adobe Illustrator 19.0.0, SVG Export Plug-In . SVG Version: 6.00 Build 0)  -->
<svg version="1.1" id="Layer_1" xmlns="http://www.w3.org/2000/svg" xmlns:xlink="http://www.w3.org/1999/xlink" x="0px" y="0px"
	 viewBox="0 0 488.02 488.02" style="enable-background:new 0 0 488.02 488.02;" xml:space="preserve">
<g transform="translate(0 -540.36)">
	<g>
		<g>
			<path d="M112.16,849.979h131.9c67.3,0,122-54.4,122-121.3c0-1.8,0-3.6-0.1-5.4c1.6,0.1,3.4,0.2,5.4,0.2c33.4,0,63.2-17.6,79.6-47
				c1.9-3.4,1.7-7.6-0.6-10.8s-6.2-4.7-10-3.9c-2.8,0.6-6.1,0.6-9.5,0.6c-39.5,0-71.6-32.1-71.6-71.6c0-12.5,3.2-24.4,9.4-35.5
				c1.9-3.3,1.7-7.5-0.5-10.6s-6-4.8-9.8-4.2c-39.3,6.3-69.4,35.2-76.7,72.1c-11.8-3.8-24.5-5.9-37.6-5.9
				c-45.6,0-86.7,25.1-107.4,64.7c-8.5-2.5-16.6-3.8-24.5-3.8c-50.5,0-91.6,41.1-91.6,91.6c0,24.4,9.5,47.3,26.9,64.4
				C64.76,840.579,87.66,849.979,112.16,849.979z M342.66,565.779c-2.3,8.1-3.5,16.5-3.5,25c0,47.6,36.5,86.8,83,91.2
				c-13.1,13.7-31.2,21.5-50.8,21.5v0c-3.6,0-5.6-0.2-8.1-0.8c-7.8-35.7-31.2-65.6-62.7-82.1
				C303.86,596.179,319.96,575.679,342.66,565.779z M112.16,687.579c8.1,0,16.6,1.8,26.1,5.4c5,1.9,10.7-0.5,12.8-5.4
				c15.8-37.1,52.3-61,92.9-61c56.3,0,102,45.8,102,102c0.1,56-45.6,101.4-101.9,101.4l0,0h-131.9c-39.5,0-71.6-31.8-71.6-70.8
				C40.56,719.679,72.66,687.579,112.16,687.579z"/>
			<path d="M454.76,868.78l-30.5-30.5c-3.9-3.9-10.2-3.9-14.1,0l-20.6,20.6c-3.9,3.9-3.9,10.2,0,14.1c3.9,3.9,10.2,3.9,14.1,0
				l13.5-13.5l16.3,16.3l-20.5,20.5h-280.9c-2.7,0-5.2,1-7.1,2.9l-30.5,30.5c-1.8,1.9-2.9,4.4-2.9,7.1c0,2.7,1,5.2,2.9,7.1
				l30.5,30.5c1.9,1.8,4.4,2.9,7.1,2.9h239.8l10.4,10.4l-13.2,12.8c-4,3.8-4.1,10.1-0.3,14.1c2,2.1,4.6,3.1,7.2,3.1v0
				c2.5,0,5-0.9,6.9-2.8l20.6-19.8c2-1.9,3.1-4.4,3.1-7.1c0.1-2.7-1-5.3-2.9-7.2l-20.6-20.6c-1.9-1.8-4.4-2.9-7.1-2.9h-239.8
				l-20.5-20.5l20.5-20.5h281c2.7,0,5.2-1,7.1-2.9l30.5-30.5C458.66,878.98,458.66,872.68,454.76,868.78z"/>
			<path d="M485.06,929.879l-20.6-20.6c-3.9-3.9-10.2-3.9-14.1,0c-3.9,3.9-3.9,10.2,0,14.1l13.5,13.5l-13.5,13.5
				c-3.9,3.9-3.9,10.2,0,14.1c2,1.9,4.5,2.9,7.1,2.9v0c2.6,0,5.1-1,7-2.7l20.6-20.6c1.8-1.9,2.9-4.4,2.9-7.1
				C487.96,934.279,486.96,931.779,485.06,929.879z"/>
			<path d="M141.96,1008.38h-97.2l-20.5-20.5l16.5-16.5l13.5,13c3.9,3.8,10.3,3.7,14.1-0.3c3.8-3.9,3.7-10.3-0.3-14.1l-20.6-19.8
				c-3.9-3.8-10.1-3.8-14,0.1l-30.5,30.5c-1.8,1.9-2.9,4.4-2.9,7.1c0,2.7,1,5.2,2.9,7.1l30.5,30.5c1.9,1.8,4.4,2.9,7.1,2.9h101.4
				c5.5,0,10-4.5,10-10S147.46,1008.38,141.96,1008.38z"/>
		</g>
	</g>
</g>
<g>
</g>
<g>
</g>
<g>
</g>
<g>
</g>
<g>
</g>
<g>
</g>
<g>
</g>
<g>
</g>
<g>
</g>
<g>
</g>
<g>
</g>
<g>
</g>
<g>
</g>
<g>
</g>
<g>
</g>
</svg>
