<?xml version="1.0" encoding="iso-8859-1"?>
<!-- Generator: Adobe Illustrator 19.0.0, SVG Export Plug-In . SVG Version: 6.00 Build 0)  -->
<svg version="1.1" id="Layer_1" xmlns="http://www.w3.org/2000/svg" xmlns:xlink="http://www.w3.org/1999/xlink" x="0px" y="0px"
	 viewBox="0 0 488.1 488.1" style="enable-background:new 0 0 488.1 488.1;" xml:space="preserve">
<g>
	<g>
		<path d="M453.25,275.1L453.25,275.1l-158.9-78.8c-2.9-21.7-19.3-39.2-40.3-43.4V10c0-5.5-4.5-10-10-10s-10,4.5-10,10v142.9
			c-21.1,4.3-37.5,21.7-40.3,43.4l-158.9,78.8c-4.9,2.5-7,8.5-4.5,13.4c1.7,3.5,5.3,5.6,9,5.6c1.5,0,3-0.3,4.4-1l151.7-75.2
			c1.7,5.6,4.4,10.8,7.8,15.4l-30,234.8h-72.4c-5.5,0-10,4.5-10,10s4.5,10,10,10h286.3c5.5,0,10-4.5,10-10s-4.5-10-10-10h-72.4
			l-30-234.8c3.4-4.6,6.1-9.8,7.8-15.4l151.8,75.1c1.4,0.7,2.9,1,4.4,1c3.7,0,7.2-2,9-5.6C460.25,283.6,458.15,277.6,453.25,275.1z
			 M244.05,171.9c17,0,30.8,14,30.8,31.2c0,16.5-14.1,30.5-30.8,30.5s-30.8-14-30.8-30.5C213.25,185.9,227.05,171.9,244.05,171.9z
			 M294.65,468h-101.2l28-219.7c6.8,3.4,14.5,5.3,22.6,5.3c8.1,0,15.8-1.9,22.6-5.3L294.65,468z"/>
	</g>
</g>
<g>
</g>
<g>
</g>
<g>
</g>
<g>
</g>
<g>
</g>
<g>
</g>
<g>
</g>
<g>
</g>
<g>
</g>
<g>
</g>
<g>
</g>
<g>
</g>
<g>
</g>
<g>
</g>
<g>
</g>
</svg>
