<?xml version="1.0" encoding="iso-8859-1"?>
<!-- Generator: Adobe Illustrator 19.0.0, SVG Export Plug-In . SVG Version: 6.00 Build 0)  -->
<svg version="1.1" id="Capa_1" xmlns="http://www.w3.org/2000/svg" xmlns:xlink="http://www.w3.org/1999/xlink" x="0px" y="0px"
	 viewBox="0 0 320.192 320.192" style="enable-background:new 0 0 320.192 320.192;" xml:space="preserve">
<g>
	<g id="Dibujo_69_">
		<g>
			<path d="M167.907,160.576c-0.513-0.513-1.082-0.977-1.695-1.386c-0.259-0.171-0.547-0.293-0.817-0.442
				c-0.359-0.193-0.701-0.409-1.077-0.574c-0.359-0.144-0.734-0.232-1.104-0.342c-0.32-0.094-0.624-0.215-0.955-0.287
				c-1.43-0.282-2.893-0.282-4.323,0c-0.331,0.072-0.635,0.193-0.955,0.287c-0.37,0.11-0.745,0.193-1.104,0.342
				c-0.375,0.16-0.723,0.375-1.077,0.574c-0.276,0.149-0.563,0.27-0.817,0.442c-0.607,0.409-1.181,0.872-1.695,1.386l-49.679,49.679
				c-4.312,4.312-4.312,11.301,0,15.612s11.301,4.312,15.612,0l30.832-30.838v72.717c0,6.095,4.941,11.041,11.041,11.041
				c6.095,0,11.041-4.946,11.041-11.041V195.03l30.838,30.838c2.159,2.159,4.98,3.235,7.806,3.235s5.648-1.077,7.806-3.235
				c4.312-4.312,4.312-11.301,0-15.612L167.907,160.576z"/>
			<path d="M259.466,107.651c-2.804,0-6.139,0.436-9.324,1.016c-11.554-39.593-47.742-67.262-90.046-67.262
				c-42.309,0-78.497,27.669-90.051,67.262c-3.18-0.58-6.52-1.016-9.319-1.016C27.244,107.651,0,134.895,0,168.377
				s27.244,60.726,60.732,60.726l11.041-0.006c6.095-0.006,11.041-4.946,11.036-11.047c-0.006-6.095-4.946-11.036-11.041-11.036
				h-0.006l-11.036,0.006c-21.304,0-38.644-17.34-38.644-38.644s17.34-38.644,38.644-38.644c1.529,0,3.997,0.375,6.592,0.894v10.147
				c0,6.095,4.946,11.041,11.041,11.041c6.095,0,11.041-4.946,11.041-11.041v-17.798c5.935-34.509,35.536-59.489,70.696-59.489
				c35.177,0,64.789,25.008,70.707,59.55v17.738c0,6.095,4.946,11.041,11.041,11.041c6.095,0,11.041-4.946,11.041-11.041v-10.147
				c2.589-0.519,5.051-0.894,6.581-0.894c21.304,0,38.644,17.34,38.644,38.644s-17.34,38.644-38.638,38.644l-11.041-0.006h-0.006
				c-6.1,0-11.036,4.941-11.041,11.036c-0.006,6.095,4.935,11.041,11.036,11.047l11.047,0.006c33.482,0,60.726-27.244,60.726-60.726
				S292.948,107.651,259.466,107.651z"/>
		</g>
	</g>
</g>
<g>
</g>
<g>
</g>
<g>
</g>
<g>
</g>
<g>
</g>
<g>
</g>
<g>
</g>
<g>
</g>
<g>
</g>
<g>
</g>
<g>
</g>
<g>
</g>
<g>
</g>
<g>
</g>
<g>
</g>
</svg>
