<?xml version="1.0" encoding="iso-8859-1"?>
<!-- Generator: Adobe Illustrator 19.0.0, SVG Export Plug-In . SVG Version: 6.00 Build 0)  -->
<svg version="1.1" id="Capa_1" xmlns="http://www.w3.org/2000/svg" xmlns:xlink="http://www.w3.org/1999/xlink" x="0px" y="0px"
	 viewBox="0 0 287.068 287.068" style="enable-background:new 0 0 287.068 287.068;" xml:space="preserve">
<g>
	<g id="Dibujo_1_">
		<path d="M73.263,107.342L57.651,91.724c-4.312-4.312-11.301-4.312-15.612,0c-4.312,4.312-4.312,11.301,0,15.618l15.612,15.618
			c2.159,2.159,4.98,3.235,7.806,3.235c2.827,0,5.648-1.077,7.806-3.23C77.58,118.642,77.58,111.653,73.263,107.342z
			 M143.534,93.849c6.095,0,11.041-4.946,11.041-11.041V60.726c0-6.095-4.946-11.041-11.041-11.041
			c-6.1,0-11.041,4.946-11.041,11.041v22.082C132.493,88.903,137.434,93.849,143.534,93.849z M33.123,182.178H11.041
			C4.946,182.178,0,187.124,0,193.219s4.946,11.041,11.041,11.041h22.082c6.095,0,11.041-4.946,11.041-11.041
			S39.218,182.178,33.123,182.178z M276.027,182.178h-22.082c-6.095,0-11.041,4.946-11.041,11.041s4.946,11.041,11.041,11.041
			h22.082c6.095,0,11.041-4.946,11.041-11.041S282.122,182.178,276.027,182.178z M245.03,91.724c-4.312-4.306-11.301-4.312-15.612,0
			l-15.612,15.618c-4.312,4.312-4.312,11.301,0,15.618c2.159,2.153,4.98,3.23,7.806,3.23s5.648-1.077,7.806-3.235l15.612-15.618
			C249.341,103.024,249.341,96.035,245.03,91.724z M143.534,115.932c-42.619,0-77.288,34.669-77.288,77.288
			c0,13.525,3.599,26.891,10.423,38.655c1.971,3.412,5.609,5.51,9.551,5.51h114.629c3.942,0,7.58-2.098,9.551-5.51
			c6.823-11.764,10.423-25.13,10.423-38.655C220.822,150.601,186.153,115.932,143.534,115.932z M194.086,215.301H92.983
			c-3.058-6.961-4.654-14.491-4.654-22.082c0-30.44,24.765-55.205,55.205-55.205s55.205,24.765,55.205,55.205
			C198.74,200.81,197.144,208.34,194.086,215.301z"/>
	</g>
</g>
<g>
</g>
<g>
</g>
<g>
</g>
<g>
</g>
<g>
</g>
<g>
</g>
<g>
</g>
<g>
</g>
<g>
</g>
<g>
</g>
<g>
</g>
<g>
</g>
<g>
</g>
<g>
</g>
<g>
</g>
</svg>
