<?xml version="1.0" encoding="iso-8859-1"?>
<!-- Generator: Adobe Illustrator 19.0.0, SVG Export Plug-In . SVG Version: 6.00 Build 0)  -->
<svg version="1.1" id="Capa_1" xmlns="http://www.w3.org/2000/svg" xmlns:xlink="http://www.w3.org/1999/xlink" x="0px" y="0px"
	 viewBox="0 0 209.458 209.458" style="enable-background:new 0 0 209.458 209.458;" xml:space="preserve">
<g>
	<g id="Dibujo_3_">
		<g>
			<g>
				<path d="M104.729,88.167c6.095,0,11.041-4.946,11.041-11.041V55.044c0-6.095-4.946-11.041-11.041-11.041
					c-6.1,0-11.041,4.946-11.041,11.041v22.082C93.688,83.221,98.629,88.167,104.729,88.167z M34.458,101.66L18.846,86.042
					c-4.312-4.312-11.301-4.312-15.612,0c-4.312,4.312-4.312,11.301,0,15.618l15.612,15.618c2.159,2.159,4.98,3.235,7.806,3.235
					s5.648-1.077,7.806-3.23C38.775,112.96,38.775,105.971,34.458,101.66z M104.729,110.249c-27.443,0-53.058,14.801-66.865,38.633
					c-1.976,3.417-1.982,7.624-0.011,11.047c1.965,3.417,5.614,5.526,9.562,5.526h114.629c3.947,0,7.596-2.109,9.567-5.526
					c1.971-3.423,1.965-7.629-0.011-11.047C157.787,125.05,132.172,110.249,104.729,110.249z M71.716,143.373
					c9.407-7.039,20.967-11.041,33.013-11.041s23.6,4.002,33.007,11.041H71.716z M206.224,86.042
					c-4.312-4.306-11.301-4.312-15.612,0L175,101.66c-4.312,4.312-4.312,11.301,0,15.618c2.159,2.153,4.98,3.23,7.806,3.23
					c2.827,0,5.648-1.077,7.806-3.235l15.612-15.618C210.536,97.342,210.536,90.353,206.224,86.042z"/>
			</g>
		</g>
	</g>
</g>
<g>
</g>
<g>
</g>
<g>
</g>
<g>
</g>
<g>
</g>
<g>
</g>
<g>
</g>
<g>
</g>
<g>
</g>
<g>
</g>
<g>
</g>
<g>
</g>
<g>
</g>
<g>
</g>
<g>
</g>
</svg>
