<?xml version="1.0" encoding="iso-8859-1"?>
<!-- Generator: Adobe Illustrator 19.0.0, SVG Export Plug-In . SVG Version: 6.00 Build 0)  -->
<svg version="1.1" id="Capa_1" xmlns="http://www.w3.org/2000/svg" xmlns:xlink="http://www.w3.org/1999/xlink" x="0px" y="0px"
	 viewBox="0 0 325.712 325.712" style="enable-background:new 0 0 325.712 325.712;" xml:space="preserve">
<g>
	<g id="Dibujo_53_">
		<g>
			<path d="M149.055,135.251v99.37c0,6.095,4.941,11.041,11.041,11.041c6.095,0,11.041-4.946,11.041-11.041v-99.37
				c0-6.095-4.946-11.041-11.041-11.041C153.996,124.21,149.055,129.15,149.055,135.251z"/>
			<path d="M22.082,240.141H11.041c-6.1,0-11.041,4.946-11.041,11.041v11.041c0,6.095,4.941,11.041,11.041,11.041h11.041
				c6.095,0,11.041-4.946,11.041-11.041v-11.041C33.123,245.082,28.177,240.141,22.082,240.141z"/>
			<path d="M165.616,267.744h-11.041c-6.1,0-11.041,4.946-11.041,11.041v11.041c0,6.095,4.941,11.041,11.041,11.041h11.041
				c6.095,0,11.041-4.946,11.041-11.041v-11.041C176.658,272.685,171.711,267.744,165.616,267.744z"/>
			<path d="M314.671,223.579H303.63c-6.1,0-11.041,4.946-11.041,11.041v11.041c0,6.095,4.941,11.041,11.041,11.041h11.041
				c6.095,0,11.041-4.946,11.041-11.041v-11.041C325.712,228.52,320.766,223.579,314.671,223.579z"/>
			<path d="M60.726,212.538h11.041c6.095,0,11.041-4.946,11.041-11.041c0-6.095-4.946-11.041-11.041-11.041H60.726
				c-21.304,0-38.644-17.34-38.644-38.644s17.34-38.644,38.644-38.644c1.529,0,3.991,0.375,6.586,0.894v10.147
				c0,6.095,4.941,11.041,11.041,11.041s11.041-4.946,11.041-11.041v-17.771c5.924-34.52,35.53-59.517,70.702-59.517
				c35.177,0,64.789,25.008,70.702,59.545v17.743c0,6.095,4.946,11.041,11.041,11.041s11.041-4.946,11.041-11.041v-10.141
				c2.606-0.519,5.073-0.9,6.586-0.9c21.304,0,38.644,17.34,38.644,38.644s-17.34,38.644-38.644,38.644h-11.041
				c-6.1,0-11.041,4.946-11.041,11.041c0,6.095,4.941,11.041,11.041,11.041h11.041c33.482,0,60.726-27.244,60.726-60.726
				s-27.244-60.726-60.726-60.726c-2.804,0-6.139,0.436-9.33,1.016C238.587,52.509,202.4,24.84,160.096,24.84
				c-42.309,0-78.497,27.669-90.051,67.262c-3.18-0.574-6.525-1.016-9.319-1.016C27.244,91.086,0,118.33,0,151.812
				S27.244,212.538,60.726,212.538z"/>
			<path d="M110.411,157.333c-6.1,0-11.041,4.946-11.041,11.041v83.217c-6.503-3.771-14.044-5.924-22.082-5.924H66.247
				c-6.1,0-11.041,4.946-11.041,11.041c0,6.095,4.941,11.041,11.041,11.041h11.041c12.178,0,22.082,9.904,22.082,22.082
				c0,6.095,4.941,11.041,11.041,11.041c6.095,0,11.041-4.946,11.041-11.041V168.374
				C121.452,162.274,116.506,157.333,110.411,157.333z"/>
			<path d="M259.466,229.1c-14.668,0-28.138,5.228-38.644,13.917v-74.643c0-6.095-4.946-11.041-11.041-11.041
				c-6.1,0-11.041,4.946-11.041,11.041v121.452c0,0.005,0,0.005,0,0.005c0,6.095,4.941,11.041,11.041,11.041
				c6.095,0,11.041-4.946,11.041-11.041v-0.005c0-21.304,17.34-38.644,38.644-38.644c6.095,0,11.041-4.946,11.041-11.041
				S265.56,229.1,259.466,229.1z"/>
		</g>
	</g>
</g>
<g>
</g>
<g>
</g>
<g>
</g>
<g>
</g>
<g>
</g>
<g>
</g>
<g>
</g>
<g>
</g>
<g>
</g>
<g>
</g>
<g>
</g>
<g>
</g>
<g>
</g>
<g>
</g>
<g>
</g>
</svg>
