<?xml version="1.0" encoding="iso-8859-1"?>
<!-- Generator: Adobe Illustrator 19.0.0, SVG Export Plug-In . SVG Version: 6.00 Build 0)  -->
<svg version="1.1" id="Capa_1" xmlns="http://www.w3.org/2000/svg" xmlns:xlink="http://www.w3.org/1999/xlink" x="0px" y="0px"
	 viewBox="0 0 342.274 342.274" style="enable-background:new 0 0 342.274 342.274;" xml:space="preserve">
<g>
	<g id="Dibujo_52_">
		<g>
			<path d="M288.393,135.187c16.192-14.364,26.278-35.298,26.278-57.9c0-6.095-4.946-11.041-11.041-11.041
				c-30.44,0-55.205-24.765-55.205-55.205C248.425,4.946,243.478,0,237.384,0c-39.074,0-71.386,29.171-76.498,66.859
				c-37.805,4.069-69.189,30.297-79.794,66.644c-3.185-0.574-6.525-1.01-9.324-1.01c-33.482,0-60.726,27.244-60.726,60.726
				s27.244,60.726,60.732,60.726l11.041-0.006c6.095-0.006,11.041-4.946,11.036-11.047c-0.006-6.095-4.946-11.036-11.041-11.036
				h-0.006l-11.036,0.006c-21.304,0-38.644-17.34-38.644-38.644s17.34-38.644,38.644-38.644c1.529,0,3.997,0.375,6.592,0.894v10.147
				c0,6.095,4.946,11.041,11.041,11.041c6.095,0,11.041-4.946,11.041-11.041v-17.798c5.935-34.509,35.536-59.489,70.696-59.489
				c35.177,0,64.789,25.008,70.707,59.55v17.738c0,6.095,4.946,11.041,11.041,11.041c6.095,0,11.041-4.946,11.041-11.041V155.47
				c2.589-0.519,5.051-0.894,6.58-0.894c21.304,0,38.644,17.34,38.644,38.644s-17.34,38.644-38.638,38.644l-11.041-0.006h-0.006
				c-6.1,0-11.036,4.941-11.041,11.036c-0.006,6.095,4.935,11.041,11.036,11.047l11.047,0.006c33.482,0,60.726-27.244,60.726-60.726
				C331.233,165.964,313.17,142.844,288.393,135.187z M183.139,67.075c4.19-22.297,21.817-39.914,44.131-44.065
				c5.156,33.04,31.329,59.224,64.37,64.392c-3.395,17.92-15.678,33.156-32.361,40.444
				C247.381,95.009,218.167,71.508,183.139,67.075z"/>
			<path d="M182.178,242.904v-66.247c0-6.095-4.946-11.041-11.041-11.041c-6.1,0-11.041,4.946-11.041,11.041v66.247
				c0,6.095,4.941,11.041,11.041,11.041C177.232,253.945,182.178,248.999,182.178,242.904z"/>
			<path d="M132.493,276.027v-66.247c0-6.095-4.946-11.041-11.041-11.041c-6.1,0-11.041,4.946-11.041,11.041v66.247
				c0,6.095,4.941,11.041,11.041,11.041C127.547,287.068,132.493,282.122,132.493,276.027z"/>
			<path d="M231.863,276.027v-66.247c0-6.095-4.946-11.041-11.041-11.041c-6.1,0-11.041,4.946-11.041,11.041v66.247
				c0,6.095,4.941,11.041,11.041,11.041C226.917,287.068,231.863,282.122,231.863,276.027z"/>
			<path d="M126.973,309.151h-11.041c-6.1,0-11.041,4.946-11.041,11.041v11.041c0,6.095,4.941,11.041,11.041,11.041h11.041
				c6.095,0,11.041-4.946,11.041-11.041v-11.041C138.014,314.097,133.067,309.151,126.973,309.151z"/>
			<path d="M176.658,276.027h-11.041c-6.1,0-11.041,4.946-11.041,11.041v11.041c0,6.095,4.941,11.041,11.041,11.041h11.041
				c6.095,0,11.041-4.946,11.041-11.041v-11.041C187.699,280.974,182.752,276.027,176.658,276.027z"/>
			<path d="M226.342,309.151h-11.041c-6.1,0-11.041,4.946-11.041,11.041v11.041c0,6.095,4.941,11.041,11.041,11.041h11.041
				c6.095,0,11.041-4.946,11.041-11.041v-11.041C237.384,314.097,232.437,309.151,226.342,309.151z"/>
		</g>
	</g>
</g>
<g>
</g>
<g>
</g>
<g>
</g>
<g>
</g>
<g>
</g>
<g>
</g>
<g>
</g>
<g>
</g>
<g>
</g>
<g>
</g>
<g>
</g>
<g>
</g>
<g>
</g>
<g>
</g>
<g>
</g>
</svg>
