<?xml version="1.0" encoding="iso-8859-1"?>
<!-- Generator: Adobe Illustrator 19.0.0, SVG Export Plug-In . SVG Version: 6.00 Build 0)  -->
<svg version="1.1" id="Capa_1" xmlns="http://www.w3.org/2000/svg" xmlns:xlink="http://www.w3.org/1999/xlink" x="0px" y="0px"
	 viewBox="0 0 386.438 386.438" style="enable-background:new 0 0 386.438 386.438;" xml:space="preserve">
<g>
	<g id="Dibujo_26_">
		<g>
			<path d="M310.476,135.187c16.192-14.364,26.278-35.298,26.278-57.9c0-6.095-4.946-11.041-11.041-11.041
				c-30.44,0-55.206-24.765-55.206-55.205C270.507,4.946,265.56,0,259.466,0c-39.074,0-71.386,29.171-76.498,66.859
				c-37.805,4.069-69.189,30.297-79.794,66.644c-3.185-0.574-6.525-1.01-9.324-1.01c-33.482,0-60.726,27.244-60.726,60.726
				s27.244,60.726,60.726,60.726h198.74c33.482,0,60.726-27.244,60.726-60.726C353.315,165.959,335.252,142.844,310.476,135.187z
				 M249.352,23.01c5.156,33.04,31.329,59.224,64.37,64.392c-3.395,17.92-15.678,33.156-32.361,40.444
				c-11.891-32.836-41.112-56.343-76.139-60.77C209.411,44.777,227.038,27.161,249.352,23.01z M292.589,231.863H93.849
				c-21.304,0-38.644-17.34-38.644-38.644s17.34-38.644,38.644-38.644c1.529,0,3.997,0.375,6.592,0.894v10.147
				c0,6.095,4.946,11.041,11.041,11.041c6.095,0,11.041-4.946,11.041-11.041v-17.798c5.935-34.509,35.536-59.489,70.696-59.489
				c35.177,0,64.789,25.008,70.707,59.55v17.738c0,6.095,4.946,11.041,11.041,11.041c6.095,0,11.041-4.946,11.041-11.041v-10.141
				c2.595-0.519,5.068-0.9,6.581-0.9c21.304,0,38.644,17.34,38.644,38.644S313.893,231.863,292.589,231.863z"/>
			<circle cx="143.534" cy="276.027" r="11.041"/>
			<circle cx="242.904" cy="276.027" r="11.041"/>
			<circle cx="193.219" cy="309.151" r="11.041"/>
			<circle cx="242.904" cy="342.274" r="11.041"/>
			<circle cx="193.219" cy="375.397" r="11.041"/>
			<circle cx="143.534" cy="342.274" r="11.041"/>
		</g>
	</g>
</g>
<g>
</g>
<g>
</g>
<g>
</g>
<g>
</g>
<g>
</g>
<g>
</g>
<g>
</g>
<g>
</g>
<g>
</g>
<g>
</g>
<g>
</g>
<g>
</g>
<g>
</g>
<g>
</g>
<g>
</g>
</svg>
