<?xml version="1.0" encoding="iso-8859-1"?>
<!-- Generator: Adobe Illustrator 19.0.0, SVG Export Plug-In . SVG Version: 6.00 Build 0)  -->
<svg version="1.1" id="Capa_1" xmlns="http://www.w3.org/2000/svg" xmlns:xlink="http://www.w3.org/1999/xlink" x="0px" y="0px"
	 viewBox="0 0 342.279 342.279" style="enable-background:new 0 0 342.279 342.279;" xml:space="preserve">
<g>
	<g id="Dibujo_55_">
		<g>
			<path d="M69.015,253.945l11.041-0.006c6.095-0.006,11.041-4.946,11.036-11.047c0-6.095-4.946-11.036-11.041-11.036
				c0,0,0,0-0.006,0l-11.036,0.006c-21.309,0-38.644-17.34-38.644-38.644S47.7,154.575,69.01,154.575
				c1.529,0,3.991,0.375,6.592,0.894v10.147c0,6.095,4.946,11.041,11.041,11.041c6.095,0,11.041-4.946,11.041-11.041v-17.809
				c5.94-34.503,35.541-59.478,70.696-59.478c35.171,0,64.784,25.003,70.707,59.539v17.749c0,6.095,4.946,11.041,11.041,11.041
				c6.1,0,11.041-4.946,11.041-11.041V155.47c2.589-0.519,5.051-0.894,6.581-0.894c21.304,0,38.644,17.34,38.644,38.644
				s-17.34,38.644-38.638,38.644l-11.041-0.006h-0.005c-6.095,0-11.041,4.941-11.041,11.036c0,6.095,4.941,11.041,11.036,11.047
				l11.047,0.006c33.482,0,60.726-27.244,60.726-60.726c0-27.26-18.058-50.375-42.839-58.032
				c16.192-14.364,26.278-35.298,26.278-57.9c0-6.095-4.946-11.041-11.041-11.041c-30.44,0-55.205-24.765-55.205-55.205
				C245.667,4.946,240.721,0,234.626,0c-39.074,0-71.381,29.171-76.498,66.859c-37.805,4.074-69.189,30.302-79.8,66.65
				c-3.18-0.58-6.52-1.016-9.319-1.016c-33.482,0-60.726,27.244-60.726,60.726S35.527,253.945,69.015,253.945z M224.507,23.01
				c5.162,33.04,31.335,59.224,64.375,64.392c-3.395,17.92-15.678,33.156-32.361,40.444c-11.897-32.836-41.117-56.337-76.139-60.77
				C184.571,44.777,202.193,27.161,224.507,23.01z"/>
			<path d="M157.338,176.658v99.37c0,6.095,4.946,11.041,11.041,11.041s11.041-4.946,11.041-11.041v-99.37
				c0-6.095-4.946-11.041-11.041-11.041S157.338,170.563,157.338,176.658z"/>
			<path d="M30.366,281.548H19.325c-6.095,0-11.041,4.946-11.041,11.041v11.041c0,6.095,4.946,11.041,11.041,11.041h11.041
				c6.095,0,11.041-4.946,11.041-11.041v-11.041C41.407,286.494,36.46,281.548,30.366,281.548z"/>
			<path d="M173.9,309.151h-11.041c-6.095,0-11.041,4.946-11.041,11.041v11.041c0,6.095,4.946,11.041,11.041,11.041H173.9
				c6.095,0,11.041-4.946,11.041-11.041v-11.041C184.941,314.097,179.995,309.151,173.9,309.151z"/>
			<path d="M322.955,264.986h-11.041c-6.095,0-11.041,4.946-11.041,11.041v11.041c0,6.095,4.946,11.041,11.041,11.041h11.041
				c6.095,0,11.041-4.946,11.041-11.041v-11.041C333.996,269.933,329.049,264.986,322.955,264.986z"/>
			<path d="M118.695,198.74c-6.095,0-11.041,4.946-11.041,11.041v83.217c-6.498-3.771-14.044-5.924-22.082-5.924H74.53
				c-6.095,0-11.041,4.946-11.041,11.041s4.946,11.041,11.041,11.041h11.041c12.178,0,22.082,9.904,22.082,22.082
				c0,6.095,4.946,11.041,11.041,11.041c6.095,0,11.041-4.946,11.041-11.041V209.781C129.736,203.686,124.789,198.74,118.695,198.74
				z"/>
			<path d="M267.749,270.507c-14.668,0-28.138,5.228-38.644,13.917v-74.643c0-6.095-4.946-11.041-11.041-11.041
				c-6.095,0-11.041,4.946-11.041,11.041v121.452c0,0.006,0,0.006,0,0.006c0,6.095,4.946,11.041,11.041,11.041
				c6.095,0,11.041-4.946,11.041-11.041v-0.006c0-21.304,17.335-38.644,38.644-38.644c6.095,0,11.041-4.946,11.041-11.041
				S273.844,270.507,267.749,270.507z"/>
		</g>
	</g>
</g>
<g>
</g>
<g>
</g>
<g>
</g>
<g>
</g>
<g>
</g>
<g>
</g>
<g>
</g>
<g>
</g>
<g>
</g>
<g>
</g>
<g>
</g>
<g>
</g>
<g>
</g>
<g>
</g>
<g>
</g>
</svg>
