<?xml version="1.0" encoding="iso-8859-1"?>
<!-- Generator: Adobe Illustrator 19.0.0, SVG Export Plug-In . SVG Version: 6.00 Build 0)  -->
<svg version="1.1" id="Capa_1" xmlns="http://www.w3.org/2000/svg" xmlns:xlink="http://www.w3.org/1999/xlink" x="0px" y="0px"
	 viewBox="0 0 375.403 375.403" style="enable-background:new 0 0 375.403 375.403;" xml:space="preserve">
<g>
	<g id="Dibujo_54_">
		<g>
			<path d="M229.105,44.164c6.095,0,11.041-4.946,11.041-11.041V11.041C240.147,4.946,235.2,0,229.105,0
				c-6.1,0-11.041,4.946-11.041,11.041v22.082C218.064,39.218,223.005,44.164,229.105,44.164z"/>
			<path d="M361.599,132.493h-22.082c-6.1,0-11.041,4.946-11.041,11.041c0,6.095,4.941,11.041,11.041,11.041h22.082
				c6.095,0,11.041-4.946,11.041-11.041C372.64,137.44,367.693,132.493,361.599,132.493z"/>
			<path d="M307.183,76.498c2.827,0,5.648-1.077,7.806-3.235l15.612-15.612c4.312-4.312,4.312-11.301,0-15.612
				c-4.312-4.312-11.301-4.312-15.612,0l-15.612,15.612c-4.312,4.312-4.312,11.301,0,15.612
				C301.53,75.422,304.356,76.498,307.183,76.498z"/>
			<path d="M143.222,73.263c2.159,2.159,4.98,3.235,7.806,3.235c2.827,0,5.653-1.077,7.806-3.235c4.312-4.312,4.312-11.301,0-15.612
				l-15.612-15.612c-4.312-4.312-11.301-4.312-15.612,0c-4.312,4.312-4.312,11.301,0,15.612L143.222,73.263z"/>
			<path d="M63.495,287.068H74.53c6.095,0,11.041-4.946,11.041-11.041c0-6.095-4.946-11.041-11.041-11.041H63.495
				c-21.304,0-38.644-17.34-38.644-38.644s17.34-38.644,38.644-38.644c1.529,0,3.991,0.375,6.586,0.894v10.147
				c0,6.095,4.946,11.041,11.041,11.041c6.095,0,11.041-4.946,11.041-11.041v-17.771c5.924-34.52,35.53-59.517,70.702-59.517
				c35.177,0,64.789,25.008,70.702,59.545v17.743c0,6.095,4.946,11.041,11.041,11.041c6.095,0,11.041-4.946,11.041-11.041v-10.141
				c2.6-0.519,5.073-0.9,6.586-0.9c21.304,0,38.644,17.34,38.644,38.644s-17.34,38.644-38.644,38.644h-11.047
				c-6.1,0-11.041,4.946-11.041,11.041c0,6.095,4.941,11.041,11.041,11.041h11.047c33.482,0,60.726-27.244,60.726-60.726
				c0-19.918-9.683-37.573-24.539-48.653c5.217-10.577,7.972-22.198,7.972-34.156c0-42.619-34.669-77.288-77.288-77.288
				c-25.4,0-49.105,12.592-63.464,33.239c-0.927-0.028-1.844-0.116-2.777-0.116c-42.309,0-78.497,27.669-90.051,67.262
				c-3.18-0.58-6.52-1.016-9.319-1.016c-33.488,0-60.726,27.244-60.726,60.726S30.007,287.068,63.495,287.068z M229.105,88.329
				c30.44,0,55.205,24.765,55.205,55.205c0,8.551-1.987,16.838-5.719,24.384c-5.217-1.463-10.688-2.302-16.357-2.302
				c-2.804,0-6.139,0.436-9.33,1.016c-8.877-30.424-32.317-53.743-61.885-62.94C201.166,94.02,214.736,88.329,229.105,88.329z"/>
			<path d="M151.818,209.781v99.37c0,6.095,4.941,11.041,11.041,11.041c6.095,0,11.041-4.946,11.041-11.041v-99.37
				c0-6.095-4.946-11.041-11.041-11.041C156.759,198.74,151.818,203.686,151.818,209.781z"/>
			<path d="M24.845,314.671H13.804c-6.1,0-11.041,4.946-11.041,11.041v11.041c0,6.095,4.941,11.041,11.041,11.041h11.041
				c6.095,0,11.041-4.946,11.041-11.041v-11.041C35.886,319.618,30.94,314.671,24.845,314.671z"/>
			<path d="M168.379,342.274h-11.041c-6.1,0-11.041,4.946-11.041,11.041v11.041c0,6.095,4.941,11.041,11.041,11.041h11.041
				c6.095,0,11.041-4.946,11.041-11.041v-11.041C179.421,347.22,174.474,342.274,168.379,342.274z"/>
			<path d="M317.434,298.11h-11.041c-6.1,0-11.041,4.946-11.041,11.041v11.041c0,6.095,4.941,11.041,11.041,11.041h11.041
				c6.095,0,11.041-4.946,11.041-11.041v-11.041C328.475,303.056,323.529,298.11,317.434,298.11z"/>
			<path d="M113.174,231.863c-6.1,0-11.041,4.946-11.041,11.041v83.217c-6.503-3.771-14.044-5.924-22.082-5.924H69.01
				c-6.1,0-11.041,4.946-11.041,11.041s4.941,11.041,11.041,11.041h11.041c12.178,0,22.082,9.904,22.082,22.082
				c0,6.095,4.941,11.041,11.041,11.041c6.095,0,11.041-4.946,11.041-11.041V242.904
				C124.215,236.809,119.269,231.863,113.174,231.863z"/>
			<path d="M262.229,303.63c-14.668,0-28.138,5.228-38.644,13.917v-74.643c0-6.095-4.946-11.041-11.041-11.041
				c-6.1,0-11.041,4.946-11.041,11.041v121.452c0,0.006,0,0.006,0,0.006c0,6.095,4.941,11.041,11.041,11.041
				c6.095,0,11.041-4.946,11.041-11.041v-0.006c0-21.304,17.34-38.644,38.644-38.644c6.095,0,11.041-4.946,11.041-11.041
				S268.323,303.63,262.229,303.63z"/>
		</g>
	</g>
</g>
<g>
</g>
<g>
</g>
<g>
</g>
<g>
</g>
<g>
</g>
<g>
</g>
<g>
</g>
<g>
</g>
<g>
</g>
<g>
</g>
<g>
</g>
<g>
</g>
<g>
</g>
<g>
</g>
<g>
</g>
</svg>
