<?xml version="1.0" encoding="iso-8859-1"?>
<!-- Generator: Adobe Illustrator 19.0.0, SVG Export Plug-In . SVG Version: 6.00 Build 0)  -->
<svg version="1.1" id="Capa_1" xmlns="http://www.w3.org/2000/svg" xmlns:xlink="http://www.w3.org/1999/xlink" x="0px" y="0px"
	 viewBox="0 0 353.315 353.315" style="enable-background:new 0 0 353.315 353.315;" xml:space="preserve">
<g>
	<g id="Dibujo_43_">
		<g>
			<path d="M27.603,218.062c6.095,0,11.041-4.946,11.041-11.041c0-21.304,17.34-38.644,38.644-38.644
				c1.529,0,3.991,0.375,6.586,0.894v10.147c0,6.095,4.946,11.041,11.041,11.041c6.095,0,11.041-4.946,11.041-11.041v-17.771
				c5.924-34.52,35.53-59.517,70.702-59.517c35.166,0,64.773,24.997,70.702,59.523v17.765c0,6.095,4.946,11.041,11.041,11.041
				c6.095,0,11.041-4.946,11.041-11.041v-10.147c2.595-0.519,5.057-0.894,6.586-0.894c21.304,0,38.644,17.34,38.644,38.644
				c0,6.095,4.941,11.041,11.041,11.041c6.095,0,11.041-4.946,11.041-11.041c0-27.26-18.063-50.375-42.839-58.032
				c16.192-14.37,26.278-35.304,26.278-57.899c0-6.095-4.946-11.041-11.041-11.041c-30.44,0-55.205-24.765-55.205-55.205
				c0-6.095-4.946-11.041-11.041-11.041c-39.074,0-71.386,29.171-76.498,66.859c-37.805,4.074-69.195,30.302-79.8,66.65
				c-3.18-0.58-6.52-1.016-9.319-1.016c-33.482,0-60.726,27.244-60.726,60.726C16.562,213.115,21.503,218.062,27.603,218.062z
				 M232.79,36.811c5.156,33.04,31.329,59.224,64.37,64.392c-3.395,17.92-15.678,33.156-32.361,40.444
				c-11.897-32.836-41.111-56.343-76.139-60.77C192.849,58.579,210.476,40.962,232.79,36.811z"/>
			<path d="M132.493,251.185c0,6.095,4.941,11.041,11.041,11.041h198.74c6.095,0,11.041-4.946,11.041-11.041
				c0-6.095-4.946-11.041-11.041-11.041h-198.74C137.434,240.144,132.493,245.09,132.493,251.185z"/>
			<path d="M176.658,278.788c-6.1,0-11.041,4.946-11.041,11.041s4.941,11.041,11.041,11.041h149.055
				c6.095,0,11.041-4.946,11.041-11.041s-4.946-11.041-11.041-11.041H176.658z"/>
			<path d="M342.274,317.432H209.781c-6.1,0-11.041,4.946-11.041,11.041s4.941,11.041,11.041,11.041h132.493
				c6.095,0,11.041-4.946,11.041-11.041S348.369,317.432,342.274,317.432z"/>
			<path d="M11.041,262.226h99.37c6.095,0,11.041-4.946,11.041-11.041c0-6.095-4.946-11.041-11.041-11.041h-99.37
				C4.941,240.144,0,245.09,0,251.185C0,257.28,4.941,262.226,11.041,262.226z"/>
			<path d="M27.603,278.788c-6.1,0-11.041,4.946-11.041,11.041s4.941,11.041,11.041,11.041h115.932
				c6.095,0,11.041-4.946,11.041-11.041s-4.946-11.041-11.041-11.041H27.603z"/>
			<path d="M176.658,317.432H11.041c-6.1,0-11.041,4.946-11.041,11.041s4.941,11.041,11.041,11.041h165.616
				c6.095,0,11.041-4.946,11.041-11.041S182.752,317.432,176.658,317.432z"/>
		</g>
	</g>
</g>
<g>
</g>
<g>
</g>
<g>
</g>
<g>
</g>
<g>
</g>
<g>
</g>
<g>
</g>
<g>
</g>
<g>
</g>
<g>
</g>
<g>
</g>
<g>
</g>
<g>
</g>
<g>
</g>
<g>
</g>
</svg>
