<?xml version="1.0" encoding="iso-8859-1"?>
<!-- Generator: Adobe Illustrator 19.0.0, SVG Export Plug-In . SVG Version: 6.00 Build 0)  -->
<svg version="1.1" id="Capa_1" xmlns="http://www.w3.org/2000/svg" xmlns:xlink="http://www.w3.org/1999/xlink" x="0px" y="0px"
	 viewBox="0 0 386.433 386.433" style="enable-background:new 0 0 386.433 386.433;" xml:space="preserve">
<g>
	<g id="Dibujo_42_">
		<g>
			<path d="M27.603,251.182c6.095,0,11.041-4.946,11.041-11.041c0-21.304,17.34-38.644,38.644-38.644
				c1.529,0,3.991,0.375,6.586,0.894v10.147c0,6.095,4.941,11.041,11.041,11.041s11.041-4.946,11.041-11.041v-17.771
				c5.924-34.52,35.53-59.517,70.702-59.517c35.166,0,64.773,24.997,70.702,59.523v17.765c0,6.095,4.946,11.041,11.041,11.041
				c6.095,0,11.041-4.946,11.041-11.041v-10.147c2.595-0.519,5.057-0.894,6.586-0.894c21.304,0,38.644,17.34,38.644,38.644
				c0,6.095,4.941,11.041,11.041,11.041c6.095,0,11.041-4.946,11.041-11.041c0-19.913-9.683-37.573-24.539-48.653
				c5.217-10.572,7.972-22.193,7.972-34.156c0-42.619-34.669-77.288-77.288-77.288c-25.4,0-49.105,12.592-63.464,33.239
				c-0.927-0.028-1.844-0.116-2.777-0.116c-42.309,0-78.497,27.669-90.051,67.262c-3.18-0.58-6.52-1.016-9.319-1.016
				c-33.482,0-60.726,27.244-60.726,60.726C16.562,246.236,21.503,251.182,27.603,251.182z M242.899,102.127
				c30.44,0,55.205,24.765,55.205,55.205c0,8.551-1.987,16.843-5.714,24.384c-5.217-1.463-10.688-2.302-16.363-2.302
				c-2.804,0-6.139,0.436-9.324,1.016c-8.877-30.424-32.323-53.743-61.891-62.94C214.959,107.814,228.529,102.127,242.899,102.127z"
				/>
			<path d="M242.899,57.963c6.095,0,11.041-4.946,11.041-11.041V24.84c0-6.095-4.946-11.041-11.041-11.041
				c-6.1,0-11.041,4.946-11.041,11.041v22.082C231.857,53.017,236.798,57.963,242.899,57.963z"/>
			<path d="M375.392,146.292H353.31c-6.1,0-11.041,4.946-11.041,11.041s4.941,11.041,11.041,11.041h22.082
				c6.095,0,11.041-4.946,11.041-11.041S381.486,146.292,375.392,146.292z"/>
			<path d="M320.976,90.297c2.827,0,5.648-1.076,7.806-3.235l15.612-15.612c4.312-4.312,4.312-11.301,0-15.612
				c-4.312-4.312-11.301-4.312-15.612,0L313.17,71.45c-4.312,4.312-4.312,11.301,0,15.612
				C315.323,89.22,318.149,90.297,320.976,90.297z"/>
			<path d="M157.021,87.062c2.159,2.159,4.98,3.235,7.806,3.235s5.648-1.076,7.806-3.235c4.312-4.312,4.312-11.301,0-15.612
				l-15.612-15.612c-4.312-4.312-11.301-4.312-15.612,0s-4.312,11.301,0,15.612L157.021,87.062z"/>
			<path d="M342.274,273.264h-198.74c-6.1,0-11.041,4.946-11.041,11.041c0,6.095,4.941,11.041,11.041,11.041h198.74
				c6.095,0,11.041-4.946,11.041-11.041C353.315,278.211,348.369,273.264,342.274,273.264z"/>
			<path d="M325.712,333.99c6.095,0,11.041-4.946,11.041-11.041c0-6.095-4.946-11.041-11.041-11.041H176.658
				c-6.1,0-11.041,4.946-11.041,11.041c0,6.095,4.941,11.041,11.041,11.041H325.712z"/>
			<path d="M342.274,350.552H209.781c-6.1,0-11.041,4.946-11.041,11.041s4.941,11.041,11.041,11.041h132.493
				c6.095,0,11.041-4.946,11.041-11.041S348.369,350.552,342.274,350.552z"/>
			<path d="M11.041,295.347h99.37c6.095,0,11.041-4.946,11.041-11.041c0-6.095-4.946-11.041-11.041-11.041h-99.37
				c-6.1,0-11.041,4.946-11.041,11.041C0,290.4,4.941,295.347,11.041,295.347z"/>
			<path d="M16.562,322.949c0,6.095,4.941,11.041,11.041,11.041h115.932c6.095,0,11.041-4.946,11.041-11.041
				c0-6.095-4.946-11.041-11.041-11.041H27.603C21.503,311.908,16.562,316.855,16.562,322.949z"/>
			<path d="M176.658,350.552H11.041c-6.1,0-11.041,4.946-11.041,11.041s4.941,11.041,11.041,11.041h165.616
				c6.095,0,11.041-4.946,11.041-11.041S182.752,350.552,176.658,350.552z"/>
		</g>
	</g>
</g>
<g>
</g>
<g>
</g>
<g>
</g>
<g>
</g>
<g>
</g>
<g>
</g>
<g>
</g>
<g>
</g>
<g>
</g>
<g>
</g>
<g>
</g>
<g>
</g>
<g>
</g>
<g>
</g>
<g>
</g>
</svg>
