<?xml version="1.0" encoding="iso-8859-1"?>
<!-- Generator: Adobe Illustrator 19.0.0, SVG Export Plug-In . SVG Version: 6.00 Build 0)  -->
<svg version="1.1" id="Capa_1" xmlns="http://www.w3.org/2000/svg" xmlns:xlink="http://www.w3.org/1999/xlink" x="0px" y="0px"
	 viewBox="0 0 353.315 353.315" style="enable-background:new 0 0 353.315 353.315;" xml:space="preserve">
<g>
	<g id="Dibujo_40_">
		<g>
			<path d="M60.726,171.137h165.616c6.095,0,11.041-4.946,11.041-11.041c0-6.095-4.946-11.041-11.041-11.041H60.726
				c-6.095,0-11.041,4.946-11.041,11.041C49.685,166.191,54.631,171.137,60.726,171.137z"/>
			<path d="M27.597,204.26h132.499c6.095,0,11.041-4.946,11.041-11.041s-4.946-11.041-11.041-11.041H27.597
				c-6.095,0-11.041,4.946-11.041,11.041S21.503,204.26,27.597,204.26z"/>
			<path d="M353.315,226.342c0-6.095-4.946-11.041-11.041-11.041H11.041C4.946,215.301,0,220.248,0,226.342
				s4.946,11.041,11.041,11.041h331.233C348.374,237.384,353.315,232.437,353.315,226.342z"/>
			<path d="M342.274,248.425H27.603c-6.095,0-11.041,4.946-11.041,11.041c0,6.095,4.946,11.041,11.041,11.041h314.671
				c6.095,0,11.041-4.946,11.041-11.041C353.315,253.371,348.374,248.425,342.274,248.425z"/>
			<path d="M126.973,281.548l-66.247-0.006c-6.095,0-11.041,4.946-11.041,11.041s4.946,11.041,11.041,11.041l66.247,0.005
				c6.095,0,11.041-4.946,11.041-11.041S133.073,281.548,126.973,281.548z"/>
			<path d="M309.151,281.542l-149.055,0.006c-6.095,0-11.041,4.946-11.041,11.041s4.946,11.041,11.041,11.041l149.055-0.005
				c6.095,0,11.041-4.946,11.041-11.041S315.251,281.542,309.151,281.542z"/>
			<path d="M126.973,138.014h66.247c6.095,0,11.041-4.946,11.041-11.041c0-26.984,19.454-49.508,45.081-54.273
				c2.484,16.109,9.981,30.959,21.712,42.69c11.731,11.731,26.581,19.223,42.685,21.712c-4.77,25.615-27.288,45.07-54.273,45.07
				l-66.247,0.006c-6.095,0-11.041,4.946-11.041,11.041s4.946,11.041,11.041,11.041l66.247-0.011
				c42.613,0,77.282-34.669,77.282-77.282c0-2.926-1.165-5.736-3.235-7.806c-2.07-2.07-4.88-3.235-7.806-3.235
				c-0.006,0-0.006,0-0.011,0c-14.751,0-28.618-5.736-39.03-16.153c-10.417-10.423-16.159-24.285-16.159-39.047
				c0-6.095-4.946-11.041-11.041-11.041c-38.87,0-71.127,28.845-76.498,66.247h-55.995c-6.095,0-11.041,4.946-11.041,11.041
				S120.878,138.014,126.973,138.014z"/>
		</g>
	</g>
</g>
<g>
</g>
<g>
</g>
<g>
</g>
<g>
</g>
<g>
</g>
<g>
</g>
<g>
</g>
<g>
</g>
<g>
</g>
<g>
</g>
<g>
</g>
<g>
</g>
<g>
</g>
<g>
</g>
<g>
</g>
</svg>
