<?xml version="1.0" encoding="iso-8859-1"?>
<!-- Generator: Adobe Illustrator 19.0.0, SVG Export Plug-In . SVG Version: 6.00 Build 0)  -->
<svg version="1.1" id="Capa_1" xmlns="http://www.w3.org/2000/svg" xmlns:xlink="http://www.w3.org/1999/xlink" x="0px" y="0px"
	 viewBox="0 0 154.575 154.575" style="enable-background:new 0 0 154.575 154.575;" xml:space="preserve">
<g>
	<g id="Dibujo_4_">
		<path d="M143.534,66.247c-30.44,0-55.205-24.765-55.205-55.205C88.329,4.946,83.382,0,77.288,0C34.669,0,0,34.669,0,77.288
			s34.669,77.288,77.288,77.288s77.288-34.669,77.288-77.288C154.575,71.193,149.629,66.247,143.534,66.247z M77.288,132.493
			c-30.44,0-55.205-24.765-55.205-55.205c0-26.984,19.46-49.514,45.092-54.278c5.156,33.046,31.34,59.23,64.392,64.392
			C126.801,113.033,104.278,132.493,77.288,132.493z"/>
	</g>
</g>
<g>
</g>
<g>
</g>
<g>
</g>
<g>
</g>
<g>
</g>
<g>
</g>
<g>
</g>
<g>
</g>
<g>
</g>
<g>
</g>
<g>
</g>
<g>
</g>
<g>
</g>
<g>
</g>
<g>
</g>
</svg>
