<?xml version="1.0" encoding="iso-8859-1"?>
<!-- Generator: Adobe Illustrator 19.0.0, SVG Export Plug-In . SVG Version: 6.00 Build 0)  -->
<svg version="1.1" id="Capa_1" xmlns="http://www.w3.org/2000/svg" xmlns:xlink="http://www.w3.org/1999/xlink" x="0px" y="0px"
	 viewBox="0 0 403 403" style="enable-background:new 0 0 403 403;" xml:space="preserve">
<g>
	<g id="Dibujo_45_">
		<g>
			<path d="M312.212,177.69c5.222-10.577,7.977-22.198,7.977-34.156c0-42.619-34.669-77.288-77.288-77.288
				c-25.395,0-49.1,12.592-63.464,33.239c-0.933-0.028-1.844-0.116-2.782-0.116c-42.309,0-78.491,27.669-90.046,67.262
				c-3.18-0.58-6.52-1.016-9.319-1.016c-33.482,0-60.726,27.244-60.726,60.726s27.244,60.726,60.726,60.726
				c6.1,0,11.041-4.946,11.041-11.041c0-6.095-4.941-11.041-11.041-11.041c-21.309,0-38.644-17.34-38.644-38.644
				s17.335-38.644,38.644-38.644c1.529,0,3.991,0.375,6.586,0.894v10.147c0,6.095,4.946,11.041,11.041,11.041
				c6.095,0,11.041-4.946,11.041-11.041v-17.782c5.929-34.514,35.536-59.506,70.696-59.506c35.171,0,64.778,25.003,70.702,59.528
				v17.76c0,6.095,4.946,11.041,11.041,11.041c6.095,0,11.041-4.946,11.041-11.041v-10.141c2.606-0.519,5.073-0.9,6.592-0.9
				c21.304,0,38.644,17.34,38.644,38.644s-17.34,38.644-38.644,38.644c-6.095,0-11.041,4.946-11.041,11.041
				c0,6.095,4.946,11.041,11.041,11.041c33.482,0,60.726-27.244,60.726-60.726C336.756,206.424,327.073,188.77,312.212,177.69z
				 M292.382,167.919c-5.211-1.463-10.682-2.302-16.352-2.302c-2.804,0-6.139,0.436-9.324,1.016
				c-8.877-30.424-32.317-53.743-61.88-62.94c10.136-9.677,23.705-15.364,38.075-15.364c30.44,0,55.205,24.765,55.205,55.205
				C298.107,152.08,296.114,160.372,292.382,167.919z"/>
			<path d="M242.901,44.164c6.095,0,11.041-4.946,11.041-11.041V11.041C253.942,4.946,248.996,0,242.901,0
				S231.86,4.946,231.86,11.041v22.082C231.86,39.218,236.801,44.164,242.901,44.164z"/>
			<path d="M375.395,132.493h-22.082c-6.095,0-11.041,4.946-11.041,11.041c0,6.095,4.946,11.041,11.041,11.041h22.082
				c6.095,0,11.041-4.946,11.041-11.041C386.436,137.44,381.489,132.493,375.395,132.493z"/>
			<path d="M320.973,76.498c2.827,0,5.648-1.077,7.806-3.235l15.612-15.612c4.312-4.312,4.312-11.301,0-15.612
				c-4.312-4.312-11.301-4.312-15.612,0l-15.612,15.612c-4.312,4.312-4.312,11.301,0,15.612
				C315.325,75.422,318.146,76.498,320.973,76.498z"/>
			<path d="M157.018,73.263c2.153,2.159,4.98,3.235,7.806,3.235c2.827,0,5.653-1.077,7.806-3.235c4.312-4.312,4.312-11.301,0-15.612
				l-15.612-15.612c-4.306-4.312-11.306-4.312-15.612,0c-4.312,4.312-4.312,11.301,0,15.612L157.018,73.263z"/>
			<path d="M130.282,269.403c-4.174-5.554-13.492-5.554-17.666,0c-4.405,5.868-18.77,26.085-18.77,39.748
				c0,16.252,11.35,27.603,27.603,27.603s27.603-11.35,27.603-27.603C149.052,295.487,134.682,275.271,130.282,269.403z"/>
			<path d="M223.022,269.403c-4.4,5.868-18.764,26.085-18.764,39.748c0,16.252,11.35,27.603,27.603,27.603
				s27.603-11.35,27.603-27.603c0-13.663-14.37-33.88-18.77-39.748C236.52,263.849,227.195,263.849,223.022,269.403z"/>
			<path d="M167.816,335.649c-4.4,5.868-18.764,26.085-18.764,39.748c0,16.253,11.35,27.603,27.603,27.603
				s27.603-11.35,27.603-27.603c0-13.663-14.37-33.88-18.77-39.748C181.314,330.096,171.99,330.096,167.816,335.649z"/>
		</g>
	</g>
</g>
<g>
</g>
<g>
</g>
<g>
</g>
<g>
</g>
<g>
</g>
<g>
</g>
<g>
</g>
<g>
</g>
<g>
</g>
<g>
</g>
<g>
</g>
<g>
</g>
<g>
</g>
<g>
</g>
<g>
</g>
</svg>
