<?xml version="1.0" encoding="iso-8859-1"?>
<!-- Generator: Adobe Illustrator 19.0.0, SVG Export Plug-In . SVG Version: 6.00 Build 0)  -->
<svg version="1.1" id="Capa_1" xmlns="http://www.w3.org/2000/svg" xmlns:xlink="http://www.w3.org/1999/xlink" x="0px" y="0px"
	 viewBox="0 0 419.562 419.562" style="enable-background:new 0 0 419.562 419.562;" xml:space="preserve">
<g>
	<g id="Dibujo_19_">
		<path d="M184.936,375.397c-6.1,0-11.041,4.946-11.041,11.041v22.082c0,6.095,4.941,11.041,11.041,11.041
			c6.095,0,11.041-4.946,11.041-11.041v-22.082C195.977,380.344,191.03,375.397,184.936,375.397z M165.299,73.263
			c2.159,2.159,4.98,3.235,7.806,3.235s5.653-1.077,7.806-3.235c4.312-4.312,4.312-11.301,0-15.612l-15.612-15.612
			c-4.312-4.312-11.301-4.312-15.612,0s-4.312,11.301,0,15.612L165.299,73.263z M251.182,44.164c6.095,0,11.041-4.946,11.041-11.041
			V11.041C262.223,4.946,257.277,0,251.182,0c-6.1,0-11.041,4.946-11.041,11.041v22.082
			C240.141,39.218,245.082,44.164,251.182,44.164z M329.259,76.498c2.827,0,5.648-1.077,7.806-3.235l15.612-15.612
			c4.312-4.312,4.312-11.301,0-15.612c-4.312-4.312-11.301-4.312-15.612,0l-15.612,15.612c-4.312,4.312-4.312,11.301,0,15.612
			C323.606,75.422,326.433,76.498,329.259,76.498z M135.251,342.274c-6.1,0-11.041,4.946-11.041,11.041v22.082
			c0,6.095,4.941,11.041,11.041,11.041c6.095,0,11.041-4.946,11.041-11.041v-22.082C146.292,347.22,141.345,342.274,135.251,342.274
			z M383.675,132.493h-22.082c-6.1,0-11.041,4.946-11.041,11.041c0,6.095,4.941,11.041,11.041,11.041h22.082
			c6.095,0,11.041-4.946,11.041-11.041C394.716,137.44,389.77,132.493,383.675,132.493z M184.936,309.151
			c-6.1,0-11.041,4.946-11.041,11.041v22.082c0,6.095,4.941,11.041,11.041,11.041c6.095,0,11.041-4.946,11.041-11.041v-22.082
			C195.977,314.097,191.03,309.151,184.936,309.151z M320.498,177.69c5.217-10.577,7.972-22.198,7.972-34.156
			c0-42.619-34.669-77.288-77.288-77.288c-25.4,0-49.105,12.592-63.464,33.239c-0.927-0.028-1.844-0.116-2.777-0.116
			c-42.309,0-78.497,27.669-90.051,67.262c-3.18-0.58-6.52-1.016-9.319-1.016c-33.488,0-60.726,27.244-60.726,60.726
			s27.238,60.726,60.726,60.726h38.638v22.082c0,6.095,4.941,11.041,11.041,11.041c6.095,0,11.041-4.946,11.041-11.041v-22.082
			h77.288v22.082c0,6.095,4.941,11.041,11.041,11.041c6.095,0,11.041-4.946,11.041-11.041v-22.082h38.649
			c33.482,0,60.726-27.244,60.726-60.726C345.037,206.424,335.354,188.77,320.498,177.69z M251.182,88.329
			c30.44,0,55.205,24.765,55.205,55.205c0,8.546-1.987,16.838-5.719,24.384c-5.217-1.463-10.688-2.302-16.357-2.302
			c-2.804,0-6.139,0.436-9.33,1.016c-8.877-30.424-32.317-53.743-61.885-62.94C223.243,94.015,236.812,88.329,251.182,88.329z
			 M284.311,264.986H85.571c-21.304,0-38.644-17.34-38.644-38.644s17.34-38.644,38.644-38.644c1.529,0,3.991,0.375,6.58,0.894
			v10.147c0,6.095,4.946,11.041,11.041,11.041s11.041-4.946,11.041-11.041v-17.743c5.912-34.537,35.525-59.545,70.707-59.545
			c35.166,0,64.773,24.997,70.696,59.517v17.771c0,6.095,4.946,11.041,11.041,11.041s11.041-4.946,11.041-11.041v-10.141
			c2.6-0.519,5.079-0.9,6.592-0.9c21.304,0,38.644,17.34,38.644,38.644S305.615,264.986,284.311,264.986z M234.621,342.274
			c-6.1,0-11.041,4.946-11.041,11.041v22.082c0,6.095,4.941,11.041,11.041,11.041c6.095,0,11.041-4.946,11.041-11.041v-22.082
			C245.662,347.22,240.715,342.274,234.621,342.274z"/>
	</g>
</g>
<g>
</g>
<g>
</g>
<g>
</g>
<g>
</g>
<g>
</g>
<g>
</g>
<g>
</g>
<g>
</g>
<g>
</g>
<g>
</g>
<g>
</g>
<g>
</g>
<g>
</g>
<g>
</g>
<g>
</g>
</svg>
