<?xml version="1.0" encoding="iso-8859-1"?>
<!-- Generator: Adobe Illustrator 19.0.0, SVG Export Plug-In . SVG Version: 6.00 Build 0)  -->
<svg version="1.1" id="Capa_1" xmlns="http://www.w3.org/2000/svg" xmlns:xlink="http://www.w3.org/1999/xlink" x="0px" y="0px"
	 viewBox="0 0 369.877 369.877" style="enable-background:new 0 0 369.877 369.877;" xml:space="preserve">
<g>
	<g id="Dibujo_46_">
		<g>
			<path d="M302.195,135.187c16.192-14.364,26.278-35.298,26.278-57.9c0-6.095-4.946-11.041-11.041-11.041
				c-30.44,0-55.206-24.765-55.206-55.205C262.226,4.946,257.28,0,251.185,0c-39.074,0-71.386,29.171-76.498,66.859
				c-37.805,4.069-69.189,30.297-79.794,66.644c-3.185-0.574-6.525-1.01-9.324-1.01c-33.482,0-60.726,27.244-60.726,60.726
				s27.244,60.726,60.726,60.726c6.095,0,11.041-4.946,11.041-11.041c0-6.095-4.946-11.041-11.041-11.041
				c-21.304,0-38.644-17.34-38.644-38.644s17.34-38.644,38.644-38.644c1.529,0,3.997,0.375,6.592,0.894v10.147
				c0,6.095,4.946,11.041,11.041,11.041c6.095,0,11.041-4.946,11.041-11.041v-17.798c5.935-34.509,35.536-59.489,70.696-59.489
				c35.177,0,64.789,25.008,70.707,59.55v17.738c0,6.095,4.946,11.041,11.041,11.041c6.095,0,11.041-4.946,11.041-11.041V155.47
				c2.589-0.519,5.051-0.894,6.581-0.894c21.304,0,38.644,17.34,38.644,38.644s-17.34,38.644-38.644,38.644
				c-6.095,0-11.041,4.946-11.041,11.041c0,6.095,4.946,11.041,11.041,11.041c33.482,0,60.726-27.244,60.726-60.726
				C345.034,165.964,326.971,142.844,302.195,135.187z M196.94,67.075c4.19-22.297,21.817-39.914,44.131-44.065
				c5.156,33.04,31.329,59.224,64.37,64.392c-3.395,17.92-15.678,33.156-32.361,40.444C261.183,95.009,231.968,71.502,196.94,67.075
				z"/>
			<path d="M138.566,236.279c-4.163-5.554-13.498-5.554-17.66,0c-4.411,5.868-18.775,26.085-18.775,39.748
				c0,16.252,11.35,27.603,27.603,27.603s27.603-11.35,27.603-27.603C157.336,262.364,142.966,242.148,138.566,236.279z"/>
			<path d="M231.311,236.279c-4.405,5.868-18.77,26.085-18.77,39.748c0,16.252,11.35,27.603,27.603,27.603
				s27.603-11.35,27.603-27.603c0-13.663-14.37-33.88-18.77-39.748C244.814,230.726,235.473,230.726,231.311,236.279z"/>
			<path d="M176.105,302.526c-4.405,5.868-18.77,26.085-18.77,39.748c0,16.252,11.35,27.603,27.603,27.603
				s27.603-11.35,27.603-27.603c0-13.663-14.37-33.88-18.77-39.748C189.609,296.972,180.268,296.972,176.105,302.526z"/>
		</g>
	</g>
</g>
<g>
</g>
<g>
</g>
<g>
</g>
<g>
</g>
<g>
</g>
<g>
</g>
<g>
</g>
<g>
</g>
<g>
</g>
<g>
</g>
<g>
</g>
<g>
</g>
<g>
</g>
<g>
</g>
<g>
</g>
</svg>
