<?xml version="1.0" encoding="iso-8859-1"?>
<!-- Generator: Adobe Illustrator 19.0.0, SVG Export Plug-In . SVG Version: 6.00 Build 0)  -->
<svg version="1.1" id="Capa_1" xmlns="http://www.w3.org/2000/svg" xmlns:xlink="http://www.w3.org/1999/xlink" x="0px" y="0px"
	 viewBox="0 0 369.871 369.871" style="enable-background:new 0 0 369.871 369.871;" xml:space="preserve">
<g>
	<g id="Dibujo_48_">
		<g>
			<path d="M226.337,52.442c6.095,0,11.041-4.946,11.041-11.041V19.319c0-6.095-4.946-11.041-11.041-11.041
				c-6.1,0-11.041,4.946-11.041,11.041v22.082C215.296,47.496,220.242,52.442,226.337,52.442z"/>
			<path d="M358.83,140.771h-22.082c-6.1,0-11.041,4.946-11.041,11.041c0,6.095,4.941,11.041,11.041,11.041h22.082
				c6.095,0,11.041-4.946,11.041-11.041C369.871,145.718,364.93,140.771,358.83,140.771z"/>
			<path d="M304.414,84.776c2.827,0,5.648-1.077,7.806-3.235l15.612-15.612c4.312-4.312,4.312-11.301,0-15.612
				c-4.312-4.312-11.301-4.312-15.612,0l-15.612,15.612c-4.312,4.312-4.312,11.301,0,15.612
				C298.761,83.7,301.588,84.776,304.414,84.776z"/>
			<path d="M140.454,81.541c2.159,2.159,4.98,3.235,7.806,3.235c2.827,0,5.648-1.077,7.806-3.235c4.312-4.312,4.312-11.301,0-15.612
				l-15.612-15.612c-4.312-4.312-11.301-4.312-15.612,0s-4.312,11.301,0,15.612L140.454,81.541z"/>
			<path d="M151.705,243.994c-3.66,4.273-35.773,42.635-35.779,73.429c-0.006,11.389,3.931,22.082,11.074,30.115
				c5.697,6.409,16.07,14.05,33.101,14.055c28.977,0,44.148-22.215,44.153-44.164c0.006-30.799-32.119-69.156-35.779-73.434
				C164.28,239.103,155.9,239.103,151.705,243.994z M160.101,339.511l-0.011,11.041L160.101,339.511
				c-7.099,0-12.681-2.236-16.606-6.647c-3.489-3.925-5.487-9.545-5.487-15.435c0.006-14.392,12.327-34.79,22.082-48.288
				c9.76,13.498,22.088,33.896,22.082,48.283C182.167,327.614,176.387,339.511,160.101,339.511z"/>
			<path d="M295.653,185.968c5.217-10.572,7.972-22.198,7.972-34.156c0-42.619-34.669-77.288-77.288-77.288
				c-25.4,0-49.105,12.592-63.464,33.239c-0.927-0.028-1.844-0.116-2.777-0.116c-42.309,0-78.497,27.669-90.051,67.262
				c-3.18-0.58-6.52-1.016-9.319-1.016C27.238,173.895,0,201.138,0,234.621s27.238,60.726,60.726,60.726h33.118
				c6.095,0,11.041-4.946,11.041-11.041c0-6.095-4.946-11.041-11.041-11.041H60.726c-21.304,0-38.644-17.34-38.644-38.644
				s17.34-38.644,38.644-38.644c1.529,0,3.991,0.375,6.586,0.894v10.147c0,6.095,4.941,11.041,11.041,11.041
				s11.041-4.946,11.041-11.041v-17.771c5.924-34.52,35.53-59.517,70.702-59.517c35.177,0,64.789,25.008,70.702,59.545v17.743
				c0,6.095,4.946,11.041,11.041,11.041s11.041-4.946,11.041-11.041v-10.141c2.6-0.519,5.073-0.9,6.586-0.9
				c21.304,0,38.644,17.34,38.644,38.644s-17.34,38.644-38.644,38.644h-33.129c-6.1,0-11.041,4.946-11.041,11.041
				c0,6.095,4.941,11.041,11.041,11.041h33.129c33.482,0,60.726-27.244,60.726-60.726
				C320.192,214.702,310.509,197.048,295.653,185.968z M250.142,174.91c-8.877-30.424-32.317-53.743-61.885-62.94
				c10.147-9.677,23.716-15.364,38.081-15.364c30.44,0,55.205,24.765,55.205,55.205c0,8.546-1.987,16.838-5.719,24.384
				c-5.211-1.463-10.688-2.302-16.357-2.302C256.661,173.895,253.327,174.331,250.142,174.91z"/>
		</g>
	</g>
</g>
<g>
</g>
<g>
</g>
<g>
</g>
<g>
</g>
<g>
</g>
<g>
</g>
<g>
</g>
<g>
</g>
<g>
</g>
<g>
</g>
<g>
</g>
<g>
</g>
<g>
</g>
<g>
</g>
<g>
</g>
</svg>
