<?xml version="1.0" encoding="iso-8859-1"?>
<!-- Generator: Adobe Illustrator 19.0.0, SVG Export Plug-In . SVG Version: 6.00 Build 0)  -->
<svg version="1.1" id="Capa_1" xmlns="http://www.w3.org/2000/svg" xmlns:xlink="http://www.w3.org/1999/xlink" x="0px" y="0px"
	 viewBox="0 0 320.192 320.192" style="enable-background:new 0 0 320.192 320.192;" xml:space="preserve">
<g>
	<g id="Dibujo_44_">
		<g>
			<path d="M259.466,74.527c-2.804,0-6.139,0.436-9.324,1.016C238.587,35.95,202.4,8.281,160.096,8.281
				c-42.309,0-78.497,27.669-90.051,67.262c-3.18-0.58-6.52-1.016-9.319-1.016C27.244,74.527,0,101.771,0,135.253
				s27.244,60.726,60.726,60.726c6.095,0,11.041-4.946,11.041-11.041s-4.946-11.041-11.041-11.041
				c-21.304,0-38.644-17.34-38.644-38.644S39.422,96.61,60.726,96.61c1.529,0,3.997,0.375,6.592,0.894v10.147
				c0,6.095,4.946,11.041,11.041,11.041c6.095,0,11.041-4.946,11.041-11.041V89.852c5.935-34.509,35.536-59.489,70.696-59.489
				c35.177,0,64.789,25.008,70.707,59.55v17.738c0,6.095,4.946,11.041,11.041,11.041c6.095,0,11.041-4.946,11.041-11.041V97.504
				c2.589-0.519,5.051-0.894,6.581-0.894c21.304,0,38.644,17.34,38.644,38.644s-17.34,38.644-38.644,38.644
				c-6.1,0-11.041,4.946-11.041,11.041s4.941,11.041,11.041,11.041c33.482,0,60.726-27.244,60.726-60.726
				S292.948,74.527,259.466,74.527z"/>
			<path d="M113.723,178.314c-4.163-5.554-13.498-5.554-17.66,0c-4.411,5.868-18.775,26.085-18.775,39.748
				c0,16.252,11.35,27.603,27.603,27.603s27.603-11.35,27.603-27.603C132.493,204.398,118.123,184.182,113.723,178.314z"/>
			<path d="M206.469,178.314c-4.405,5.868-18.77,26.085-18.77,39.748c0,16.252,11.35,27.603,27.603,27.603
				s27.603-11.35,27.603-27.603c0-13.663-14.37-33.88-18.77-39.748C219.972,172.76,210.631,172.76,206.469,178.314z"/>
			<path d="M151.263,244.56c-4.405,5.868-18.77,26.085-18.77,39.748c0,16.252,11.35,27.603,27.603,27.603
				s27.603-11.35,27.603-27.603c0-13.663-14.37-33.88-18.77-39.748C164.766,239.007,155.426,239.007,151.263,244.56z"/>
		</g>
	</g>
</g>
<g>
</g>
<g>
</g>
<g>
</g>
<g>
</g>
<g>
</g>
<g>
</g>
<g>
</g>
<g>
</g>
<g>
</g>
<g>
</g>
<g>
</g>
<g>
</g>
<g>
</g>
<g>
</g>
<g>
</g>
</svg>
