<?xml version="1.0" encoding="iso-8859-1"?>
<!-- Generator: Adobe Illustrator 19.0.0, SVG Export Plug-In . SVG Version: 6.00 Build 0)  -->
<svg version="1.1" id="Capa_1" xmlns="http://www.w3.org/2000/svg" xmlns:xlink="http://www.w3.org/1999/xlink" x="0px" y="0px"
	 viewBox="0 0 320.192 320.192" style="enable-background:new 0 0 320.192 320.192;" xml:space="preserve">
<g>
	<g id="Dibujo_49_">
		<g>
			<path d="M151.71,202.593c-3.66,4.273-35.773,42.635-35.779,73.429c-0.006,11.389,3.931,22.082,11.074,30.115
				c5.697,6.409,16.07,14.05,33.101,14.055c28.977,0,44.148-22.215,44.153-44.164c0.006-30.799-32.119-69.156-35.779-73.434
				C164.286,197.702,155.906,197.702,151.71,202.593z M160.107,298.11l-0.011,11.041L160.107,298.11
				c-7.099,0-12.681-2.236-16.606-6.647c-3.489-3.925-5.487-9.551-5.487-15.435c0.006-14.392,12.327-34.791,22.082-48.288
				c9.76,13.498,22.088,33.896,22.082,48.283C182.173,286.213,176.393,298.11,160.107,298.11z"/>
			<path d="M277.352,135.187c16.192-14.364,26.278-35.298,26.278-57.9c0-6.095-4.946-11.041-11.041-11.041
				c-30.44,0-55.205-24.765-55.205-55.205C237.384,4.946,232.437,0,226.342,0c-39.074,0-71.386,29.171-76.498,66.859
				c-37.805,4.069-69.189,30.297-79.794,66.644c-3.185-0.574-6.525-1.01-9.324-1.01C27.244,132.493,0,159.737,0,193.219
				s27.244,60.726,60.726,60.726l33.123-0.006c6.095,0,11.041-4.946,11.041-11.041s-4.946-11.041-11.041-11.041l-33.123,0.006
				c-21.304,0-38.644-17.34-38.644-38.644s17.34-38.644,38.644-38.644c1.529,0,3.997,0.375,6.592,0.894v10.147
				c0,6.095,4.946,11.041,11.041,11.041c6.095,0,11.041-4.946,11.041-11.041v-17.798c5.935-34.509,35.536-59.489,70.696-59.489
				c35.177,0,64.789,25.008,70.707,59.55v17.738c0,6.095,4.946,11.041,11.041,11.041c6.095,0,11.041-4.946,11.041-11.041V155.47
				c2.589-0.519,5.051-0.894,6.581-0.894c21.304,0,38.644,17.34,38.644,38.644s-17.34,38.644-38.644,38.644l-33.123-0.006
				c-6.1,0-11.041,4.946-11.041,11.041s4.941,11.041,11.041,11.041l33.123,0.006c33.482,0,60.726-27.244,60.726-60.726
				C320.192,165.964,302.129,142.844,277.352,135.187z M172.098,67.075c4.19-22.297,21.817-39.914,44.131-44.065
				c5.156,33.04,31.329,59.224,64.37,64.392c-3.395,17.92-15.678,33.156-32.361,40.444C236.34,95.009,207.125,71.502,172.098,67.075
				z"/>
		</g>
	</g>
</g>
<g>
</g>
<g>
</g>
<g>
</g>
<g>
</g>
<g>
</g>
<g>
</g>
<g>
</g>
<g>
</g>
<g>
</g>
<g>
</g>
<g>
</g>
<g>
</g>
<g>
</g>
<g>
</g>
<g>
</g>
</svg>
