<?xml version="1.0" encoding="iso-8859-1"?>
<!-- Generator: Adobe Illustrator 19.0.0, SVG Export Plug-In . SVG Version: 6.00 Build 0)  -->
<svg version="1.1" id="Capa_1" xmlns="http://www.w3.org/2000/svg" xmlns:xlink="http://www.w3.org/1999/xlink" x="0px" y="0px"
	 viewBox="0 0 386.438 386.438" style="enable-background:new 0 0 386.438 386.438;" xml:space="preserve">
<g>
	<g id="Dibujo_20_">
		<g>
			<path d="M310.476,135.187c16.192-14.364,26.278-35.298,26.278-57.9c0-6.095-4.946-11.041-11.041-11.041
				c-30.44,0-55.206-24.765-55.206-55.205C270.507,4.946,265.56,0,259.466,0c-39.074,0-71.381,29.171-76.498,66.859
				c-37.805,4.074-69.189,30.302-79.8,66.65c-3.18-0.58-6.52-1.016-9.319-1.016c-33.482,0-60.726,27.244-60.726,60.726
				s27.244,60.726,60.726,60.726h38.644v22.082c0,6.095,4.946,11.041,11.041,11.041c6.095,0,11.041-4.946,11.041-11.041v-22.082
				h77.288v22.082c0,6.095,4.946,11.041,11.041,11.041c6.095,0,11.041-4.946,11.041-11.041v-22.082h38.644
				c33.482,0,60.726-27.244,60.726-60.726C353.315,165.959,335.257,142.844,310.476,135.187z M249.347,23.01
				c5.162,33.04,31.335,59.224,64.375,64.392c-3.395,17.92-15.678,33.156-32.361,40.444c-11.897-32.836-41.117-56.343-76.139-60.77
				C209.411,44.777,227.033,27.161,249.347,23.01z M292.589,231.863H93.849c-21.309,0-38.644-17.34-38.644-38.644
				s17.335-38.644,38.644-38.644c1.529,0,3.991,0.375,6.586,0.894v10.147c0,6.095,4.946,11.041,11.041,11.041
				c6.095,0,11.041-4.946,11.041-11.041v-17.782c5.935-34.514,35.536-59.506,70.702-59.506c35.16,0,64.767,24.992,70.702,59.506
				v17.782c0,6.095,4.946,11.041,11.041,11.041c6.095,0,11.041-4.946,11.041-11.041v-10.141c2.595-0.519,5.073-0.9,6.586-0.9
				c21.304,0,38.644,17.34,38.644,38.644S313.893,231.863,292.589,231.863z"/>
			<path d="M193.219,276.027c-6.095,0-11.041,4.946-11.041,11.041v22.082c0,6.095,4.946,11.041,11.041,11.041
				s11.041-4.946,11.041-11.041v-22.082C204.26,280.974,199.314,276.027,193.219,276.027z"/>
			<path d="M193.219,342.274c-6.095,0-11.041,4.946-11.041,11.041v22.082c0,6.095,4.946,11.041,11.041,11.041
				s11.041-4.946,11.041-11.041v-22.082C204.26,347.22,199.314,342.274,193.219,342.274z"/>
			<path d="M143.534,309.151c-6.095,0-11.041,4.946-11.041,11.041v22.082c0,6.095,4.946,11.041,11.041,11.041
				c6.095,0,11.041-4.946,11.041-11.041v-22.082C154.575,314.097,149.629,309.151,143.534,309.151z"/>
			<path d="M242.904,309.151c-6.095,0-11.041,4.946-11.041,11.041v22.082c0,6.095,4.946,11.041,11.041,11.041
				c6.095,0,11.041-4.946,11.041-11.041v-22.082C253.945,314.097,248.999,309.151,242.904,309.151z"/>
		</g>
	</g>
</g>
<g>
</g>
<g>
</g>
<g>
</g>
<g>
</g>
<g>
</g>
<g>
</g>
<g>
</g>
<g>
</g>
<g>
</g>
<g>
</g>
<g>
</g>
<g>
</g>
<g>
</g>
<g>
</g>
<g>
</g>
</svg>
