<?xml version="1.0" encoding="iso-8859-1"?>
<!-- Generator: Adobe Illustrator 19.0.0, SVG Export Plug-In . SVG Version: 6.00 Build 0)  -->
<svg version="1.1" id="Capa_1" xmlns="http://www.w3.org/2000/svg" xmlns:xlink="http://www.w3.org/1999/xlink" x="0px" y="0px"
	 viewBox="0 0 320.192 320.192" style="enable-background:new 0 0 320.192 320.192;" xml:space="preserve">
<g>
	<g id="Dibujo_47_">
		<g>
			<path d="M151.71,169.47c-3.66,4.273-35.773,42.635-35.779,73.429c-0.006,11.389,3.931,22.082,11.074,30.115
				c5.697,6.409,16.07,14.05,33.101,14.055c28.977,0,44.148-22.215,44.153-44.164c0.006-30.799-32.119-69.156-35.779-73.434
				C164.286,164.579,155.906,164.579,151.71,169.47z M160.107,264.986l-0.011,11.041L160.107,264.986
				c-7.099,0-12.681-2.236-16.606-6.647c-3.489-3.925-5.487-9.551-5.487-15.435c0.006-14.392,12.327-34.791,22.082-48.288
				c9.76,13.498,22.088,33.896,22.082,48.283C182.173,253.09,176.393,264.986,160.107,264.986z"/>
			<path d="M259.466,99.37c-2.804,0-6.139,0.436-9.33,1.016c-11.549-39.593-47.736-67.262-90.04-67.262
				c-42.309,0-78.497,27.669-90.051,67.262c-3.18-0.58-6.52-1.016-9.319-1.016C27.244,99.37,0,126.614,0,160.096
				s27.244,60.726,60.726,60.726h33.123c6.095,0,11.041-4.946,11.041-11.041s-4.946-11.041-11.041-11.041H60.726
				c-21.304,0-38.644-17.34-38.644-38.644s17.34-38.644,38.644-38.644c1.529,0,3.991,0.375,6.586,0.894v10.147
				c0,6.095,4.941,11.041,11.041,11.041s11.041-4.946,11.041-11.041v-17.771c5.924-34.52,35.53-59.517,70.702-59.517
				c35.177,0,64.789,25.008,70.702,59.545v17.743c0,6.095,4.946,11.041,11.041,11.041s11.041-4.946,11.041-11.041v-10.141
				c2.6-0.519,5.073-0.9,6.586-0.9c21.304,0,38.644,17.34,38.644,38.644s-17.34,38.644-38.644,38.644h-33.123
				c-6.1,0-11.041,4.946-11.041,11.041s4.941,11.041,11.041,11.041h33.123c33.482,0,60.726-27.244,60.726-60.726
				S292.948,99.37,259.466,99.37z"/>
		</g>
	</g>
</g>
<g>
</g>
<g>
</g>
<g>
</g>
<g>
</g>
<g>
</g>
<g>
</g>
<g>
</g>
<g>
</g>
<g>
</g>
<g>
</g>
<g>
</g>
<g>
</g>
<g>
</g>
<g>
</g>
<g>
</g>
</svg>
