<?xml version="1.0" encoding="iso-8859-1"?>
<!-- Generator: Adobe Illustrator 19.0.0, SVG Export Plug-In . SVG Version: 6.00 Build 0)  -->
<svg version="1.1" id="Capa_1" xmlns="http://www.w3.org/2000/svg" xmlns:xlink="http://www.w3.org/1999/xlink" x="0px" y="0px"
	 viewBox="0 0 331.233 331.233" style="enable-background:new 0 0 331.233 331.233;" xml:space="preserve">
<g>
	<g id="Dibujo_32_">
		<g>
			<path d="M282.873,135.187c16.192-14.364,26.278-35.298,26.278-57.9c0-6.095-4.946-11.041-11.041-11.041
				c-30.44,0-55.205-24.765-55.205-55.205C242.904,4.946,237.958,0,231.863,0c-39.074,0-71.386,29.171-76.498,66.859
				c-37.805,4.069-69.189,30.297-79.794,66.644c-3.185-0.574-6.525-1.01-9.324-1.01c-33.482,0-60.726,27.244-60.726,60.726
				s27.244,60.726,60.726,60.726c6.095,0,11.041-4.946,11.041-11.041c0-6.095-4.946-11.041-11.041-11.041
				c-21.304,0-38.644-17.34-38.644-38.644s17.34-38.644,38.644-38.644c1.529,0,3.991,0.375,6.586,0.894v10.147
				c0,6.095,4.941,11.041,11.041,11.041s11.041-4.946,11.041-11.041v-17.771c5.924-34.52,35.53-59.517,70.702-59.517
				c35.166,0,64.773,24.997,70.702,59.523v17.765c0,6.095,4.946,11.041,11.041,11.041c6.095,0,11.041-4.946,11.041-11.041V155.47
				c2.595-0.519,5.057-0.894,6.586-0.894c21.304,0,38.644,17.34,38.644,38.644s-17.34,38.644-38.644,38.644
				c-6.1,0-11.041,4.946-11.041,11.041c0,6.095,4.941,11.041,11.041,11.041c33.482,0,60.726-27.244,60.726-60.726
				C325.712,165.959,307.649,142.844,282.873,135.187z M177.618,67.075c4.19-22.297,21.817-39.914,44.131-44.065
				c5.156,33.04,31.329,59.224,64.37,64.392c-3.395,17.92-15.678,33.156-32.361,40.444
				C241.861,95.009,212.646,71.502,177.618,67.075z"/>
			<path d="M153.096,256.507c-3.058-5.278-9.788-7.099-15.082-4.047c-5.278,3.053-7.088,9.799-4.041,15.082l5.521,9.562
				c2.048,3.544,5.758,5.521,9.573,5.521c1.871,0,3.771-0.475,5.51-1.479c5.278-3.053,7.088-9.799,4.041-15.082L153.096,256.507z"/>
			<path d="M125.493,208.699c-3.058-5.283-9.788-7.094-15.082-4.041c-5.278,3.053-7.088,9.799-4.041,15.082l5.521,9.562
				c2.048,3.544,5.758,5.521,9.573,5.521c1.871,0,3.771-0.475,5.51-1.474c5.278-3.053,7.088-9.799,4.041-15.088L125.493,208.699z"/>
			<path d="M138.014,233.348c1.739,1.005,3.638,1.474,5.51,1.474c3.815,0,7.525-1.976,9.573-5.521l5.521-9.562
				c3.047-5.283,1.237-12.035-4.041-15.082c-5.294-3.053-12.035-1.242-15.082,4.041l-5.521,9.562
				C130.925,223.544,132.736,230.295,138.014,233.348z"/>
			<path d="M126.973,252.46c-5.294-3.058-12.035-1.237-15.082,4.047l-5.521,9.562c-3.047,5.283-1.237,12.035,4.041,15.082
				c1.739,1.005,3.638,1.479,5.51,1.479c3.815,0,7.524-1.976,9.573-5.521l5.521-9.562
				C134.061,262.265,132.25,255.513,126.973,252.46z"/>
			<path d="M121.452,242.904c0-6.095-4.946-11.041-11.041-11.041H99.37c-6.1,0-11.041,4.946-11.041,11.041
				c0,6.095,4.941,11.041,11.041,11.041h11.041C116.506,253.945,121.452,248.999,121.452,242.904z"/>
			<path d="M176.658,242.904c0-6.095-4.946-11.041-11.041-11.041h-11.041c-6.1,0-11.041,4.946-11.041,11.041
				c0,6.095,4.941,11.041,11.041,11.041h11.041C171.711,253.945,176.658,248.999,176.658,242.904z"/>
			<path d="M235.904,305.11c-3.058-5.278-9.793-7.094-15.082-4.041c-5.278,3.053-7.088,9.799-4.041,15.082l5.521,9.562
				c2.048,3.544,5.758,5.521,9.573,5.521c1.871,0,3.771-0.475,5.51-1.479c5.278-3.053,7.088-9.799,4.041-15.082L235.904,305.11z"/>
			<path d="M208.301,257.296c-3.058-5.278-9.793-7.099-15.082-4.041c-5.278,3.053-7.088,9.799-4.041,15.082l5.521,9.562
				c2.048,3.544,5.758,5.521,9.573,5.521c1.871,0,3.771-0.475,5.51-1.474c5.278-3.053,7.088-9.799,4.041-15.088L208.301,257.296z"/>
			<path d="M220.822,281.945c1.739,1.005,3.638,1.474,5.51,1.474c3.815,0,7.524-1.976,9.573-5.521l5.521-9.562
				c3.047-5.283,1.237-12.035-4.041-15.082c-5.294-3.058-12.035-1.237-15.082,4.041l-5.521,9.562
				C213.734,272.146,215.544,278.898,220.822,281.945z"/>
			<path d="M209.781,301.063c-5.294-3.053-12.035-1.237-15.082,4.041l-5.521,9.562c-3.047,5.283-1.237,12.035,4.041,15.082
				c1.739,1.01,3.638,1.485,5.51,1.485c3.815,0,7.525-1.976,9.573-5.521l5.521-9.562
				C216.869,310.868,215.058,304.116,209.781,301.063z"/>
			<path d="M204.26,291.507c0-6.095-4.946-11.041-11.041-11.041h-11.041c-6.1,0-11.041,4.946-11.041,11.041
				s4.941,11.041,11.041,11.041h11.041C199.314,302.548,204.26,297.602,204.26,291.507z"/>
			<path d="M248.425,280.466h-11.041c-6.1,0-11.041,4.946-11.041,11.041s4.941,11.041,11.041,11.041h11.041
				c6.095,0,11.041-4.946,11.041-11.041S254.519,280.466,248.425,280.466z"/>
		</g>
	</g>
</g>
<g>
</g>
<g>
</g>
<g>
</g>
<g>
</g>
<g>
</g>
<g>
</g>
<g>
</g>
<g>
</g>
<g>
</g>
<g>
</g>
<g>
</g>
<g>
</g>
<g>
</g>
<g>
</g>
<g>
</g>
</svg>
