<?xml version="1.0" encoding="iso-8859-1"?>
<!-- Generator: Adobe Illustrator 19.0.0, SVG Export Plug-In . SVG Version: 6.00 Build 0)  -->
<svg version="1.1" id="Capa_1" xmlns="http://www.w3.org/2000/svg" xmlns:xlink="http://www.w3.org/1999/xlink" x="0px" y="0px"
	 viewBox="0 0 386.438 386.438" style="enable-background:new 0 0 386.438 386.438;" xml:space="preserve">
<g>
	<g id="Dibujo_28_">
		<path d="M234.621,44.164c6.095,0,11.041-4.946,11.041-11.041V11.041C245.662,4.946,240.715,0,234.621,0
			c-6.1,0-11.041,4.946-11.041,11.041v22.082C223.579,39.218,228.52,44.164,234.621,44.164z M303.937,177.695
			c5.217-10.572,7.972-22.198,7.972-34.161c0-42.619-34.669-77.288-77.288-77.288c-25.4,0-49.105,12.592-63.464,33.239
			c-0.927-0.028-1.844-0.116-2.777-0.116c-42.309,0-78.497,27.669-90.051,67.262c-3.18-0.58-6.52-1.016-9.319-1.016
			c-33.482,0-60.726,27.244-60.726,60.726s27.244,60.726,60.726,60.726h62.178l-21.679,32.522c-2.258,3.384-2.468,7.74-0.552,11.334
			c1.927,3.588,5.67,5.83,9.738,5.83h12.493l-21.679,32.522c-3.379,5.073-2.009,11.93,3.064,15.309
			c1.877,1.259,4.008,1.855,6.111,1.855c3.566,0,7.066-1.728,9.197-4.919l33.123-49.685c2.258-3.384,2.468-7.74,0.552-11.334
			c-1.927-3.588-5.67-5.83-9.738-5.83h-12.493l18.4-27.603h28.663l-10.638,15.96c-2.258,3.384-2.468,7.74-0.552,11.334
			c1.932,3.588,5.675,5.83,9.744,5.83h12.493l-10.638,15.96c-3.379,5.073-2.009,11.93,3.064,15.309
			c1.877,1.259,4.008,1.855,6.111,1.855c3.566,0,7.066-1.728,9.197-4.919l22.082-33.123c2.258-3.384,2.468-7.74,0.552-11.334
			c-1.927-3.588-5.67-5.83-9.738-5.83h-12.493l7.359-11.041h54.819c33.482,0,60.726-27.244,60.726-60.726
			C328.475,206.43,318.792,188.77,303.937,177.695z M234.621,88.329c30.44,0,55.205,24.765,55.205,55.205
			c0,8.551-1.987,16.843-5.714,24.384c-5.217-1.463-10.688-2.302-16.363-2.302c-2.804,0-6.139,0.436-9.324,1.016
			c-8.877-30.424-32.323-53.743-61.891-62.94C206.681,94.015,220.251,88.329,234.621,88.329z M267.749,264.986H69.01
			c-21.304,0-38.644-17.34-38.644-38.644s17.34-38.644,38.644-38.644c1.529,0,3.991,0.375,6.586,0.894v10.147
			c0,6.095,4.941,11.041,11.041,11.041c6.1,0,11.041-4.946,11.041-11.041v-17.771c5.924-34.52,35.53-59.517,70.702-59.517
			c35.166,0,64.773,24.997,70.702,59.523v17.765c0,6.095,4.946,11.041,11.041,11.041c6.095,0,11.041-4.946,11.041-11.041v-10.141
			c2.595-0.519,5.073-0.9,6.586-0.9c21.304,0,38.644,17.34,38.644,38.644S289.053,264.986,267.749,264.986z M312.698,76.498
			c2.827,0,5.648-1.077,7.806-3.235l15.612-15.612c4.312-4.312,4.312-11.301,0-15.612c-4.312-4.312-11.301-4.312-15.612,0
			l-15.612,15.612c-4.312,4.312-4.312,11.301,0,15.612C307.045,75.422,309.871,76.498,312.698,76.498z M148.743,73.263
			c2.159,2.159,4.98,3.235,7.806,3.235s5.648-1.077,7.806-3.235c4.312-4.312,4.312-11.301,0-15.612l-15.612-15.612
			c-4.312-4.312-11.301-4.312-15.612,0s-4.312,11.301,0,15.612L148.743,73.263z M367.114,132.493h-22.082
			c-6.1,0-11.041,4.946-11.041,11.041c0,6.095,4.941,11.041,11.041,11.041h22.082c6.095,0,11.041-4.946,11.041-11.041
			C378.155,137.44,373.208,132.493,367.114,132.493z"/>
	</g>
</g>
<g>
</g>
<g>
</g>
<g>
</g>
<g>
</g>
<g>
</g>
<g>
</g>
<g>
</g>
<g>
</g>
<g>
</g>
<g>
</g>
<g>
</g>
<g>
</g>
<g>
</g>
<g>
</g>
<g>
</g>
</svg>
