<?xml version="1.0" encoding="iso-8859-1"?>
<!-- Generator: Adobe Illustrator 19.0.0, SVG Export Plug-In . SVG Version: 6.00 Build 0)  -->
<svg version="1.1" id="Capa_1" xmlns="http://www.w3.org/2000/svg" xmlns:xlink="http://www.w3.org/1999/xlink" x="0px" y="0px"
	 viewBox="0 0 353.315 353.315" style="enable-background:new 0 0 353.315 353.315;" xml:space="preserve">
<g>
	<g id="Dibujo_29_">
		<g>
			<g>
				<path d="M293.914,135.187c16.192-14.364,26.278-35.298,26.278-57.9c0-6.095-4.946-11.041-11.041-11.041
					c-30.44,0-55.205-24.765-55.205-55.205C253.945,4.946,248.999,0,242.904,0c-39.074,0-71.386,29.171-76.498,66.859
					c-37.805,4.069-69.189,30.297-79.794,66.644c-3.185-0.574-6.525-1.01-9.324-1.01c-33.482,0-60.726,27.244-60.726,60.726
					s27.244,60.726,60.726,60.726h62.178l-21.679,32.522c-2.258,3.384-2.468,7.74-0.552,11.334c1.927,3.588,5.67,5.83,9.738,5.83
					h12.493l-21.679,32.522c-3.379,5.073-2.009,11.93,3.064,15.309c1.877,1.259,4.008,1.855,6.111,1.855
					c3.566,0,7.066-1.728,9.197-4.919l33.123-49.685c2.258-3.384,2.468-7.74,0.552-11.334c-1.927-3.588-5.67-5.83-9.738-5.83
					h-12.493l18.4-27.603h28.663l-10.638,15.96c-2.258,3.384-2.468,7.74-0.552,11.334c1.932,3.588,5.675,5.83,9.744,5.83h12.493
					l-10.638,15.96c-3.379,5.073-2.009,11.93,3.064,15.309c1.877,1.259,4.008,1.855,6.111,1.855c3.566,0,7.066-1.728,9.197-4.919
					l22.082-33.123c2.258-3.384,2.468-7.74,0.552-11.334c-1.927-3.588-5.67-5.83-9.738-5.83h-12.493l7.359-11.041h54.819
					c33.482,0,60.726-27.244,60.726-60.726C336.753,165.959,318.69,142.844,293.914,135.187z M232.79,23.01
					c5.156,33.04,31.329,59.224,64.37,64.392c-3.395,17.92-15.678,33.156-32.361,40.444c-11.891-32.836-41.112-56.343-76.139-60.77
					C192.849,44.777,210.476,27.161,232.79,23.01z M276.027,231.863H77.288c-21.304,0-38.644-17.34-38.644-38.644
					s17.34-38.644,38.644-38.644c1.529,0,3.991,0.375,6.586,0.894v10.147c0,6.095,4.946,11.041,11.041,11.041
					c6.095,0,11.041-4.946,11.041-11.041v-17.771c5.924-34.52,35.53-59.517,70.702-59.517c35.166,0,64.773,24.997,70.702,59.523
					v17.765c0,6.095,4.946,11.041,11.041,11.041c6.095,0,11.041-4.946,11.041-11.041v-10.141c2.595-0.519,5.073-0.9,6.586-0.9
					c21.304,0,38.644,17.34,38.644,38.644S297.331,231.863,276.027,231.863z"/>
			</g>
		</g>
	</g>
</g>
<g>
</g>
<g>
</g>
<g>
</g>
<g>
</g>
<g>
</g>
<g>
</g>
<g>
</g>
<g>
</g>
<g>
</g>
<g>
</g>
<g>
</g>
<g>
</g>
<g>
</g>
<g>
</g>
<g>
</g>
</svg>
