<?xml version="1.0" encoding="iso-8859-1"?>
<!-- Generator: Adobe Illustrator 19.0.0, SVG Export Plug-In . SVG Version: 6.00 Build 0)  -->
<svg version="1.1" id="Capa_1" xmlns="http://www.w3.org/2000/svg" xmlns:xlink="http://www.w3.org/1999/xlink" x="0px" y="0px"
	 viewBox="0 0 353.315 353.315" style="enable-background:new 0 0 353.315 353.315;" xml:space="preserve">
<g>
	<g id="Dibujo_14_">
		<path d="M353.282,154.266c-0.011-0.414-0.066-0.823-0.121-1.242c-0.05-0.331-0.088-0.651-0.16-0.972
			c-0.083-0.348-0.199-0.679-0.315-1.01c-0.121-0.37-0.254-0.74-0.414-1.093c-0.05-0.105-0.066-0.21-0.116-0.315
			c-0.105-0.204-0.248-0.375-0.359-0.574c-0.193-0.337-0.386-0.657-0.613-0.972c-0.215-0.304-0.458-0.574-0.701-0.85
			c-0.226-0.254-0.447-0.497-0.696-0.723c-0.282-0.265-0.58-0.508-0.889-0.734c-0.259-0.199-0.519-0.386-0.8-0.563
			c-0.32-0.199-0.651-0.37-0.994-0.541c-0.304-0.144-0.602-0.287-0.916-0.403c-0.359-0.138-0.729-0.243-1.099-0.348
			c-0.315-0.083-0.618-0.16-0.944-0.215c-0.42-0.072-0.839-0.105-1.264-0.127c-0.21,0-0.403-0.05-0.607-0.05h-22.082
			c0-15.22-12.383-27.603-27.603-27.603h-77.282c-7.541,0-14.812,3.114-19.935,8.551c-1.656,1.75-2.937,3.732-4.041,5.786
			c-4.527-2.081-9.512-3.296-14.679-3.296c-5.173,0-10.141,1.215-14.657,3.296c-1.104-2.059-2.39-4.03-4.041-5.786
			c-5.129-5.438-12.399-8.551-19.94-8.551H60.732c-15.22,0-27.603,12.383-27.603,27.603H11.041c-0.215,0-0.42,0.055-0.635,0.066
			c-0.403,0.022-0.806,0.055-1.203,0.116c-0.353,0.061-0.685,0.144-1.021,0.237c-0.348,0.094-0.685,0.188-1.016,0.32
			c-0.348,0.127-0.668,0.282-0.994,0.436c-0.315,0.155-0.618,0.32-0.922,0.502c-0.304,0.188-0.58,0.392-0.861,0.602
			c-0.287,0.221-0.569,0.442-0.834,0.69c-0.259,0.243-0.497,0.497-0.729,0.762c-0.237,0.271-0.469,0.535-0.679,0.823
			c-0.232,0.315-0.425,0.64-0.618,0.983c-0.116,0.193-0.259,0.364-0.364,0.569c-0.055,0.105-0.072,0.21-0.116,0.315
			c-0.16,0.353-0.293,0.723-0.414,1.093c-0.116,0.331-0.232,0.668-0.315,1.01c-0.077,0.326-0.116,0.657-0.16,0.988
			c-0.061,0.409-0.116,0.812-0.121,1.22C0.028,154.366,0,154.465,0,154.575c0,0.215,0.055,0.42,0.066,0.635
			c0.022,0.403,0.055,0.806,0.116,1.203c0.061,0.348,0.144,0.679,0.237,1.021c0.094,0.348,0.188,0.685,0.32,1.016
			c0.127,0.342,0.276,0.662,0.436,0.988c0.155,0.32,0.32,0.624,0.502,0.927c0.188,0.298,0.386,0.574,0.596,0.856
			c0.221,0.293,0.447,0.569,0.696,0.839c0.237,0.259,0.497,0.497,0.762,0.729c0.265,0.237,0.535,0.469,0.823,0.679
			c0.315,0.232,0.64,0.425,0.983,0.624c0.193,0.105,0.364,0.254,0.569,0.353l27.095,13.542
			c0.718,32.869,27.625,59.396,60.654,59.396c27.536,0,60.665-13.575,69.476-74.914c0.066-0.287,0.083-0.58,0.116-0.872
			c0.171-1.242,0.359-2.451,0.508-3.732c1.408-4.715,7-8.811,12.697-8.811c5.703,0,11.306,4.096,12.714,8.811
			c0.149,1.275,0.337,2.49,0.508,3.732c0.039,0.293,0.055,0.585,0.116,0.872c8.811,61.339,41.94,74.914,69.476,74.914
			c33.029,0,59.937-26.526,60.654-59.39l27.089-13.542c0.204-0.105,0.37-0.248,0.574-0.364c0.337-0.193,0.662-0.386,0.977-0.613
			c0.298-0.215,0.569-0.453,0.834-0.696c0.259-0.226,0.508-0.458,0.745-0.707c0.259-0.282,0.491-0.569,0.718-0.872
			c0.199-0.265,0.392-0.535,0.574-0.817c0.193-0.315,0.359-0.635,0.524-0.966c0.155-0.315,0.304-0.624,0.42-0.95
			c0.133-0.348,0.237-0.701,0.331-1.06c0.088-0.326,0.171-0.646,0.226-0.983c0.072-0.409,0.105-0.812,0.121-1.231
			c0.011-0.21,0.061-0.409,0.061-0.618C353.315,154.465,353.287,154.371,353.282,154.266z M101.655,156.861l-27.603,27.603
			c-2.159,2.159-4.98,3.235-7.806,3.235s-5.648-1.076-7.806-3.235c-4.312-4.312-4.312-11.301,0-15.612l27.603-27.603
			c4.312-4.312,11.301-4.312,15.612,0C105.967,145.56,105.967,152.549,101.655,156.861z M261.751,156.861l-27.603,27.603
			c-2.159,2.159-4.98,3.235-7.806,3.235s-5.648-1.076-7.806-3.235c-4.312-4.312-4.312-11.301,0-15.612l27.603-27.603
			c4.312-4.312,11.301-4.312,15.612,0S266.063,152.549,261.751,156.861z"/>
	</g>
</g>
<g>
</g>
<g>
</g>
<g>
</g>
<g>
</g>
<g>
</g>
<g>
</g>
<g>
</g>
<g>
</g>
<g>
</g>
<g>
</g>
<g>
</g>
<g>
</g>
<g>
</g>
<g>
</g>
<g>
</g>
</svg>
