<?xml version="1.0" encoding="iso-8859-1"?>
<!-- Generator: Adobe Illustrator 19.0.0, SVG Export Plug-In . SVG Version: 6.00 Build 0)  -->
<svg version="1.1" id="Capa_1" xmlns="http://www.w3.org/2000/svg" xmlns:xlink="http://www.w3.org/1999/xlink" x="0px" y="0px"
	 viewBox="0 0 287.068 287.068" style="enable-background:new 0 0 287.068 287.068;" xml:space="preserve">
<g>
	<g id="Dibujo_2_">
		<path d="M33.123,198.74H11.041C4.941,198.74,0,203.686,0,209.781s4.941,11.041,11.041,11.041h22.082
			c6.095,0,11.041-4.946,11.041-11.041S39.218,198.74,33.123,198.74z M143.534,110.411c6.095,0,11.041-4.946,11.041-11.041V77.288
			c0-6.095-4.946-11.041-11.041-11.041c-6.1,0-11.041,4.946-11.041,11.041V99.37C132.493,105.465,137.434,110.411,143.534,110.411z
			 M73.263,123.903l-15.612-15.618c-4.312-4.312-11.301-4.312-15.612,0c-4.312,4.312-4.312,11.301,0,15.618l15.612,15.618
			c2.159,2.159,4.98,3.235,7.806,3.235c2.827,0,5.648-1.076,7.806-3.23C77.58,135.204,77.58,128.215,73.263,123.903z
			 M276.027,198.74h-22.082c-6.1,0-11.041,4.946-11.041,11.041s4.941,11.041,11.041,11.041h22.082
			c6.095,0,11.041-4.946,11.041-11.041S282.122,198.74,276.027,198.74z M143.534,132.493c-42.619,0-77.288,34.669-77.288,77.288
			c0,6.095,4.941,11.041,11.041,11.041h132.493c6.095,0,11.041-4.946,11.041-11.041
			C220.822,167.162,186.153,132.493,143.534,132.493z M89.438,198.74c5.129-25.168,27.437-44.164,54.096-44.164
			s48.967,18.996,54.096,44.164H89.438z M245.03,108.286c-4.312-4.306-11.301-4.312-15.612,0l-15.612,15.618
			c-4.312,4.312-4.312,11.301,0,15.618c2.159,2.153,4.98,3.23,7.806,3.23s5.648-1.077,7.806-3.235l15.612-15.618
			C249.341,119.586,249.341,112.597,245.03,108.286z"/>
	</g>
</g>
<g>
</g>
<g>
</g>
<g>
</g>
<g>
</g>
<g>
</g>
<g>
</g>
<g>
</g>
<g>
</g>
<g>
</g>
<g>
</g>
<g>
</g>
<g>
</g>
<g>
</g>
<g>
</g>
<g>
</g>
</svg>
