<?xml version="1.0" encoding="iso-8859-1"?>
<!-- Generator: Adobe Illustrator 19.0.0, SVG Export Plug-In . SVG Version: 6.00 Build 0)  -->
<svg version="1.1" id="Capa_1" xmlns="http://www.w3.org/2000/svg" xmlns:xlink="http://www.w3.org/1999/xlink" x="0px" y="0px"
	 viewBox="0 0 287.068 287.068" style="enable-background:new 0 0 287.068 287.068;" xml:space="preserve">
<g>
	<g id="Dibujo_61_">
		<g>
			<path d="M143.534,287.068c-33.482,0-60.726-27.244-60.726-60.726c0-15.502,5.962-30.407,16.506-41.63L99.37,44.159
				C99.37,19.813,119.183,0,143.534,0s44.164,19.813,44.164,44.164l0.05,140.548c10.55,11.218,16.512,26.123,16.512,41.63
				C204.26,259.825,177.016,287.068,143.534,287.068L143.534,287.068z M143.534,22.082c-12.178,0-22.082,9.904-22.082,22.082
				l-0.055,145.19c0,3.13-1.33,6.111-3.66,8.209c-8.165,7.331-12.846,17.826-12.846,28.779c0,21.304,17.34,38.644,38.644,38.644
				s38.644-17.34,38.644-38.644c0-10.958-4.687-21.447-12.846-28.779c-2.335-2.092-3.666-5.079-3.666-8.209l-0.05-145.185
				C165.616,31.986,155.713,22.082,143.534,22.082L143.534,22.082z"/>
		</g>
	</g>
</g>
<g>
</g>
<g>
</g>
<g>
</g>
<g>
</g>
<g>
</g>
<g>
</g>
<g>
</g>
<g>
</g>
<g>
</g>
<g>
</g>
<g>
</g>
<g>
</g>
<g>
</g>
<g>
</g>
<g>
</g>
</svg>
