<?xml version="1.0" encoding="iso-8859-1"?>
<!-- Generator: Adobe Illustrator 19.0.0, SVG Export Plug-In . SVG Version: 6.00 Build 0)  -->
<svg version="1.1" id="Capa_1" xmlns="http://www.w3.org/2000/svg" xmlns:xlink="http://www.w3.org/1999/xlink" x="0px" y="0px"
	 viewBox="0 0 309.151 309.151" style="enable-background:new 0 0 309.151 309.151;" xml:space="preserve">
<g>
	<g id="Dibujo_13_">
		<path d="M165.616,22.551v-11.51C165.616,4.946,160.67,0,154.575,0c-6.1,0-11.041,4.946-11.041,11.041v11.51
			C69.531,28.21,11.041,90.189,11.041,165.616c0,6.095,4.941,11.041,11.041,11.041c6.095,0,11.041-4.946,11.041-11.041
			c0-12.178,9.904-22.082,22.082-22.082s22.082,9.904,22.082,22.082c0,6.095,4.941,11.041,11.041,11.041
			c6.095,0,11.041-4.946,11.041-11.041c0-12.178,9.904-22.082,22.082-22.082s22.082,9.904,22.082,22.082v115.932
			c0,15.22,12.383,27.603,27.603,27.603c15.22,0,27.603-12.383,27.603-27.603c0-6.095-4.946-11.041-11.041-11.041
			c-6.1,0-11.041,4.946-11.041,11.041c0,3.047-2.473,5.521-5.521,5.521c-3.047,0-5.521-2.473-5.521-5.521V165.616
			c0-12.178,9.904-22.082,22.082-22.082c12.178,0,22.082,9.904,22.082,22.082c0,6.095,4.941,11.041,11.041,11.041
			c6.095,0,11.041-4.946,11.041-11.041c0-12.178,9.904-22.082,22.082-22.082s22.082,9.904,22.082,22.082
			c0,6.095,4.941,11.041,11.041,11.041c6.095,0,11.041-4.946,11.041-11.041C298.11,90.189,239.619,28.21,165.616,22.551z"/>
	</g>
</g>
<g>
</g>
<g>
</g>
<g>
</g>
<g>
</g>
<g>
</g>
<g>
</g>
<g>
</g>
<g>
</g>
<g>
</g>
<g>
</g>
<g>
</g>
<g>
</g>
<g>
</g>
<g>
</g>
<g>
</g>
</svg>
