<?xml version="1.0" encoding="iso-8859-1"?>
<!-- Generator: Adobe Illustrator 19.0.0, SVG Export Plug-In . SVG Version: 6.00 Build 0)  -->
<svg version="1.1" id="Capa_1" xmlns="http://www.w3.org/2000/svg" xmlns:xlink="http://www.w3.org/1999/xlink" x="0px" y="0px"
	 viewBox="0 0 397.474 397.474" style="enable-background:new 0 0 397.474 397.474;" xml:space="preserve">
<g>
	<g id="Dibujo_66_">
		<g>
			<path d="M331.231,77.288c6.095,0,11.041-4.946,11.041-11.041s-4.946-11.041-11.041-11.041c-38.859,0-71.016,28.856-76.404,66.247
				h-11.157c5.46-43.502,42.608-77.288,87.561-77.288c6.095,0,11.041-4.946,11.041-11.041s-4.946-11.041-11.041-11.041
				c-57.16,0-104.294,43.651-109.848,99.37h-44.727V66.247c0-8.176-2.274-15.811-6.161-22.391l8.446-8.446
				c4.312-4.312,4.312-11.301,0-15.612c-4.312-4.312-11.301-4.312-15.612,0l-8.446,8.446c-3.506-2.076-7.309-3.666-11.35-4.704
				V11.041C143.532,4.946,138.586,0,132.491,0c-6.1,0-11.041,4.946-11.041,11.041V23.54c-4.036,1.038-7.845,2.628-11.35,4.704
				l-8.446-8.446c-4.312-4.312-11.301-4.312-15.612,0c-4.312,4.312-4.312,11.301,0,15.612l8.446,8.446
				c-2.998,5.068-5.013,10.771-5.78,16.871H66.244c-5.123,0-9.567,3.522-10.743,8.502c-1.176,4.985,1.231,10.125,5.808,12.416
				l27.018,13.509v37.341c0,57.16,43.651,104.294,99.37,109.848v55.769H92.898l14.276-14.276c4.312-4.312,4.312-11.301,0-15.612
				c-4.312-4.312-11.301-4.312-15.612,0l-33.118,33.118c-0.513,0.513-0.977,1.082-1.38,1.695c-0.177,0.259-0.298,0.547-0.447,0.817
				c-0.193,0.353-0.409,0.701-0.574,1.077c-0.144,0.359-0.232,0.734-0.342,1.104c-0.094,0.32-0.215,0.624-0.287,0.955
				c-0.282,1.43-0.282,2.893,0,4.323c0.072,0.331,0.193,0.635,0.287,0.955c0.11,0.37,0.193,0.745,0.342,1.104
				c0.16,0.375,0.375,0.723,0.574,1.077c0.149,0.276,0.271,0.563,0.447,0.817c0.403,0.607,0.867,1.181,1.38,1.695l33.118,33.118
				c2.159,2.159,4.98,3.235,7.806,3.235c2.827,0,5.648-1.077,7.806-3.235c4.312-4.312,4.312-11.301,0-15.612l-14.276-14.276h94.799
				v66.247c0,6.095,4.941,11.041,11.041,11.041c6.095,0,11.041-4.946,11.041-11.041v-66.247h83.758l29.888,29.888
				c2.159,2.159,4.98,3.235,7.806,3.235s5.648-1.077,7.806-3.235c4.312-4.312,4.312-11.301,0-15.612l-25.317-25.317l25.317-25.317
				c4.312-4.312,4.312-11.301,0-15.612c-4.312-4.312-11.301-4.312-15.612,0l-29.888,29.888h-83.758v-55.763
				c55.719-5.559,99.37-52.694,99.37-109.848c0-12.178,9.904-22.082,22.082-22.082c6.095,0,11.041-4.946,11.041-11.041
				c0-6.095-4.946-11.041-11.041-11.041c-20.536,0-37.788,14.111-42.707,33.123H277.14
				C282.269,96.284,304.572,77.288,331.231,77.288z M217.75,143.534c-3.826,6.564-10.87,11.041-19.007,11.041
				c-8.143,0-15.182-4.477-19.007-11.041H217.75z M286.382,143.534c-5.454,43.513-42.679,77.288-87.644,77.288
				c-48.702,0-88.329-39.626-88.329-88.329V66.247c0-12.178,9.904-22.082,22.082-22.082c12.178,0,22.082,9.904,22.082,22.082v66.247
				c0,0.039,0.011,0.072,0.011,0.11c0.061,24.301,19.846,44.054,44.159,44.054c20.536,0,37.788-14.111,42.707-33.123H286.382z"/>
			<circle cx="132.491" cy="66.247" r="11.041"/>
		</g>
	</g>
</g>
<g>
</g>
<g>
</g>
<g>
</g>
<g>
</g>
<g>
</g>
<g>
</g>
<g>
</g>
<g>
</g>
<g>
</g>
<g>
</g>
<g>
</g>
<g>
</g>
<g>
</g>
<g>
</g>
<g>
</g>
</svg>
