<?xml version="1.0" encoding="iso-8859-1"?>
<!-- Generator: Adobe Illustrator 19.0.0, SVG Export Plug-In . SVG Version: 6.00 Build 0)  -->
<svg version="1.1" id="Capa_1" xmlns="http://www.w3.org/2000/svg" xmlns:xlink="http://www.w3.org/1999/xlink" x="0px" y="0px"
	 viewBox="0 0 364.356 364.356" style="enable-background:new 0 0 364.356 364.356;" xml:space="preserve">
<g>
	<g id="Dibujo_59_">
		<g>
			<path d="M291.656,167.51c-4.312,4.312-4.312,11.301-0.006,15.612c4.168,4.174,6.459,9.716,6.459,15.618
				c0,12.178-9.904,22.082-22.082,22.082l-115.932-0.006c-6.1,0-11.041,4.946-11.041,11.041c0,6.095,4.941,11.041,11.041,11.041
				l115.932,0.006c24.351,0,44.164-19.813,44.164-44.164c0-11.797-4.588-22.888-12.918-31.224
				C302.962,163.204,295.968,163.204,291.656,167.51z"/>
			<path d="M259.466,253.945L93.844,253.94l-33.118,0.006c-21.304,0-38.644-17.34-38.644-38.644s17.34-38.644,38.644-38.644
				c1.529,0,3.997,0.375,6.592,0.894v10.147c0,6.095,4.946,11.041,11.041,11.041c6.095,0,11.041-4.946,11.041-11.041V169.9
				c5.935-34.509,35.536-59.489,70.696-59.489c39.571,0,71.767,32.196,71.767,71.767v5.521c0,6.095,4.941,11.041,11.041,11.041
				c6.095,0,11.041-4.946,11.041-11.041v-5.521c0-3.539-0.237-7.017-0.618-10.456c29.662-11.129,50.303-40.029,50.303-72.352
				c0-6.095-4.946-11.041-11.041-11.041c-30.44,0-55.205-24.765-55.205-55.205c0-6.095-4.946-11.041-11.041-11.041
				c-39.074,0-71.386,29.171-76.498,66.859c-37.805,4.069-69.189,30.297-79.794,66.644c-3.185-0.574-6.525-1.01-9.324-1.01
				C27.244,154.575,0,181.819,0,215.301s27.244,60.726,60.726,60.726l33.118-0.006l165.622,0.006
				c21.304,0,38.644,17.34,38.644,38.644c0,6.095,4.941,11.041,11.041,11.041c6.095,0,11.041-4.946,11.041-11.041
				C320.192,281.189,292.948,253.945,259.466,253.945z M216.229,45.092c5.156,33.04,31.329,59.224,64.37,64.392
				c-3.401,17.958-15.734,33.228-32.466,40.493c-11.847-32.295-40.896-56.276-76.04-60.798
				C176.271,66.87,193.904,49.243,216.229,45.092z"/>
			<path d="M259.46,287.068H60.726c-6.1,0-11.041,4.946-11.041,11.041s4.941,11.041,11.041,11.041H259.46
				c3.047,0,5.521,2.473,5.521,5.521s-2.473,5.521-5.521,5.521c-6.1,0-11.041,4.946-11.041,11.041s4.941,11.041,11.041,11.041
				c15.22,0,27.603-12.383,27.603-27.603S274.68,287.068,259.46,287.068z"/>
			<path d="M336.753,209.781c-6.1,0-11.041,4.946-11.041,11.041c0,6.095,4.941,11.041,11.041,11.041
				c3.047,0,5.521,2.473,5.521,5.521s-2.473,5.521-5.521,5.521h-22.082c-6.1,0-11.041,4.946-11.041,11.041
				s4.941,11.041,11.041,11.041h22.082c15.22,0,27.603-12.383,27.603-27.603S351.974,209.781,336.753,209.781z"/>
		</g>
	</g>
</g>
<g>
</g>
<g>
</g>
<g>
</g>
<g>
</g>
<g>
</g>
<g>
</g>
<g>
</g>
<g>
</g>
<g>
</g>
<g>
</g>
<g>
</g>
<g>
</g>
<g>
</g>
<g>
</g>
<g>
</g>
</svg>
