<?xml version="1.0" encoding="iso-8859-1"?>
<!-- Generator: Adobe Illustrator 19.0.0, SVG Export Plug-In . SVG Version: 6.00 Build 0)  -->
<svg version="1.1" id="Capa_1" xmlns="http://www.w3.org/2000/svg" xmlns:xlink="http://www.w3.org/1999/xlink" x="0px" y="0px"
	 viewBox="0 0 369.877 369.877" style="enable-background:new 0 0 369.877 369.877;" xml:space="preserve">
<g>
	<g id="Dibujo_58_">
		<g>
			<path d="M226.342,52.445c6.095,0,11.041-4.946,11.041-11.041V19.322c0-6.095-4.946-11.041-11.041-11.041
				c-6.1,0-11.041,4.946-11.041,11.041v22.082C215.301,47.499,220.242,52.445,226.342,52.445z"/>
			<path d="M358.836,140.774h-22.082c-6.1,0-11.041,4.946-11.041,11.041c0,6.095,4.941,11.041,11.041,11.041h22.082
				c6.095,0,11.041-4.946,11.041-11.041C369.877,145.72,364.93,140.774,358.836,140.774z"/>
			<path d="M304.42,84.779c2.827,0,5.648-1.077,7.806-3.235l15.612-15.612c4.312-4.312,4.312-11.301,0-15.612
				c-4.312-4.312-11.301-4.312-15.612,0l-15.612,15.612c-4.312,4.312-4.312,11.301,0,15.612
				C298.767,83.703,301.593,84.779,304.42,84.779z"/>
			<path d="M140.459,81.544c2.159,2.159,4.98,3.235,7.806,3.235s5.648-1.077,7.806-3.235c4.312-4.312,4.312-11.301,0-15.612
				L140.459,50.32c-4.312-4.312-11.301-4.312-15.612,0c-4.312,4.312-4.312,11.301,0,15.612L140.459,81.544z"/>
			<path d="M259.466,273.267l-165.622-0.006l-33.118,0.006c-21.304,0-38.644-17.34-38.644-38.644s17.34-38.644,38.644-38.644
				c1.529,0,3.997,0.375,6.592,0.894v10.147c0,6.095,4.941,11.041,11.041,11.041S89.4,213.115,89.4,207.021v-17.798
				c5.935-34.509,35.536-59.489,70.696-59.489c39.571,0,71.767,32.196,71.767,71.767v5.521c0,6.095,4.941,11.041,11.041,11.041
				c6.095,0,11.041-4.946,11.041-11.041V201.5c0-41.945-27.663-77.536-65.695-89.521c10.141-9.678,23.716-15.369,38.092-15.369
				c30.44,0,55.205,24.765,55.205,55.205c0,7.668-1.612,15.193-4.654,22.132c-0.293-0.006-0.574-0.05-0.867-0.05
				c-6.1,0-11.041,4.946-11.041,11.041s4.941,11.041,11.041,11.041c6.746,0,13.029,3.025,17.246,8.297
				c3.163,3.953,4.836,8.717,4.836,13.785c0,12.178-9.904,22.082-22.082,22.082H160.096c-6.1,0-11.041,4.946-11.041,11.041
				c0,6.095,4.941,11.041,11.041,11.041h115.932c24.351,0,44.164-19.813,44.164-44.164c0-9.992-3.439-19.786-9.672-27.581
				c-3.45-4.312-7.618-7.823-12.228-10.522c3.483-8.921,5.338-18.455,5.338-28.144c0-42.619-34.669-77.288-77.288-77.288
				c-25.411,0-49.122,12.603-63.486,33.261c-0.922-0.022-1.827-0.138-2.76-0.138c-42.309,0-78.497,27.669-90.051,67.262
				c-3.18-0.58-6.52-1.016-9.319-1.016C27.244,173.897,0,201.141,0,234.623s27.244,60.726,60.726,60.726l33.118-0.005l165.622,0.005
				c21.304,0,38.644,17.34,38.644,38.644c0,6.095,4.941,11.041,11.041,11.041c6.095,0,11.041-4.946,11.041-11.041
				C320.192,300.511,292.948,273.267,259.466,273.267z"/>
			<path d="M259.46,306.39H60.726c-6.1,0-11.041,4.946-11.041,11.041s4.941,11.041,11.041,11.041H259.46
				c3.047,0,5.521,2.473,5.521,5.521c0,3.047-2.473,5.521-5.521,5.521c-6.1,0-11.041,4.946-11.041,11.041
				c0,6.095,4.941,11.041,11.041,11.041c15.22,0,27.603-12.383,27.603-27.603C287.063,318.773,274.68,306.39,259.46,306.39z"/>
			<path d="M336.753,229.103c-6.1,0-11.041,4.946-11.041,11.041c0,6.095,4.941,11.041,11.041,11.041
				c3.047,0,5.521,2.473,5.521,5.521s-2.473,5.521-5.521,5.521h-22.082c-6.1,0-11.041,4.946-11.041,11.041
				s4.941,11.041,11.041,11.041h22.082c15.22,0,27.603-12.383,27.603-27.603C364.356,241.485,351.974,229.103,336.753,229.103z"/>
		</g>
	</g>
</g>
<g>
</g>
<g>
</g>
<g>
</g>
<g>
</g>
<g>
</g>
<g>
</g>
<g>
</g>
<g>
</g>
<g>
</g>
<g>
</g>
<g>
</g>
<g>
</g>
<g>
</g>
<g>
</g>
<g>
</g>
</svg>
